<svg xmlns="http://www.w3.org/2000/svg" xmlns:xlink="http://www.w3.org/1999/xlink" width="200" zoomAndPan="magnify" viewBox="0 0 150 37.5" height="50" preserveAspectRatio="xMidYMid meet" version="1.0"><defs><g/><clipPath id="bc19cb64d5"><path d="M 3.09375 9 L 18 9 L 18 19 L 3.09375 19 Z M 3.09375 9 " clip-rule="nonzero"/></clipPath><clipPath id="19f97178a6"><path d="M 9.679688 12.574219 L 4.757812 11.414062 L 3.113281 18.355469 L 3.964844 18.558594 C 9.496094 19.859375 16.25 16.734375 17.558594 11.222656 L 17.972656 9.476562 C 15.765625 12.679688 12.742188 13.292969 9.679688 12.574219 Z M 9.679688 12.574219 " clip-rule="nonzero"/></clipPath><linearGradient x1="112.351897" gradientTransform="matrix(0.122036, 0.0287282, -0.0288368, 0.121576, -11.899057, 11.734005)" y1="-24.173" x2="246.778614" gradientUnits="userSpaceOnUse" y2="-24.173" id="e7bd4828fe"><stop stop-opacity="1" stop-color="rgb(0%, 68.998718%, 87.799072%)" offset="0"/><stop stop-opacity="1" stop-color="rgb(0%, 68.998718%, 87.799072%)" offset="0.125"/><stop stop-opacity="1" stop-color="rgb(0%, 68.998718%, 87.799072%)" offset="0.15625"/><stop stop-opacity="1" stop-color="rgb(0%, 68.998718%, 87.799072%)" offset="0.171875"/><stop stop-opacity="1" stop-color="rgb(0%, 68.847656%, 87.69989%)" offset="0.179688"/><stop stop-opacity="1" stop-color="rgb(0%, 68.531799%, 87.490845%)" offset="0.1875"/><stop stop-opacity="1" stop-color="rgb(0%, 68.199158%, 87.272644%)" offset="0.195312"/><stop stop-opacity="1" stop-color="rgb(0%, 67.868042%, 87.054443%)" offset="0.203125"/><stop stop-opacity="1" stop-color="rgb(0%, 67.5354%, 86.834717%)" offset="0.210938"/><stop stop-opacity="1" stop-color="rgb(0%, 67.202759%, 86.616516%)" offset="0.21875"/><stop stop-opacity="1" stop-color="rgb(0%, 66.870117%, 86.398315%)" offset="0.226562"/><stop stop-opacity="1" stop-color="rgb(0%, 66.539001%, 86.178589%)" offset="0.234375"/><stop stop-opacity="1" stop-color="rgb(0%, 66.20636%, 85.960388%)" offset="0.242188"/><stop stop-opacity="1" stop-color="rgb(0%, 65.873718%, 85.742188%)" offset="0.25"/><stop stop-opacity="1" stop-color="rgb(0%, 65.541077%, 85.522461%)" offset="0.257812"/><stop stop-opacity="1" stop-color="rgb(0%, 65.209961%, 85.30426%)" offset="0.265625"/><stop stop-opacity="1" stop-color="rgb(0%, 64.877319%, 85.08606%)" offset="0.273438"/><stop stop-opacity="1" stop-color="rgb(0%, 64.544678%, 84.867859%)" offset="0.28125"/><stop stop-opacity="1" stop-color="rgb(0%, 64.212036%, 84.648132%)" offset="0.289062"/><stop stop-opacity="1" stop-color="rgb(0%, 63.88092%, 84.429932%)" offset="0.296875"/><stop stop-opacity="1" stop-color="rgb(0%, 63.548279%, 84.211731%)" offset="0.304688"/><stop stop-opacity="1" stop-color="rgb(0%, 63.215637%, 83.992004%)" offset="0.3125"/><stop stop-opacity="1" stop-color="rgb(0%, 62.882996%, 83.773804%)" offset="0.320312"/><stop stop-opacity="1" stop-color="rgb(0%, 62.55188%, 83.555603%)" offset="0.328125"/><stop stop-opacity="1" stop-color="rgb(0%, 62.219238%, 83.335876%)" offset="0.335937"/><stop stop-opacity="1" stop-color="rgb(0%, 61.886597%, 83.117676%)" offset="0.34375"/><stop stop-opacity="1" stop-color="rgb(0%, 61.555481%, 82.899475%)" offset="0.351562"/><stop stop-opacity="1" stop-color="rgb(0%, 61.222839%, 82.679749%)" offset="0.359375"/><stop stop-opacity="1" stop-color="rgb(0%, 60.890198%, 82.461548%)" offset="0.367187"/><stop stop-opacity="1" stop-color="rgb(0%, 60.557556%, 82.243347%)" offset="0.375"/><stop stop-opacity="1" stop-color="rgb(0%, 60.22644%, 82.025146%)" offset="0.382812"/><stop stop-opacity="1" stop-color="rgb(0%, 59.893799%, 81.80542%)" offset="0.390625"/><stop stop-opacity="1" stop-color="rgb(0%, 59.561157%, 81.587219%)" offset="0.398437"/><stop stop-opacity="1" stop-color="rgb(0%, 59.228516%, 81.369019%)" offset="0.40625"/><stop stop-opacity="1" stop-color="rgb(0%, 58.8974%, 81.149292%)" offset="0.414062"/><stop stop-opacity="1" stop-color="rgb(0%, 58.564758%, 80.931091%)" offset="0.421875"/><stop stop-opacity="1" stop-color="rgb(0%, 58.232117%, 80.712891%)" offset="0.429687"/><stop stop-opacity="1" stop-color="rgb(0%, 57.899475%, 80.493164%)" offset="0.4375"/><stop stop-opacity="1" stop-color="rgb(0%, 57.568359%, 80.274963%)" offset="0.445312"/><stop stop-opacity="1" stop-color="rgb(0%, 57.235718%, 80.056763%)" offset="0.453125"/><stop stop-opacity="1" stop-color="rgb(0%, 56.903076%, 79.837036%)" offset="0.460937"/><stop stop-opacity="1" stop-color="rgb(0%, 56.570435%, 79.618835%)" offset="0.46875"/><stop stop-opacity="1" stop-color="rgb(0%, 56.239319%, 79.400635%)" offset="0.476562"/><stop stop-opacity="1" stop-color="rgb(0%, 55.906677%, 79.182434%)" offset="0.484375"/><stop stop-opacity="1" stop-color="rgb(0%, 55.574036%, 78.962708%)" offset="0.492187"/><stop stop-opacity="1" stop-color="rgb(0%, 55.241394%, 78.744507%)" offset="0.5"/><stop stop-opacity="1" stop-color="rgb(0%, 54.910278%, 78.526306%)" offset="0.507812"/><stop stop-opacity="1" stop-color="rgb(0%, 54.577637%, 78.30658%)" offset="0.515625"/><stop stop-opacity="1" stop-color="rgb(0%, 54.244995%, 78.088379%)" offset="0.523438"/><stop stop-opacity="1" stop-color="rgb(0%, 53.913879%, 77.870178%)" offset="0.53125"/><stop stop-opacity="1" stop-color="rgb(0%, 53.581238%, 77.650452%)" offset="0.539062"/><stop stop-opacity="1" stop-color="rgb(0%, 53.248596%, 77.432251%)" offset="0.546875"/><stop stop-opacity="1" stop-color="rgb(0%, 52.915955%, 77.21405%)" offset="0.554688"/><stop stop-opacity="1" stop-color="rgb(0%, 52.584839%, 76.994324%)" offset="0.5625"/><stop stop-opacity="1" stop-color="rgb(0%, 52.252197%, 76.776123%)" offset="0.570312"/><stop stop-opacity="1" stop-color="rgb(0%, 51.919556%, 76.557922%)" offset="0.578125"/><stop stop-opacity="1" stop-color="rgb(0%, 51.586914%, 76.339722%)" offset="0.585938"/><stop stop-opacity="1" stop-color="rgb(0%, 51.255798%, 76.119995%)" offset="0.59375"/><stop stop-opacity="1" stop-color="rgb(0%, 50.923157%, 75.901794%)" offset="0.601562"/><stop stop-opacity="1" stop-color="rgb(0%, 50.590515%, 75.683594%)" offset="0.609375"/><stop stop-opacity="1" stop-color="rgb(0%, 50.257874%, 75.463867%)" offset="0.617188"/><stop stop-opacity="1" stop-color="rgb(0%, 49.926758%, 75.245667%)" offset="0.625"/><stop stop-opacity="1" stop-color="rgb(0%, 49.578857%, 75.018311%)" offset="0.75"/><stop stop-opacity="1" stop-color="rgb(0%, 49.398804%, 74.899292%)" offset="1"/></linearGradient><clipPath id="d061e34bac"><path d="M 3.09375 3.148438 L 26 3.148438 L 26 21 L 3.09375 21 Z M 3.09375 3.148438 " clip-rule="nonzero"/></clipPath><clipPath id="415800addd"><path d="M 25.160156 4.789062 L 23.3125 12.574219 C 23.046875 13.695312 22.605469 14.730469 22.023438 15.65625 C 20.3125 18.382812 17.390625 20.160156 14.171875 20.433594 C 13.113281 20.523438 12.019531 20.453125 10.929688 20.195312 L 3.964844 18.554688 C 9.496094 19.859375 15.042969 16.449219 16.347656 10.9375 L 18.195312 3.148438 Z M 25.160156 4.789062 " clip-rule="nonzero"/></clipPath><linearGradient x1="292.240317" gradientTransform="matrix(0.122036, 0.0287282, -0.0288368, 0.121576, -11.899057, 11.734005)" y1="-142.901831" x2="146.006422" gradientUnits="userSpaceOnUse" y2="66.411706" id="947ed44e06"><stop stop-opacity="1" stop-color="rgb(0%, 68.998718%, 87.799072%)" offset="0"/><stop stop-opacity="1" stop-color="rgb(0%, 68.998718%, 87.799072%)" offset="0.125"/><stop stop-opacity="1" stop-color="rgb(0%, 68.998718%, 87.799072%)" offset="0.1875"/><stop stop-opacity="1" stop-color="rgb(0%, 69.132996%, 87.87384%)" offset="0.203125"/><stop stop-opacity="1" stop-color="rgb(0%, 69.441223%, 88.047791%)" offset="0.21875"/><stop stop-opacity="1" stop-color="rgb(0%, 69.790649%, 88.244629%)" offset="0.234375"/><stop stop-opacity="1" stop-color="rgb(0%, 70.13855%, 88.441467%)" offset="0.25"/><stop stop-opacity="1" stop-color="rgb(0%, 70.48645%, 88.63678%)" offset="0.265625"/><stop stop-opacity="1" stop-color="rgb(0%, 70.835876%, 88.833618%)" offset="0.28125"/><stop stop-opacity="1" stop-color="rgb(0%, 71.183777%, 89.030457%)" offset="0.296875"/><stop stop-opacity="1" stop-color="rgb(0%, 71.533203%, 89.225769%)" offset="0.3125"/><stop stop-opacity="1" stop-color="rgb(0%, 71.881104%, 89.422607%)" offset="0.328125"/><stop stop-opacity="1" stop-color="rgb(0%, 72.23053%, 89.619446%)" offset="0.34375"/><stop stop-opacity="1" stop-color="rgb(0%, 72.57843%, 89.814758%)" offset="0.359375"/><stop stop-opacity="1" stop-color="rgb(0%, 72.927856%, 90.011597%)" offset="0.375"/><stop stop-opacity="1" stop-color="rgb(0%, 73.275757%, 90.208435%)" offset="0.390625"/><stop stop-opacity="1" stop-color="rgb(0%, 73.623657%, 90.405273%)" offset="0.40625"/><stop stop-opacity="1" stop-color="rgb(0%, 73.973083%, 90.600586%)" offset="0.421875"/><stop stop-opacity="1" stop-color="rgb(0%, 74.320984%, 90.797424%)" offset="0.4375"/><stop stop-opacity="1" stop-color="rgb(0%, 74.67041%, 90.994263%)" offset="0.440646"/><stop stop-opacity="1" stop-color="rgb(0%, 74.84436%, 91.091919%)" offset="0.453125"/><stop stop-opacity="1" stop-color="rgb(0%, 75.018311%, 91.189575%)" offset="0.46875"/><stop stop-opacity="1" stop-color="rgb(0%, 75.367737%, 91.386414%)" offset="0.484375"/><stop stop-opacity="1" stop-color="rgb(0%, 75.715637%, 91.583252%)" offset="0.5"/><stop stop-opacity="1" stop-color="rgb(0%, 75.993347%, 91.740417%)" offset="0.559354"/><stop stop-opacity="1" stop-color="rgb(0%, 76.098633%, 91.799927%)" offset="1"/></linearGradient><clipPath id="1ee3b3717c"><path d="M 18 17 L 33.441406 17 L 33.441406 28 L 18 28 Z M 18 17 " clip-rule="nonzero"/></clipPath><clipPath id="0adbcd1c2c"><path d="M 26.855469 24.070312 L 31.777344 25.230469 L 33.421875 18.289062 L 32.570312 18.089844 C 27.039062 16.785156 20.285156 19.914062 18.976562 25.421875 L 18.5625 27.167969 C 20.769531 23.964844 23.792969 23.351562 26.855469 24.070312 Z M 26.855469 24.070312 " clip-rule="nonzero"/></clipPath><linearGradient x1="-652.475106" gradientTransform="matrix(-0.122036, -0.0287282, 0.0288368, -0.121576, -15.608102, -120.566303)" y1="-1039.99597" x2="-518.048386" gradientUnits="userSpaceOnUse" y2="-1039.99597" id="e71945aff4"><stop stop-opacity="1" stop-color="rgb(0%, 70.199585%, 64.698792%)" offset="0"/><stop stop-opacity="1" stop-color="rgb(0%, 70.199585%, 64.698792%)" offset="0.125"/><stop stop-opacity="1" stop-color="rgb(0%, 70.199585%, 64.698792%)" offset="0.15625"/><stop stop-opacity="1" stop-color="rgb(0%, 70.199585%, 64.698792%)" offset="0.171875"/><stop stop-opacity="1" stop-color="rgb(0%, 70.089722%, 64.601135%)" offset="0.179688"/><stop stop-opacity="1" stop-color="rgb(0%, 69.827271%, 64.367676%)" offset="0.1875"/><stop stop-opacity="1" stop-color="rgb(0%, 69.522095%, 64.093018%)" offset="0.195312"/><stop stop-opacity="1" stop-color="rgb(0%, 69.215393%, 63.819885%)" offset="0.203125"/><stop stop-opacity="1" stop-color="rgb(0%, 68.908691%, 63.545227%)" offset="0.210937"/><stop stop-opacity="1" stop-color="rgb(0%, 68.60199%, 63.270569%)" offset="0.21875"/><stop stop-opacity="1" stop-color="rgb(0%, 68.296814%, 62.997437%)" offset="0.226562"/><stop stop-opacity="1" stop-color="rgb(0%, 67.990112%, 62.722778%)" offset="0.234375"/><stop stop-opacity="1" stop-color="rgb(0%, 67.683411%, 62.449646%)" offset="0.242188"/><stop stop-opacity="1" stop-color="rgb(0%, 67.376709%, 62.174988%)" offset="0.25"/><stop stop-opacity="1" stop-color="rgb(0%, 67.071533%, 61.901855%)" offset="0.257812"/><stop stop-opacity="1" stop-color="rgb(0%, 66.764832%, 61.627197%)" offset="0.265625"/><stop stop-opacity="1" stop-color="rgb(0%, 66.45813%, 61.352539%)" offset="0.273438"/><stop stop-opacity="1" stop-color="rgb(0%, 66.151428%, 61.079407%)" offset="0.28125"/><stop stop-opacity="1" stop-color="rgb(0%, 65.844727%, 60.804749%)" offset="0.289062"/><stop stop-opacity="1" stop-color="rgb(0%, 65.539551%, 60.531616%)" offset="0.296875"/><stop stop-opacity="1" stop-color="rgb(0%, 65.232849%, 60.256958%)" offset="0.304688"/><stop stop-opacity="1" stop-color="rgb(0%, 64.926147%, 59.983826%)" offset="0.3125"/><stop stop-opacity="1" stop-color="rgb(0%, 64.619446%, 59.709167%)" offset="0.320312"/><stop stop-opacity="1" stop-color="rgb(0%, 64.31427%, 59.434509%)" offset="0.328125"/><stop stop-opacity="1" stop-color="rgb(0%, 64.007568%, 59.161377%)" offset="0.335938"/><stop stop-opacity="1" stop-color="rgb(0%, 63.700867%, 58.886719%)" offset="0.34375"/><stop stop-opacity="1" stop-color="rgb(0%, 63.394165%, 58.613586%)" offset="0.351562"/><stop stop-opacity="1" stop-color="rgb(0%, 63.088989%, 58.338928%)" offset="0.359375"/><stop stop-opacity="1" stop-color="rgb(0%, 62.782288%, 58.065796%)" offset="0.367188"/><stop stop-opacity="1" stop-color="rgb(0%, 62.475586%, 57.791138%)" offset="0.375"/><stop stop-opacity="1" stop-color="rgb(0%, 62.168884%, 57.516479%)" offset="0.382812"/><stop stop-opacity="1" stop-color="rgb(0%, 61.862183%, 57.243347%)" offset="0.390625"/><stop stop-opacity="1" stop-color="rgb(0%, 61.557007%, 56.968689%)" offset="0.398438"/><stop stop-opacity="1" stop-color="rgb(0%, 61.250305%, 56.695557%)" offset="0.40625"/><stop stop-opacity="1" stop-color="rgb(0%, 60.943604%, 56.420898%)" offset="0.414062"/><stop stop-opacity="1" stop-color="rgb(0%, 60.636902%, 56.147766%)" offset="0.421875"/><stop stop-opacity="1" stop-color="rgb(0%, 60.331726%, 55.873108%)" offset="0.429688"/><stop stop-opacity="1" stop-color="rgb(0%, 60.025024%, 55.59845%)" offset="0.4375"/><stop stop-opacity="1" stop-color="rgb(0%, 59.718323%, 55.325317%)" offset="0.445312"/><stop stop-opacity="1" stop-color="rgb(0%, 59.411621%, 55.050659%)" offset="0.453125"/><stop stop-opacity="1" stop-color="rgb(0%, 59.106445%, 54.777527%)" offset="0.460938"/><stop stop-opacity="1" stop-color="rgb(0%, 58.799744%, 54.502869%)" offset="0.46875"/><stop stop-opacity="1" stop-color="rgb(0%, 58.493042%, 54.22821%)" offset="0.476562"/><stop stop-opacity="1" stop-color="rgb(0%, 58.18634%, 53.955078%)" offset="0.484375"/><stop stop-opacity="1" stop-color="rgb(0%, 57.881165%, 53.68042%)" offset="0.492188"/><stop stop-opacity="1" stop-color="rgb(0%, 57.574463%, 53.407288%)" offset="0.5"/><stop stop-opacity="1" stop-color="rgb(0%, 57.267761%, 53.132629%)" offset="0.507812"/><stop stop-opacity="1" stop-color="rgb(0%, 56.96106%, 52.859497%)" offset="0.515625"/><stop stop-opacity="1" stop-color="rgb(0%, 56.654358%, 52.584839%)" offset="0.523438"/><stop stop-opacity="1" stop-color="rgb(0%, 56.349182%, 52.310181%)" offset="0.53125"/><stop stop-opacity="1" stop-color="rgb(0%, 56.04248%, 52.037048%)" offset="0.539062"/><stop stop-opacity="1" stop-color="rgb(0%, 55.735779%, 51.76239%)" offset="0.546875"/><stop stop-opacity="1" stop-color="rgb(0%, 55.429077%, 51.489258%)" offset="0.554688"/><stop stop-opacity="1" stop-color="rgb(0%, 55.123901%, 51.2146%)" offset="0.5625"/><stop stop-opacity="1" stop-color="rgb(0%, 54.8172%, 50.941467%)" offset="0.570312"/><stop stop-opacity="1" stop-color="rgb(0%, 54.510498%, 50.666809%)" offset="0.578125"/><stop stop-opacity="1" stop-color="rgb(0%, 54.203796%, 50.392151%)" offset="0.585938"/><stop stop-opacity="1" stop-color="rgb(0%, 53.898621%, 50.119019%)" offset="0.59375"/><stop stop-opacity="1" stop-color="rgb(0%, 53.591919%, 49.84436%)" offset="0.601562"/><stop stop-opacity="1" stop-color="rgb(0%, 53.285217%, 49.571228%)" offset="0.609375"/><stop stop-opacity="1" stop-color="rgb(0%, 52.978516%, 49.29657%)" offset="0.617188"/><stop stop-opacity="1" stop-color="rgb(0%, 52.671814%, 49.023438%)" offset="0.625"/><stop stop-opacity="1" stop-color="rgb(0%, 52.359009%, 48.742676%)" offset="0.75"/><stop stop-opacity="1" stop-color="rgb(0%, 52.198792%, 48.599243%)" offset="1"/></linearGradient><clipPath id="520c6589a9"><path d="M 11 16 L 33 16 L 33 33.496094 L 11 33.496094 Z M 11 16 " clip-rule="nonzero"/></clipPath><clipPath id="96d3832877"><path d="M 18.339844 33.496094 L 20.1875 25.707031 C 21.496094 20.199219 27.039062 16.785156 32.570312 18.089844 L 25.605469 16.449219 C 20.074219 15.144531 14.53125 18.558594 13.222656 24.070312 L 11.375 31.855469 Z M 18.339844 33.496094 " clip-rule="nonzero"/></clipPath><linearGradient x1="324.368643" gradientTransform="matrix(0.122036, 0.0287282, -0.0288368, 0.121576, -11.899057, 11.734005)" y1="-82.334377" x2="222.944074" gradientUnits="userSpaceOnUse" y2="143.05082" id="b5f65db260"><stop stop-opacity="1" stop-color="rgb(0%, 76.499939%, 72.499084%)" offset="0"/><stop stop-opacity="1" stop-color="rgb(0%, 76.499939%, 72.499084%)" offset="0.25"/><stop stop-opacity="1" stop-color="rgb(0%, 76.499939%, 72.499084%)" offset="0.3125"/><stop stop-opacity="1" stop-color="rgb(0%, 76.423645%, 72.40448%)" offset="0.329181"/><stop stop-opacity="1" stop-color="rgb(0%, 76.347351%, 72.309875%)" offset="0.34375"/><stop stop-opacity="1" stop-color="rgb(0%, 76.194763%, 72.122192%)" offset="0.359375"/><stop stop-opacity="1" stop-color="rgb(0%, 75.889587%, 71.7453%)" offset="0.375"/><stop stop-opacity="1" stop-color="rgb(0%, 75.585938%, 71.369934%)" offset="0.390625"/><stop stop-opacity="1" stop-color="rgb(0%, 75.282288%, 70.993042%)" offset="0.40625"/><stop stop-opacity="1" stop-color="rgb(0%, 74.978638%, 70.617676%)" offset="0.421875"/><stop stop-opacity="1" stop-color="rgb(0%, 74.674988%, 70.240784%)" offset="0.4375"/><stop stop-opacity="1" stop-color="rgb(0%, 74.371338%, 69.863892%)" offset="0.453125"/><stop stop-opacity="1" stop-color="rgb(0%, 74.067688%, 69.488525%)" offset="0.46875"/><stop stop-opacity="1" stop-color="rgb(0%, 73.762512%, 69.111633%)" offset="0.484375"/><stop stop-opacity="1" stop-color="rgb(0%, 73.458862%, 68.736267%)" offset="0.5"/><stop stop-opacity="1" stop-color="rgb(0%, 73.155212%, 68.359375%)" offset="0.515625"/><stop stop-opacity="1" stop-color="rgb(0%, 72.851562%, 67.982483%)" offset="0.53125"/><stop stop-opacity="1" stop-color="rgb(0%, 72.547913%, 67.607117%)" offset="0.546875"/><stop stop-opacity="1" stop-color="rgb(0%, 72.244263%, 67.230225%)" offset="0.5625"/><stop stop-opacity="1" stop-color="rgb(0%, 71.939087%, 66.854858%)" offset="0.578125"/><stop stop-opacity="1" stop-color="rgb(0%, 71.635437%, 66.477966%)" offset="0.59375"/><stop stop-opacity="1" stop-color="rgb(0%, 71.331787%, 66.1026%)" offset="0.609375"/><stop stop-opacity="1" stop-color="rgb(0%, 71.028137%, 65.725708%)" offset="0.625"/><stop stop-opacity="1" stop-color="rgb(0%, 70.724487%, 65.348816%)" offset="0.640625"/><stop stop-opacity="1" stop-color="rgb(0%, 70.420837%, 64.97345%)" offset="0.65625"/><stop stop-opacity="1" stop-color="rgb(0%, 70.233154%, 64.741516%)" offset="0.670819"/><stop stop-opacity="1" stop-color="rgb(0%, 70.199585%, 64.698792%)" offset="0.6875"/><stop stop-opacity="1" stop-color="rgb(0%, 70.199585%, 64.698792%)" offset="0.75"/><stop stop-opacity="1" stop-color="rgb(0%, 70.199585%, 64.698792%)" offset="1"/></linearGradient><clipPath id="1f04104559"><path d="M 8 4 L 15 4 L 15 10 L 8 10 Z M 8 4 " clip-rule="nonzero"/></clipPath><clipPath id="ee28eb00d6"><path d="M 14.046875 7.242188 C 14.046875 7.59375 13.980469 7.933594 13.84375 8.261719 C 13.707031 8.585938 13.515625 8.875 13.265625 9.125 C 13.015625 9.375 12.726562 9.566406 12.398438 9.699219 C 12.070312 9.835938 11.730469 9.902344 11.375 9.902344 C 11.023438 9.902344 10.679688 9.835938 10.355469 9.699219 C 10.027344 9.566406 9.738281 9.375 9.488281 9.125 C 9.238281 8.875 9.042969 8.585938 8.910156 8.261719 C 8.773438 7.933594 8.707031 7.59375 8.707031 7.242188 C 8.707031 6.890625 8.773438 6.550781 8.910156 6.222656 C 9.042969 5.898438 9.238281 5.609375 9.488281 5.359375 C 9.738281 5.109375 10.027344 4.917969 10.355469 4.785156 C 10.679688 4.648438 11.023438 4.582031 11.375 4.582031 C 11.730469 4.582031 12.070312 4.648438 12.398438 4.785156 C 12.726562 4.917969 13.015625 5.109375 13.265625 5.359375 C 13.515625 5.609375 13.707031 5.898438 13.84375 6.222656 C 13.980469 6.550781 14.046875 6.890625 14.046875 7.242188 Z M 14.046875 7.242188 " clip-rule="nonzero"/></clipPath><linearGradient x1="65.050885" gradientTransform="matrix(0.125397, 0, 0, 0.124924, 3.112555, 3.149498)" y1="10.673279" x2="66.750213" gradientUnits="userSpaceOnUse" y2="54.846705" id="5f5085f189"><stop stop-opacity="1" stop-color="rgb(0%, 71.253967%, 66.00647%)" offset="0"/><stop stop-opacity="1" stop-color="rgb(0%, 71.34552%, 66.119385%)" offset="0.03125"/><stop stop-opacity="1" stop-color="rgb(0%, 71.528625%, 66.345215%)" offset="0.0370444"/><stop stop-opacity="1" stop-color="rgb(0%, 71.620178%, 66.45813%)" offset="0.0625"/><stop stop-opacity="1" stop-color="rgb(0%, 71.710205%, 66.571045%)" offset="0.09375"/><stop stop-opacity="1" stop-color="rgb(0%, 71.893311%, 66.796875%)" offset="0.125"/><stop stop-opacity="1" stop-color="rgb(0%, 72.076416%, 67.022705%)" offset="0.15625"/><stop stop-opacity="1" stop-color="rgb(0%, 72.257996%, 67.248535%)" offset="0.1875"/><stop stop-opacity="1" stop-color="rgb(0%, 72.441101%, 67.475891%)" offset="0.21875"/><stop stop-opacity="1" stop-color="rgb(0%, 72.624207%, 67.701721%)" offset="0.25"/><stop stop-opacity="1" stop-color="rgb(0%, 72.807312%, 67.927551%)" offset="0.28125"/><stop stop-opacity="1" stop-color="rgb(0%, 72.988892%, 68.153381%)" offset="0.3125"/><stop stop-opacity="1" stop-color="rgb(0%, 73.171997%, 68.379211%)" offset="0.34375"/><stop stop-opacity="1" stop-color="rgb(0%, 73.355103%, 68.606567%)" offset="0.375"/><stop stop-opacity="1" stop-color="rgb(0%, 73.536682%, 68.832397%)" offset="0.40625"/><stop stop-opacity="1" stop-color="rgb(0%, 73.719788%, 69.058228%)" offset="0.4375"/><stop stop-opacity="1" stop-color="rgb(0%, 73.902893%, 69.284058%)" offset="0.46875"/><stop stop-opacity="1" stop-color="rgb(0%, 74.084473%, 69.509888%)" offset="0.5"/><stop stop-opacity="1" stop-color="rgb(0%, 74.267578%, 69.735718%)" offset="0.53125"/><stop stop-opacity="1" stop-color="rgb(0%, 74.450684%, 69.963074%)" offset="0.5625"/><stop stop-opacity="1" stop-color="rgb(0%, 74.632263%, 70.188904%)" offset="0.59375"/><stop stop-opacity="1" stop-color="rgb(0%, 74.815369%, 70.414734%)" offset="0.625"/><stop stop-opacity="1" stop-color="rgb(0%, 74.998474%, 70.640564%)" offset="0.65625"/><stop stop-opacity="1" stop-color="rgb(0%, 75.180054%, 70.866394%)" offset="0.6875"/><stop stop-opacity="1" stop-color="rgb(0%, 75.363159%, 71.092224%)" offset="0.71875"/><stop stop-opacity="1" stop-color="rgb(0%, 75.546265%, 71.31958%)" offset="0.75"/><stop stop-opacity="1" stop-color="rgb(0%, 75.727844%, 71.54541%)" offset="0.78125"/><stop stop-opacity="1" stop-color="rgb(0%, 75.91095%, 71.77124%)" offset="0.8125"/><stop stop-opacity="1" stop-color="rgb(0%, 76.094055%, 71.99707%)" offset="0.84375"/><stop stop-opacity="1" stop-color="rgb(0%, 76.275635%, 72.2229%)" offset="0.875"/><stop stop-opacity="1" stop-color="rgb(0%, 76.4328%, 72.418213%)" offset="0.962956"/><stop stop-opacity="1" stop-color="rgb(0%, 76.499939%, 72.499084%)" offset="1"/></linearGradient></defs><g clip-path="url(#bc19cb64d5)"><g clip-path="url(#19f97178a6)"><path fill="url(#e7bd4828fe)" d="M 3.898438 6.164062 L 0.78125 19.3125 L 17.183594 23.171875 L 20.304688 10.027344 Z M 3.898438 6.164062 " fill-rule="nonzero"/></g></g><g clip-path="url(#d061e34bac)"><g clip-path="url(#415800addd)"><path fill="url(#947ed44e06)" d="M 5.085938 -1.574219 L 0.0625 19.605469 L 24.039062 25.25 L 29.0625 4.070312 Z M 5.085938 -1.574219 " fill-rule="nonzero"/></g></g><path fill="#ffffff" d="M 22.023438 15.65625 C 20.3125 18.382812 17.390625 20.164062 14.171875 20.4375 C 15.945312 17.777344 18.835938 16.015625 22.023438 15.65625 Z M 22.023438 15.65625 " fill-opacity="0.93" fill-rule="nonzero"/><g clip-path="url(#1ee3b3717c)"><g clip-path="url(#0adbcd1c2c)"><path fill="url(#e71945aff4)" d="M 32.636719 30.480469 L 35.753906 17.335938 L 19.351562 13.472656 L 16.230469 26.617188 Z M 32.636719 30.480469 " fill-rule="nonzero"/></g></g><g clip-path="url(#520c6589a9)"><g clip-path="url(#96d3832877)"><path fill="url(#b5f65db260)" d="M 12.496094 10.421875 L 7.253906 32.523438 L 31.449219 38.21875 L 36.691406 16.117188 Z M 12.496094 10.421875 " fill-rule="nonzero"/></g></g><g clip-path="url(#1f04104559)"><g clip-path="url(#ee28eb00d6)"><path fill="url(#5f5085f189)" d="M 8.707031 4.582031 L 8.707031 9.902344 L 14.046875 9.902344 L 14.046875 4.582031 Z M 8.707031 4.582031 " fill-rule="nonzero"/></g></g><g fill="#00c1e9" fill-opacity="1"><g transform="translate(36.322777, 24.150453)"><g><path d="M 3.765625 -11.421875 C 4.140625 -11.515625 4.492188 -11.566406 4.828125 -11.578125 C 5.160156 -11.585938 5.347656 -11.59375 5.390625 -11.59375 C 5.960938 -11.59375 6.515625 -11.550781 7.046875 -11.46875 C 7.609375 -11.375 8.003906 -11.328125 8.234375 -11.328125 L 8.609375 -11.328125 L 8.5625 -11.09375 C 8.53125 -10.882812 8.503906 -10.394531 8.484375 -9.625 C 8.453125 -8.851562 8.425781 -8.46875 8.40625 -8.46875 C 8.375 -8.46875 8.300781 -8.507812 8.1875 -8.59375 C 7.4375 -9.164062 6.472656 -9.488281 5.296875 -9.5625 C 5.191406 -9.5625 5.085938 -9.5625 4.984375 -9.5625 C 4.242188 -9.5625 3.734375 -9.410156 3.453125 -9.109375 C 3.347656 -8.984375 3.28125 -8.882812 3.25 -8.8125 C 3.226562 -8.738281 3.21875 -8.625 3.21875 -8.46875 C 3.21875 -8.207031 3.296875 -7.984375 3.453125 -7.796875 C 3.585938 -7.617188 3.78125 -7.460938 4.03125 -7.328125 C 4.28125 -7.191406 4.664062 -7.039062 5.1875 -6.875 C 6.320312 -6.457031 7.0625 -6.140625 7.40625 -5.921875 C 7.675781 -5.753906 7.945312 -5.523438 8.21875 -5.234375 C 8.488281 -4.953125 8.675781 -4.6875 8.78125 -4.4375 C 8.875 -4.238281 8.929688 -4.070312 8.953125 -3.9375 C 8.972656 -3.800781 8.984375 -3.53125 8.984375 -3.125 C 8.984375 -2.71875 8.96875 -2.445312 8.9375 -2.3125 C 8.914062 -2.175781 8.859375 -2 8.765625 -1.78125 C 8.640625 -1.457031 8.441406 -1.15625 8.171875 -0.875 C 7.835938 -0.539062 7.457031 -0.285156 7.03125 -0.109375 C 6.613281 0.0546875 6.078125 0.15625 5.421875 0.1875 C 5.222656 0.207031 5.03125 0.21875 4.84375 0.21875 C 4.320312 0.21875 3.789062 0.160156 3.25 0.046875 C 2.707031 -0.0664062 2.226562 -0.257812 1.8125 -0.53125 L 0.921875 -0.703125 L 1.015625 -1.9375 C 1.054688 -2.34375 1.078125 -2.617188 1.078125 -2.765625 C 1.078125 -2.835938 1.070312 -2.878906 1.0625 -2.890625 C 1.070312 -2.890625 1.234375 -2.835938 1.546875 -2.734375 C 2.304688 -2.390625 3.128906 -2.164062 4.015625 -2.0625 C 4.191406 -2.050781 4.359375 -2.046875 4.515625 -2.046875 C 4.910156 -2.046875 5.289062 -2.101562 5.65625 -2.21875 C 6.03125 -2.34375 6.300781 -2.578125 6.46875 -2.921875 C 6.53125 -3.085938 6.5625 -3.1875 6.5625 -3.21875 C 6.570312 -3.257812 6.578125 -3.285156 6.578125 -3.296875 C 6.578125 -3.347656 6.554688 -3.429688 6.515625 -3.546875 C 6.398438 -3.867188 5.945312 -4.164062 5.15625 -4.4375 C 5.019531 -4.46875 4.757812 -4.546875 4.375 -4.671875 C 3.988281 -4.804688 3.757812 -4.882812 3.6875 -4.90625 C 2.6875 -5.25 2 -5.644531 1.625 -6.09375 C 1.363281 -6.394531 1.191406 -6.671875 1.109375 -6.921875 C 1.023438 -7.171875 0.984375 -7.570312 0.984375 -8.125 C 0.984375 -8.53125 0.992188 -8.800781 1.015625 -8.9375 C 1.046875 -9.082031 1.101562 -9.253906 1.1875 -9.453125 C 1.3125 -9.734375 1.515625 -10.019531 1.796875 -10.3125 C 2.085938 -10.613281 2.382812 -10.851562 2.6875 -11.03125 C 3.007812 -11.195312 3.367188 -11.328125 3.765625 -11.421875 Z M 3.765625 -11.421875 "/></g></g></g><g fill="#00c1e9" fill-opacity="1"><g transform="translate(46.004528, 24.150453)"><g><path d="M 1.71875 -11.265625 C 1.875 -11.515625 1.960938 -11.640625 1.984375 -11.640625 C 2.015625 -11.640625 2.175781 -11.421875 2.46875 -10.984375 C 2.613281 -10.753906 3.109375 -10.179688 3.953125 -9.265625 C 4.804688 -8.347656 5.253906 -7.882812 5.296875 -7.875 C 5.335938 -7.875 5.648438 -8.242188 6.234375 -8.984375 C 6.816406 -9.734375 7.242188 -10.359375 7.515625 -10.859375 C 7.804688 -11.410156 7.984375 -11.703125 8.046875 -11.734375 C 8.046875 -11.679688 8.21875 -11.515625 8.5625 -11.234375 C 8.71875 -11.109375 9.054688 -10.953125 9.578125 -10.765625 L 10.0625 -10.578125 L 9.65625 -10.125 C 9.257812 -9.6875 8.703125 -8.984375 7.984375 -8.015625 C 7.265625 -7.054688 6.832031 -6.445312 6.6875 -6.1875 C 6.601562 -6.039062 6.5625 -5.453125 6.5625 -4.421875 C 6.5625 -4.285156 6.5625 -3.859375 6.5625 -3.140625 C 6.570312 -2.421875 6.617188 -1.6875 6.703125 -0.9375 C 6.796875 -0.1875 6.851562 0.203125 6.875 0.234375 C 6.894531 0.273438 6.90625 0.300781 6.90625 0.3125 C 6.90625 0.320312 6.894531 0.328125 6.875 0.328125 C 6.800781 0.328125 6.671875 0.273438 6.484375 0.171875 C 6.160156 0.0234375 5.898438 -0.0546875 5.703125 -0.078125 C 5.515625 -0.0976562 5.359375 -0.109375 5.234375 -0.109375 C 4.941406 -0.109375 4.535156 -0.0820312 4.015625 -0.03125 C 3.992188 -0.03125 3.96875 -0.03125 3.9375 -0.03125 C 3.875 -0.03125 3.84375 -0.0507812 3.84375 -0.09375 C 3.851562 -0.101562 3.863281 -0.148438 3.875 -0.234375 C 3.882812 -0.316406 3.90625 -0.421875 3.9375 -0.546875 C 3.976562 -0.679688 4.003906 -0.8125 4.015625 -0.9375 C 4.148438 -1.394531 4.21875 -2.066406 4.21875 -2.953125 C 4.21875 -3.085938 4.21875 -3.222656 4.21875 -3.359375 C 4.1875 -5.160156 4.085938 -6.171875 3.921875 -6.390625 C 3.347656 -7.148438 2.722656 -7.84375 2.046875 -8.46875 C 1.367188 -9.09375 0.914062 -9.492188 0.6875 -9.671875 C 0.445312 -9.804688 0.328125 -9.898438 0.328125 -9.953125 C 0.328125 -9.972656 0.351562 -10 0.40625 -10.03125 C 1.09375 -10.5625 1.53125 -10.972656 1.71875 -11.265625 Z M 1.71875 -11.265625 "/></g></g></g><g fill="#00c1e9" fill-opacity="1"><g transform="translate(56.108754, 24.150453)"><g><path d="M 4 -11.390625 C 4.144531 -11.441406 4.242188 -11.46875 4.296875 -11.46875 C 4.296875 -11.46875 4.300781 -11.460938 4.3125 -11.453125 C 4.332031 -11.453125 4.363281 -11.410156 4.40625 -11.328125 C 4.988281 -9.984375 5.617188 -8.695312 6.296875 -7.46875 C 6.972656 -6.238281 7.53125 -5.320312 7.96875 -4.71875 C 8.40625 -4.125 8.660156 -3.800781 8.734375 -3.75 C 8.753906 -3.75 8.769531 -3.789062 8.78125 -3.875 C 8.789062 -3.96875 8.796875 -4.140625 8.796875 -4.390625 C 8.796875 -4.640625 8.785156 -4.921875 8.765625 -5.234375 C 8.753906 -5.554688 8.742188 -6.023438 8.734375 -6.640625 C 8.671875 -8.773438 8.585938 -10.300781 8.484375 -11.21875 L 8.453125 -11.453125 L 8.96875 -11.390625 C 9.082031 -11.378906 9.195312 -11.375 9.3125 -11.375 C 9.8125 -11.375 10.222656 -11.460938 10.546875 -11.640625 L 10.734375 -11.734375 L 10.703125 -11.234375 C 10.671875 -10.796875 10.648438 -9.546875 10.640625 -7.484375 C 10.628906 -5.429688 10.625 -4.003906 10.625 -3.203125 C 10.625 -2.148438 10.628906 -1.476562 10.640625 -1.1875 C 10.660156 -0.925781 10.671875 -0.710938 10.671875 -0.546875 C 10.671875 -0.285156 10.644531 -0.128906 10.59375 -0.078125 C 10.53125 0.0234375 10.5 0.0820312 10.5 0.09375 C 10.488281 0.09375 10.296875 0.0351562 9.921875 -0.078125 C 9.554688 -0.179688 9.222656 -0.234375 8.921875 -0.234375 C 8.890625 -0.234375 8.863281 -0.234375 8.84375 -0.234375 L 8.359375 -0.125 C 6.941406 -2.707031 5.5625 -5.21875 4.21875 -7.65625 L 4.1875 -5.703125 C 4.15625 -3.691406 4.070312 -2.070312 3.9375 -0.84375 C 3.882812 -0.21875 3.859375 0.15625 3.859375 0.28125 C 3.859375 0.332031 3.847656 0.363281 3.828125 0.375 C 3.804688 0.394531 3.785156 0.40625 3.765625 0.40625 C 3.753906 0.40625 3.734375 0.398438 3.703125 0.390625 C 3.671875 0.390625 3.617188 0.375 3.546875 0.34375 C 3.472656 0.3125 3.363281 0.269531 3.21875 0.21875 C 2.65625 -0.0390625 2.125 -0.1875 1.625 -0.21875 C 1.351562 -0.226562 1.203125 -0.242188 1.171875 -0.265625 C 1.140625 -0.296875 1.125 -0.328125 1.125 -0.359375 C 1.125 -0.421875 1.160156 -0.515625 1.234375 -0.640625 C 1.609375 -1.441406 1.878906 -2.75 2.046875 -4.5625 C 2.222656 -6.382812 2.3125 -7.757812 2.3125 -8.6875 C 2.3125 -9.4375 2.269531 -10.066406 2.1875 -10.578125 C 2.101562 -10.953125 2.0625 -11.160156 2.0625 -11.203125 C 2.0625 -11.234375 2.34375 -11.257812 2.90625 -11.28125 C 3.476562 -11.320312 3.84375 -11.359375 4 -11.390625 Z M 4 -11.390625 "/></g></g></g><g fill="#00c1e9" fill-opacity="1"><g transform="translate(68.078924, 24.150453)"><g><path d="M 4.265625 -11.53125 C 4.585938 -11.613281 4.988281 -11.65625 5.46875 -11.65625 C 5.582031 -11.65625 5.820312 -11.648438 6.1875 -11.640625 C 6.5625 -11.628906 6.984375 -11.550781 7.453125 -11.40625 C 7.804688 -11.300781 8.238281 -11.128906 8.75 -10.890625 C 9.269531 -10.648438 9.53125 -10.5 9.53125 -10.4375 C 9.53125 -10.40625 9.4375 -10.117188 9.25 -9.578125 C 9.082031 -9.097656 8.984375 -8.738281 8.953125 -8.5 C 8.921875 -8.320312 8.878906 -8.226562 8.828125 -8.21875 C 8.828125 -8.21875 8.816406 -8.21875 8.796875 -8.21875 C 8.742188 -8.21875 8.617188 -8.296875 8.421875 -8.453125 C 8.148438 -8.648438 7.867188 -8.835938 7.578125 -9.015625 C 6.953125 -9.378906 6.359375 -9.5625 5.796875 -9.5625 C 5.441406 -9.5625 4.96875 -9.429688 4.375 -9.171875 C 3.789062 -8.910156 3.359375 -8.191406 3.078125 -7.015625 C 2.984375 -6.617188 2.9375 -6.203125 2.9375 -5.765625 C 2.9375 -5.554688 2.957031 -5.226562 3 -4.78125 C 3.039062 -4.332031 3.164062 -3.878906 3.375 -3.421875 C 3.65625 -2.816406 4.023438 -2.40625 4.484375 -2.1875 C 4.953125 -1.96875 5.398438 -1.859375 5.828125 -1.859375 C 6.035156 -1.859375 6.359375 -1.898438 6.796875 -1.984375 C 7.242188 -2.078125 7.742188 -2.375 8.296875 -2.875 C 8.554688 -3.101562 8.695312 -3.21875 8.71875 -3.21875 C 8.738281 -3.21875 8.828125 -3.078125 8.984375 -2.796875 C 9.128906 -2.515625 9.320312 -2.242188 9.5625 -1.984375 L 9.875 -1.65625 L 9.671875 -1.375 C 9.359375 -0.976562 8.941406 -0.628906 8.421875 -0.328125 C 7.910156 -0.0234375 7.382812 0.171875 6.84375 0.265625 C 6.46875 0.335938 6.109375 0.375 5.765625 0.375 C 5.046875 0.375 4.269531 0.207031 3.4375 -0.125 C 2.613281 -0.46875 1.945312 -1.0625 1.4375 -1.90625 C 0.96875 -2.675781 0.707031 -3.425781 0.65625 -4.15625 C 0.613281 -4.882812 0.59375 -5.359375 0.59375 -5.578125 C 0.59375 -6.535156 0.726562 -7.429688 1 -8.265625 C 1.269531 -9.109375 1.679688 -9.8125 2.234375 -10.375 C 2.796875 -10.9375 3.472656 -11.320312 4.265625 -11.53125 Z M 4.265625 -11.53125 "/></g></g></g><g fill="#404040" fill-opacity="1"><g transform="translate(78.11399, 24.150453)"><g/></g></g><g fill="#00b3a5" fill-opacity="1"><g transform="translate(83.518501, 24.150453)"><g><path d="M 12.0625 -11.453125 C 12.582031 -11.503906 12.921875 -11.53125 13.078125 -11.53125 C 13.148438 -11.53125 13.1875 -11.523438 13.1875 -11.515625 C 13.1875 -11.515625 13.1875 -11.507812 13.1875 -11.5 C 13.1875 -11.476562 13.179688 -11.441406 13.171875 -11.390625 C 13.054688 -10.878906 12.984375 -10.140625 12.953125 -9.171875 C 12.929688 -8.203125 12.921875 -7.492188 12.921875 -7.046875 C 12.921875 -6.304688 12.941406 -5.679688 12.984375 -5.171875 C 13.035156 -4.472656 13.109375 -3.648438 13.203125 -2.703125 C 13.296875 -1.753906 13.421875 -1.03125 13.578125 -0.53125 C 13.640625 -0.363281 13.671875 -0.242188 13.671875 -0.171875 C 13.671875 -0.128906 13.660156 -0.0976562 13.640625 -0.078125 C 13.617188 -0.0546875 13.570312 -0.046875 13.5 -0.046875 C 13.394531 -0.046875 13.226562 -0.0703125 13 -0.125 C 12.863281 -0.144531 12.691406 -0.15625 12.484375 -0.15625 C 12.054688 -0.15625 11.46875 -0.109375 10.71875 -0.015625 C 10.707031 -0.015625 10.695312 -0.015625 10.6875 -0.015625 C 10.644531 -0.015625 10.625 -0.046875 10.625 -0.109375 C 10.625 -0.179688 10.648438 -0.40625 10.703125 -0.78125 C 10.742188 -1.03125 10.769531 -1.675781 10.78125 -2.71875 C 10.789062 -3.769531 10.796875 -4.472656 10.796875 -4.828125 C 10.796875 -5.785156 10.773438 -6.441406 10.734375 -6.796875 L 10.6875 -7.375 C 9.914062 -5.800781 8.976562 -3.765625 7.875 -1.265625 L 7.609375 -1.328125 C 7.441406 -1.347656 7.113281 -1.359375 6.625 -1.359375 L 5.859375 -1.359375 C 5.554688 -2.273438 5.222656 -3.175781 4.859375 -4.0625 C 4.546875 -4.976562 4.332031 -5.578125 4.21875 -5.859375 L 3.921875 -6.703125 L 3.890625 -5.453125 C 3.867188 -4.722656 3.859375 -3.75 3.859375 -2.53125 C 3.859375 -1.3125 3.867188 -0.566406 3.890625 -0.296875 C 3.921875 -0.078125 3.9375 0.078125 3.9375 0.171875 C 3.9375 0.222656 3.929688 0.25 3.921875 0.25 C 3.921875 0.257812 3.910156 0.265625 3.890625 0.265625 C 3.785156 0.265625 3.550781 0.222656 3.1875 0.140625 C 2.84375 0.0234375 2.363281 -0.03125 1.75 -0.03125 C 1.144531 -0.03125 0.835938 -0.046875 0.828125 -0.078125 C 0.828125 -0.0859375 0.894531 -0.28125 1.03125 -0.65625 C 1.539062 -2.0625 1.804688 -4.1875 1.828125 -7.03125 C 1.828125 -7.125 1.828125 -7.21875 1.828125 -7.3125 C 1.828125 -8.738281 1.738281 -9.828125 1.5625 -10.578125 C 1.46875 -10.992188 1.40625 -11.238281 1.375 -11.3125 C 1.375 -11.332031 1.382812 -11.347656 1.40625 -11.359375 C 1.425781 -11.367188 1.472656 -11.375 1.546875 -11.375 C 1.617188 -11.382812 1.707031 -11.390625 1.8125 -11.390625 C 1.925781 -11.390625 2.078125 -11.390625 2.265625 -11.390625 C 2.328125 -11.390625 2.382812 -11.390625 2.4375 -11.390625 C 3.039062 -11.390625 3.609375 -11.445312 4.140625 -11.5625 C 4.191406 -11.582031 4.234375 -11.59375 4.265625 -11.59375 C 4.296875 -11.59375 4.3125 -11.582031 4.3125 -11.5625 C 4.320312 -11.539062 4.347656 -11.441406 4.390625 -11.265625 C 4.503906 -10.742188 4.789062 -9.75 5.25 -8.28125 C 5.53125 -7.363281 5.894531 -6.425781 6.34375 -5.46875 C 6.800781 -4.519531 7.039062 -4.023438 7.0625 -3.984375 C 7.070312 -3.972656 7.082031 -3.96875 7.09375 -3.96875 C 7.132812 -3.96875 7.179688 -4.023438 7.234375 -4.140625 C 7.710938 -5.066406 8.1875 -6.0625 8.65625 -7.125 C 9.132812 -8.1875 9.539062 -9.238281 9.875 -10.28125 C 10.019531 -10.71875 10.125 -11.015625 10.1875 -11.171875 C 10.25 -11.335938 10.289062 -11.421875 10.3125 -11.421875 C 10.425781 -11.378906 10.613281 -11.359375 10.875 -11.359375 C 11.175781 -11.359375 11.570312 -11.390625 12.0625 -11.453125 Z M 12.0625 -11.453125 "/></g></g></g><g fill="#00b3a5" fill-opacity="1"><g transform="translate(98.181954, 24.150453)"><g><path d="M 3.21875 -11.65625 C 3.363281 -11.6875 3.472656 -11.707031 3.546875 -11.71875 C 3.617188 -11.738281 3.679688 -11.75 3.734375 -11.75 C 3.753906 -11.75 3.78125 -11.742188 3.8125 -11.734375 C 3.851562 -11.734375 3.878906 -11.722656 3.890625 -11.703125 C 3.898438 -11.679688 3.90625 -11.660156 3.90625 -11.640625 C 3.90625 -11.628906 3.898438 -11.601562 3.890625 -11.5625 C 3.878906 -11.539062 3.875 -11.519531 3.875 -11.5 C 3.875 -11.425781 3.925781 -11.378906 4.03125 -11.359375 C 4.113281 -11.335938 4.359375 -11.328125 4.765625 -11.328125 C 5.078125 -11.328125 5.640625 -11.335938 6.453125 -11.359375 C 7.265625 -11.378906 7.945312 -11.425781 8.5 -11.5 C 9.082031 -11.570312 9.429688 -11.609375 9.546875 -11.609375 C 9.578125 -11.609375 9.59375 -11.609375 9.59375 -11.609375 C 9.613281 -11.578125 9.644531 -11.171875 9.6875 -10.390625 L 9.734375 -9.1875 L 9.484375 -9.234375 C 8.898438 -9.359375 7.769531 -9.421875 6.09375 -9.421875 L 3.828125 -9.421875 L 3.828125 -6.65625 L 4.328125 -6.609375 C 4.492188 -6.578125 4.75 -6.5625 5.09375 -6.5625 C 5.394531 -6.5625 5.890625 -6.578125 6.578125 -6.609375 C 7.265625 -6.640625 7.890625 -6.6875 8.453125 -6.75 L 9.328125 -6.828125 C 9.335938 -6.816406 9.347656 -6.601562 9.359375 -6.1875 C 9.378906 -5.769531 9.390625 -5.390625 9.390625 -5.046875 C 9.390625 -4.710938 9.382812 -4.515625 9.375 -4.453125 C 9.351562 -4.453125 9.15625 -4.492188 8.78125 -4.578125 C 8.414062 -4.671875 7.507812 -4.71875 6.0625 -4.71875 C 4.632812 -4.71875 3.894531 -4.695312 3.84375 -4.65625 C 3.800781 -4.613281 3.78125 -4.398438 3.78125 -4.015625 C 3.78125 -3.828125 3.785156 -3.59375 3.796875 -3.3125 L 3.84375 -2 L 5.578125 -2 C 7.179688 -2 8.476562 -2.066406 9.46875 -2.203125 L 9.84375 -2.25 L 9.84375 -1.296875 C 9.851562 -0.628906 9.867188 -0.179688 9.890625 0.046875 C 9.921875 0.179688 9.9375 0.285156 9.9375 0.359375 C 9.9375 0.410156 9.921875 0.4375 9.890625 0.4375 C 9.878906 0.4375 9.859375 0.429688 9.828125 0.421875 C 9.335938 0.210938 8.601562 0.0703125 7.625 0 C 6.644531 -0.0820312 5.914062 -0.125 5.4375 -0.125 C 4.914062 -0.125 4.472656 -0.09375 4.109375 -0.03125 C 3.867188 0 3.71875 0.03125 3.65625 0.0625 C 3.601562 0.09375 3.546875 0.171875 3.484375 0.296875 C 3.410156 0.441406 3.363281 0.515625 3.34375 0.515625 C 3.332031 0.515625 3.238281 0.460938 3.0625 0.359375 C 2.769531 0.171875 2.3125 0.046875 1.6875 -0.015625 L 1.125 -0.078125 L 1.15625 -0.375 C 1.195312 -0.65625 1.273438 -1.082031 1.390625 -1.65625 C 1.492188 -2.28125 1.582031 -3.070312 1.65625 -4.03125 C 1.695312 -4.601562 1.71875 -5.304688 1.71875 -6.140625 C 1.71875 -6.566406 1.707031 -7.257812 1.6875 -8.21875 C 1.664062 -9.1875 1.59375 -10.054688 1.46875 -10.828125 C 1.425781 -11.035156 1.398438 -11.175781 1.390625 -11.25 C 1.390625 -11.320312 1.390625 -11.375 1.390625 -11.40625 C 1.390625 -11.46875 1.394531 -11.523438 1.40625 -11.578125 C 1.414062 -11.628906 1.441406 -11.65625 1.484375 -11.65625 C 1.484375 -11.65625 1.492188 -11.648438 1.515625 -11.640625 C 1.535156 -11.640625 1.59375 -11.632812 1.6875 -11.625 C 1.789062 -11.5625 1.984375 -11.53125 2.265625 -11.53125 C 2.304688 -11.53125 2.414062 -11.53125 2.59375 -11.53125 C 2.78125 -11.539062 2.988281 -11.582031 3.21875 -11.65625 Z M 3.21875 -11.65625 "/></g></g></g><g fill="#00b3a5" fill-opacity="1"><g transform="translate(108.884699, 24.150453)"><g><path d="M 3.75 -11.609375 C 3.800781 -11.617188 3.851562 -11.628906 3.90625 -11.640625 C 3.957031 -11.648438 3.992188 -11.65625 4.015625 -11.65625 C 4.046875 -11.664062 4.066406 -11.671875 4.078125 -11.671875 C 4.117188 -11.671875 4.140625 -11.609375 4.140625 -11.484375 C 4.140625 -11.421875 4.144531 -11.378906 4.15625 -11.359375 C 4.164062 -11.335938 4.179688 -11.328125 4.203125 -11.328125 C 4.210938 -11.328125 4.234375 -11.332031 4.265625 -11.34375 C 4.648438 -11.476562 5.023438 -11.554688 5.390625 -11.578125 C 5.753906 -11.597656 6 -11.609375 6.125 -11.609375 C 6.53125 -11.609375 6.851562 -11.570312 7.09375 -11.5 C 8.625 -11.070312 9.585938 -10 9.984375 -8.28125 C 10.085938 -7.820312 10.144531 -7.316406 10.15625 -6.765625 C 10.164062 -6.210938 10.171875 -5.847656 10.171875 -5.671875 C 10.171875 -5.035156 10.144531 -4.535156 10.09375 -4.171875 C 9.9375 -3.316406 9.664062 -2.570312 9.28125 -1.9375 C 8.894531 -1.300781 8.414062 -0.828125 7.84375 -0.515625 C 7.207031 -0.160156 6.367188 0.0859375 5.328125 0.234375 C 4.847656 0.296875 4.429688 0.328125 4.078125 0.328125 C 4.046875 0.328125 3.925781 0.320312 3.71875 0.3125 C 3.519531 0.3125 3.066406 0.28125 2.359375 0.21875 C 2.054688 0.175781 1.828125 0.140625 1.671875 0.109375 C 1.515625 0.0859375 1.382812 0.0546875 1.28125 0.015625 C 1.1875 -0.0234375 1.140625 -0.0625 1.140625 -0.09375 C 1.140625 -0.101562 1.140625 -0.113281 1.140625 -0.125 C 1.148438 -0.144531 1.164062 -0.191406 1.1875 -0.265625 C 1.25 -0.421875 1.335938 -0.789062 1.453125 -1.375 C 1.566406 -1.96875 1.648438 -2.515625 1.703125 -3.015625 C 1.765625 -3.585938 1.796875 -4.320312 1.796875 -5.21875 C 1.796875 -5.65625 1.78125 -6.394531 1.75 -7.4375 C 1.71875 -8.476562 1.628906 -9.691406 1.484375 -11.078125 L 1.4375 -11.5 L 2.46875 -11.5 C 3.15625 -11.519531 3.582031 -11.554688 3.75 -11.609375 Z M 6.609375 -9.28125 C 6.335938 -9.375 6.066406 -9.425781 5.796875 -9.4375 C 5.523438 -9.445312 5.34375 -9.453125 5.25 -9.453125 C 4.925781 -9.453125 4.65625 -9.429688 4.4375 -9.390625 L 4.03125 -9.296875 L 3.984375 -8.859375 C 3.941406 -8.523438 3.914062 -7.867188 3.90625 -6.890625 C 3.90625 -5.910156 3.90625 -5.3125 3.90625 -5.09375 C 3.90625 -3.769531 3.925781 -2.9375 3.96875 -2.59375 L 4.015625 -1.9375 L 4.296875 -1.96875 C 5.117188 -2.070312 5.769531 -2.257812 6.25 -2.53125 C 6.738281 -2.8125 7.132812 -3.210938 7.4375 -3.734375 C 7.664062 -4.128906 7.820312 -4.578125 7.90625 -5.078125 C 7.988281 -5.585938 8.03125 -6.03125 8.03125 -6.40625 C 8.03125 -6.664062 8.019531 -6.921875 8 -7.171875 C 7.925781 -7.765625 7.78125 -8.222656 7.5625 -8.546875 C 7.351562 -8.878906 7.035156 -9.125 6.609375 -9.28125 Z M 6.609375 -9.28125 "/></g></g></g><g fill="#00b3a5" fill-opacity="1"><g transform="translate(120.009919, 24.150453)"><g><path d="M 1.296875 -11.390625 C 1.316406 -11.410156 1.753906 -11.421875 2.609375 -11.421875 L 3.890625 -11.421875 L 3.859375 -11.078125 C 3.765625 -10.328125 3.707031 -9.3125 3.6875 -8.03125 C 3.664062 -6.757812 3.65625 -5.890625 3.65625 -5.421875 C 3.65625 -4.234375 3.679688 -3.320312 3.734375 -2.6875 C 3.828125 -1.507812 3.929688 -0.640625 4.046875 -0.078125 L 4.109375 0.125 L 3.625 0.078125 C 3.269531 0.0351562 2.773438 0.015625 2.140625 0.015625 C 1.460938 0.015625 1.125 -0.00390625 1.125 -0.046875 C 1.125 -0.0976562 1.171875 -0.304688 1.265625 -0.671875 C 1.535156 -1.734375 1.675781 -2.890625 1.6875 -4.140625 C 1.695312 -5.390625 1.703125 -6.109375 1.703125 -6.296875 C 1.703125 -8.316406 1.59375 -9.867188 1.375 -10.953125 C 1.320312 -11.203125 1.296875 -11.34375 1.296875 -11.375 C 1.296875 -11.382812 1.296875 -11.390625 1.296875 -11.390625 Z M 1.296875 -11.390625 "/></g></g></g><g fill="#00b3a5" fill-opacity="1"><g transform="translate(125.343685, 24.150453)"><g><path d="M 4.265625 -11.53125 C 4.585938 -11.613281 4.988281 -11.65625 5.46875 -11.65625 C 5.582031 -11.65625 5.820312 -11.648438 6.1875 -11.640625 C 6.5625 -11.628906 6.984375 -11.550781 7.453125 -11.40625 C 7.804688 -11.300781 8.238281 -11.128906 8.75 -10.890625 C 9.269531 -10.648438 9.53125 -10.5 9.53125 -10.4375 C 9.53125 -10.40625 9.4375 -10.117188 9.25 -9.578125 C 9.082031 -9.097656 8.984375 -8.738281 8.953125 -8.5 C 8.921875 -8.320312 8.878906 -8.226562 8.828125 -8.21875 C 8.828125 -8.21875 8.816406 -8.21875 8.796875 -8.21875 C 8.742188 -8.21875 8.617188 -8.296875 8.421875 -8.453125 C 8.148438 -8.648438 7.867188 -8.835938 7.578125 -9.015625 C 6.953125 -9.378906 6.359375 -9.5625 5.796875 -9.5625 C 5.441406 -9.5625 4.96875 -9.429688 4.375 -9.171875 C 3.789062 -8.910156 3.359375 -8.191406 3.078125 -7.015625 C 2.984375 -6.617188 2.9375 -6.203125 2.9375 -5.765625 C 2.9375 -5.554688 2.957031 -5.226562 3 -4.78125 C 3.039062 -4.332031 3.164062 -3.878906 3.375 -3.421875 C 3.65625 -2.816406 4.023438 -2.40625 4.484375 -2.1875 C 4.953125 -1.96875 5.398438 -1.859375 5.828125 -1.859375 C 6.035156 -1.859375 6.359375 -1.898438 6.796875 -1.984375 C 7.242188 -2.078125 7.742188 -2.375 8.296875 -2.875 C 8.554688 -3.101562 8.695312 -3.21875 8.71875 -3.21875 C 8.738281 -3.21875 8.828125 -3.078125 8.984375 -2.796875 C 9.128906 -2.515625 9.320312 -2.242188 9.5625 -1.984375 L 9.875 -1.65625 L 9.671875 -1.375 C 9.359375 -0.976562 8.941406 -0.628906 8.421875 -0.328125 C 7.910156 -0.0234375 7.382812 0.171875 6.84375 0.265625 C 6.46875 0.335938 6.109375 0.375 5.765625 0.375 C 5.046875 0.375 4.269531 0.207031 3.4375 -0.125 C 2.613281 -0.46875 1.945312 -1.0625 1.4375 -1.90625 C 0.96875 -2.675781 0.707031 -3.425781 0.65625 -4.15625 C 0.613281 -4.882812 0.59375 -5.359375 0.59375 -5.578125 C 0.59375 -6.535156 0.726562 -7.429688 1 -8.265625 C 1.269531 -9.109375 1.679688 -9.8125 2.234375 -10.375 C 2.796875 -10.9375 3.472656 -11.320312 4.265625 -11.53125 Z M 4.265625 -11.53125 "/></g></g></g><g fill="#00b3a5" fill-opacity="1"><g transform="translate(135.377501, 24.150453)"><g><path d="M 4.671875 -11.453125 C 4.722656 -11.515625 4.769531 -11.546875 4.8125 -11.546875 C 4.851562 -11.546875 5.023438 -11.492188 5.328125 -11.390625 C 5.597656 -11.296875 5.875 -11.25 6.15625 -11.25 C 6.394531 -11.25 6.632812 -11.28125 6.875 -11.34375 C 7.007812 -11.351562 7.101562 -11.359375 7.15625 -11.359375 C 7.1875 -11.359375 7.203125 -11.359375 7.203125 -11.359375 C 7.203125 -11.335938 7.171875 -11.25 7.109375 -11.09375 C 7.078125 -10.988281 7.0625 -10.898438 7.0625 -10.828125 C 7.0625 -10.804688 7.0625 -10.769531 7.0625 -10.71875 C 7.070312 -10.675781 7.128906 -10.515625 7.234375 -10.234375 C 7.398438 -9.785156 8.097656 -8.171875 9.328125 -5.390625 C 9.828125 -4.265625 10.28125 -3.160156 10.6875 -2.078125 L 11.40625 -0.15625 L 11.0625 -0.125 C 10.644531 -0.0703125 10.085938 0.09375 9.390625 0.375 L 9.015625 0.515625 L 8.953125 0.375 C 8.679688 -0.15625 8.382812 -0.925781 8.0625 -1.9375 C 8.039062 -2.019531 8.015625 -2.117188 7.984375 -2.234375 C 7.847656 -2.660156 7.734375 -2.910156 7.640625 -2.984375 C 7.546875 -3.054688 7.273438 -3.117188 6.828125 -3.171875 C 6.710938 -3.179688 6.617188 -3.1875 6.546875 -3.1875 C 6.285156 -3.207031 6.035156 -3.21875 5.796875 -3.21875 C 5.546875 -3.21875 5.304688 -3.207031 5.078125 -3.1875 C 4.679688 -3.132812 4.445312 -3.097656 4.375 -3.078125 C 4.300781 -3.066406 4.265625 -3.03125 4.265625 -2.96875 C 4.265625 -2.90625 4.078125 -2.4375 3.703125 -1.5625 C 3.335938 -0.695312 3.101562 -0.160156 3 0.046875 L 2.8125 0.40625 L 2.515625 0.171875 C 2.128906 -0.179688 1.644531 -0.425781 1.0625 -0.5625 C 0.65625 -0.65625 0.453125 -0.753906 0.453125 -0.859375 C 0.453125 -0.867188 0.453125 -0.875 0.453125 -0.875 C 0.453125 -0.882812 0.460938 -0.90625 0.484375 -0.9375 C 0.515625 -0.976562 0.539062 -1.03125 0.5625 -1.09375 C 0.59375 -1.15625 0.625 -1.21875 0.65625 -1.28125 C 0.695312 -1.34375 0.742188 -1.421875 0.796875 -1.515625 C 0.847656 -1.609375 0.894531 -1.691406 0.9375 -1.765625 C 1.351562 -2.546875 2.046875 -4.070312 3.015625 -6.34375 C 3.941406 -8.519531 4.445312 -10.007812 4.53125 -10.8125 C 4.5625 -11.15625 4.609375 -11.367188 4.671875 -11.453125 Z M 6.265625 -7.796875 C 6.085938 -8.234375 5.988281 -8.453125 5.96875 -8.453125 C 5.90625 -8.453125 5.660156 -7.800781 5.234375 -6.5 C 4.984375 -5.757812 4.859375 -5.390625 4.859375 -5.390625 C 4.859375 -5.390625 4.859375 -5.382812 4.859375 -5.375 C 4.859375 -5.320312 4.929688 -5.28125 5.078125 -5.25 C 5.234375 -5.226562 5.421875 -5.21875 5.640625 -5.21875 C 5.671875 -5.21875 5.765625 -5.21875 5.921875 -5.21875 C 6.078125 -5.226562 6.273438 -5.253906 6.515625 -5.296875 C 6.878906 -5.359375 7.070312 -5.40625 7.09375 -5.4375 C 7.09375 -5.476562 7.054688 -5.609375 6.984375 -5.828125 C 6.910156 -6.046875 6.804688 -6.34375 6.671875 -6.71875 C 6.546875 -7.101562 6.410156 -7.460938 6.265625 -7.796875 Z M 6.265625 -7.796875 "/></g></g></g><g fill="#404040" fill-opacity="1"><g transform="translate(71.224759, 29.799103)"><g><path d="M 0.65625 -2.21875 L 0.65625 -1.265625 L 1.765625 -1.265625 L 1.765625 -2.21875 L 2.109375 -2.21875 L 2.109375 0 L 1.765625 0 L 1.765625 -0.9375 L 0.65625 -0.9375 L 0.65625 0 L 0.3125 0 L 0.3125 -2.21875 Z M 0.65625 -2.21875 "/></g></g></g><g fill="#404040" fill-opacity="1"><g transform="translate(73.63858, 29.799103)"><g><path d="M 0.3125 -2.21875 L 1.703125 -2.21875 L 1.703125 -1.890625 L 0.65625 -1.890625 L 0.65625 -1.296875 L 1.53125 -1.296875 L 1.53125 -0.96875 L 0.65625 -0.96875 L 0.65625 -0.328125 L 1.703125 -0.328125 L 1.703125 0 L 0.3125 0 Z M 0.3125 -2.21875 "/></g></g></g><g fill="#404040" fill-opacity="1"><g transform="translate(75.586132, 29.799103)"><g><path d="M 1.78125 0 L 1.5625 -0.546875 L 0.640625 -0.546875 L 0.421875 0 L 0.078125 0 L 0.9375 -2.21875 L 1.28125 -2.21875 L 2.140625 0 Z M 0.9375 -1.328125 L 0.765625 -0.875 L 1.4375 -0.875 L 1.265625 -1.34375 C 1.242188 -1.414062 1.21875 -1.492188 1.1875 -1.578125 C 1.15625 -1.660156 1.128906 -1.75 1.109375 -1.84375 C 1.078125 -1.75 1.046875 -1.65625 1.015625 -1.5625 C 0.984375 -1.476562 0.957031 -1.398438 0.9375 -1.328125 Z M 0.9375 -1.328125 "/></g></g></g><g fill="#404040" fill-opacity="1"><g transform="translate(77.806466, 29.799103)"><g><path d="M 1.6875 -0.328125 L 1.6875 0 L 0.3125 0 L 0.3125 -2.21875 L 0.65625 -2.21875 L 0.65625 -0.328125 Z M 1.6875 -0.328125 "/></g></g></g><g fill="#404040" fill-opacity="1"><g transform="translate(79.706438, 29.799103)"><g><path d="M 0.734375 0 L 0.734375 -1.890625 L 0.109375 -1.890625 L 0.109375 -2.21875 L 1.71875 -2.21875 L 1.71875 -1.890625 L 1.078125 -1.890625 L 1.078125 0 Z M 0.734375 0 "/></g></g></g><g fill="#404040" fill-opacity="1"><g transform="translate(81.533456, 29.799103)"><g><path d="M 0.65625 -2.21875 L 0.65625 -1.265625 L 1.765625 -1.265625 L 1.765625 -2.21875 L 2.109375 -2.21875 L 2.109375 0 L 1.765625 0 L 1.765625 -0.9375 L 0.65625 -0.9375 L 0.65625 0 L 0.3125 0 L 0.3125 -2.21875 Z M 0.65625 -2.21875 "/></g></g></g><g fill="#404040" fill-opacity="1"><g transform="translate(83.947277, 29.799103)"><g><path d="M 2 -0.265625 C 1.957031 -0.222656 1.894531 -0.175781 1.8125 -0.125 C 1.726562 -0.0820312 1.632812 -0.046875 1.53125 -0.015625 C 1.4375 0.015625 1.332031 0.03125 1.21875 0.03125 C 1.007812 0.03125 0.828125 -0.015625 0.671875 -0.109375 C 0.515625 -0.203125 0.390625 -0.332031 0.296875 -0.5 C 0.203125 -0.675781 0.15625 -0.878906 0.15625 -1.109375 C 0.15625 -1.273438 0.179688 -1.425781 0.234375 -1.5625 C 0.296875 -1.695312 0.375 -1.816406 0.46875 -1.921875 C 0.570312 -2.023438 0.6875 -2.101562 0.8125 -2.15625 C 0.945312 -2.207031 1.085938 -2.234375 1.234375 -2.234375 C 1.359375 -2.234375 1.472656 -2.210938 1.578125 -2.171875 C 1.679688 -2.140625 1.769531 -2.09375 1.84375 -2.03125 C 1.925781 -1.976562 1.992188 -1.921875 2.046875 -1.859375 L 1.8125 -1.625 C 1.726562 -1.695312 1.640625 -1.757812 1.546875 -1.8125 C 1.453125 -1.863281 1.347656 -1.890625 1.234375 -1.890625 C 1.109375 -1.890625 0.988281 -1.859375 0.875 -1.796875 C 0.757812 -1.734375 0.664062 -1.644531 0.59375 -1.53125 C 0.53125 -1.414062 0.5 -1.273438 0.5 -1.109375 C 0.5 -0.929688 0.535156 -0.78125 0.609375 -0.65625 C 0.679688 -0.539062 0.773438 -0.453125 0.890625 -0.390625 C 1.003906 -0.335938 1.128906 -0.3125 1.265625 -0.3125 C 1.390625 -0.3125 1.5 -0.335938 1.59375 -0.390625 C 1.6875 -0.441406 1.765625 -0.492188 1.828125 -0.546875 Z M 2 -0.265625 "/></g></g></g><g fill="#404040" fill-opacity="1"><g transform="translate(86.101001, 29.799103)"><g><path d="M 1.78125 0 L 1.5625 -0.546875 L 0.640625 -0.546875 L 0.421875 0 L 0.078125 0 L 0.9375 -2.21875 L 1.28125 -2.21875 L 2.140625 0 Z M 0.9375 -1.328125 L 0.765625 -0.875 L 1.4375 -0.875 L 1.265625 -1.34375 C 1.242188 -1.414062 1.21875 -1.492188 1.1875 -1.578125 C 1.15625 -1.660156 1.128906 -1.75 1.109375 -1.84375 C 1.078125 -1.75 1.046875 -1.65625 1.015625 -1.5625 C 0.984375 -1.476562 0.957031 -1.398438 0.9375 -1.328125 Z M 0.9375 -1.328125 "/></g></g></g><g fill="#404040" fill-opacity="1"><g transform="translate(88.321335, 29.799103)"><g><path d="M 1.953125 -1.515625 C 1.953125 -1.378906 1.910156 -1.253906 1.828125 -1.140625 C 1.753906 -1.023438 1.65625 -0.941406 1.53125 -0.890625 L 2.046875 0 L 1.625 0 L 1.15625 -0.828125 L 0.65625 -0.828125 L 0.65625 0 L 0.3125 0 L 0.3125 -2.21875 L 1.25 -2.21875 C 1.375 -2.21875 1.488281 -2.1875 1.59375 -2.125 C 1.695312 -2.070312 1.78125 -1.992188 1.84375 -1.890625 C 1.914062 -1.785156 1.953125 -1.660156 1.953125 -1.515625 Z M 1.203125 -1.890625 L 0.65625 -1.890625 L 0.65625 -1.171875 L 1.28125 -1.171875 C 1.382812 -1.171875 1.460938 -1.203125 1.515625 -1.265625 C 1.578125 -1.335938 1.609375 -1.421875 1.609375 -1.515625 C 1.609375 -1.628906 1.566406 -1.71875 1.484375 -1.78125 C 1.398438 -1.851562 1.304688 -1.890625 1.203125 -1.890625 Z M 1.203125 -1.890625 "/></g></g></g><g fill="#404040" fill-opacity="1"><g transform="translate(90.525809, 29.799103)"><g><path d="M 0.3125 -2.21875 L 1.703125 -2.21875 L 1.703125 -1.890625 L 0.65625 -1.890625 L 0.65625 -1.296875 L 1.53125 -1.296875 L 1.53125 -0.96875 L 0.65625 -0.96875 L 0.65625 -0.328125 L 1.703125 -0.328125 L 1.703125 0 L 0.3125 0 Z M 0.3125 -2.21875 "/></g></g></g><g fill="#404040" fill-opacity="1"><g transform="translate(92.473362, 29.799103)"><g/></g></g><g fill="#404040" fill-opacity="1"><g transform="translate(93.361497, 29.799103)"><g><path d="M 0.390625 -0.671875 C 0.472656 -0.546875 0.5625 -0.445312 0.65625 -0.375 C 0.757812 -0.3125 0.882812 -0.28125 1.03125 -0.28125 C 1.101562 -0.28125 1.171875 -0.289062 1.234375 -0.3125 C 1.296875 -0.332031 1.347656 -0.363281 1.390625 -0.40625 C 1.441406 -0.457031 1.46875 -0.515625 1.46875 -0.578125 C 1.46875 -0.679688 1.421875 -0.757812 1.328125 -0.8125 C 1.234375 -0.875 1.109375 -0.921875 0.953125 -0.953125 C 0.742188 -0.992188 0.578125 -1.066406 0.453125 -1.171875 C 0.328125 -1.273438 0.265625 -1.425781 0.265625 -1.625 C 0.265625 -1.757812 0.300781 -1.867188 0.375 -1.953125 C 0.445312 -2.046875 0.539062 -2.117188 0.65625 -2.171875 C 0.769531 -2.222656 0.894531 -2.25 1.03125 -2.25 C 1.207031 -2.25 1.359375 -2.210938 1.484375 -2.140625 C 1.609375 -2.078125 1.707031 -1.984375 1.78125 -1.859375 L 1.546875 -1.625 C 1.484375 -1.71875 1.410156 -1.789062 1.328125 -1.84375 C 1.242188 -1.90625 1.144531 -1.9375 1.03125 -1.9375 C 0.90625 -1.9375 0.800781 -1.910156 0.71875 -1.859375 C 0.644531 -1.804688 0.609375 -1.734375 0.609375 -1.640625 C 0.609375 -1.535156 0.648438 -1.457031 0.734375 -1.40625 C 0.816406 -1.351562 0.925781 -1.3125 1.0625 -1.28125 C 1.1875 -1.257812 1.304688 -1.222656 1.421875 -1.171875 C 1.535156 -1.117188 1.628906 -1.050781 1.703125 -0.96875 C 1.773438 -0.882812 1.8125 -0.78125 1.8125 -0.65625 C 1.8125 -0.445312 1.738281 -0.28125 1.59375 -0.15625 C 1.445312 -0.03125 1.25 0.03125 1 0.03125 C 0.820312 0.03125 0.660156 0 0.515625 -0.0625 C 0.378906 -0.132812 0.257812 -0.25 0.15625 -0.40625 Z M 0.390625 -0.671875 "/></g></g></g><g fill="#404040" fill-opacity="1"><g transform="translate(95.340767, 29.799103)"><g><path d="M 2.328125 -1.109375 C 2.328125 -0.953125 2.300781 -0.800781 2.25 -0.65625 C 2.195312 -0.519531 2.117188 -0.398438 2.015625 -0.296875 C 1.921875 -0.191406 1.804688 -0.109375 1.671875 -0.046875 C 1.546875 0.00390625 1.398438 0.03125 1.234375 0.03125 C 1.078125 0.03125 0.929688 0.00390625 0.796875 -0.046875 C 0.671875 -0.109375 0.554688 -0.191406 0.453125 -0.296875 C 0.359375 -0.398438 0.285156 -0.519531 0.234375 -0.65625 C 0.179688 -0.800781 0.15625 -0.953125 0.15625 -1.109375 C 0.15625 -1.265625 0.179688 -1.410156 0.234375 -1.546875 C 0.285156 -1.691406 0.359375 -1.816406 0.453125 -1.921875 C 0.554688 -2.023438 0.671875 -2.101562 0.796875 -2.15625 C 0.929688 -2.21875 1.078125 -2.25 1.234375 -2.25 C 1.398438 -2.25 1.546875 -2.21875 1.671875 -2.15625 C 1.804688 -2.101562 1.921875 -2.023438 2.015625 -1.921875 C 2.117188 -1.816406 2.195312 -1.691406 2.25 -1.546875 C 2.300781 -1.410156 2.328125 -1.265625 2.328125 -1.109375 Z M 1.984375 -1.109375 C 1.984375 -1.265625 1.945312 -1.398438 1.875 -1.515625 C 1.8125 -1.640625 1.722656 -1.738281 1.609375 -1.8125 C 1.503906 -1.882812 1.378906 -1.921875 1.234375 -1.921875 C 1.085938 -1.921875 0.957031 -1.882812 0.84375 -1.8125 C 0.738281 -1.738281 0.65625 -1.640625 0.59375 -1.515625 C 0.53125 -1.398438 0.5 -1.265625 0.5 -1.109375 C 0.5 -0.953125 0.53125 -0.8125 0.59375 -0.6875 C 0.65625 -0.570312 0.738281 -0.476562 0.84375 -0.40625 C 0.957031 -0.332031 1.085938 -0.296875 1.234375 -0.296875 C 1.378906 -0.296875 1.503906 -0.332031 1.609375 -0.40625 C 1.722656 -0.476562 1.8125 -0.570312 1.875 -0.6875 C 1.945312 -0.8125 1.984375 -0.953125 1.984375 -1.109375 Z M 1.984375 -1.109375 "/></g></g></g><g fill="#404040" fill-opacity="1"><g transform="translate(97.821198, 29.799103)"><g><path d="M 1.6875 -0.328125 L 1.6875 0 L 0.3125 0 L 0.3125 -2.21875 L 0.65625 -2.21875 L 0.65625 -0.328125 Z M 1.6875 -0.328125 "/></g></g></g><g fill="#404040" fill-opacity="1"><g transform="translate(99.721169, 29.799103)"><g><path d="M 2.0625 -2.21875 L 2.0625 -0.859375 C 2.0625 -0.691406 2.023438 -0.539062 1.953125 -0.40625 C 1.878906 -0.269531 1.773438 -0.164062 1.640625 -0.09375 C 1.503906 -0.0195312 1.347656 0.015625 1.171875 0.015625 C 1.003906 0.015625 0.851562 -0.0195312 0.71875 -0.09375 C 0.582031 -0.164062 0.472656 -0.269531 0.390625 -0.40625 C 0.316406 -0.539062 0.28125 -0.691406 0.28125 -0.859375 L 0.28125 -2.21875 L 0.625 -2.21875 L 0.625 -0.875 C 0.625 -0.769531 0.648438 -0.671875 0.703125 -0.578125 C 0.753906 -0.492188 0.820312 -0.425781 0.90625 -0.375 C 0.988281 -0.332031 1.078125 -0.3125 1.171875 -0.3125 C 1.273438 -0.3125 1.367188 -0.332031 1.453125 -0.375 C 1.546875 -0.425781 1.613281 -0.492188 1.65625 -0.578125 C 1.707031 -0.671875 1.734375 -0.769531 1.734375 -0.875 L 1.734375 -2.21875 Z M 2.0625 -2.21875 "/></g></g></g><g fill="#404040" fill-opacity="1"><g transform="translate(102.068381, 29.799103)"><g><path d="M 0.734375 0 L 0.734375 -1.890625 L 0.109375 -1.890625 L 0.109375 -2.21875 L 1.71875 -2.21875 L 1.71875 -1.890625 L 1.078125 -1.890625 L 1.078125 0 Z M 0.734375 0 "/></g></g></g><g fill="#404040" fill-opacity="1"><g transform="translate(103.895399, 29.799103)"><g><path d="M 1.28125 0 L 0.234375 0 L 0.234375 -0.3125 L 0.59375 -0.3125 L 0.59375 -1.90625 L 0.234375 -1.90625 L 0.234375 -2.21875 L 1.28125 -2.21875 L 1.28125 -1.90625 L 0.921875 -1.90625 L 0.921875 -0.3125 L 1.28125 -0.3125 Z M 1.28125 0 "/></g></g></g><g fill="#404040" fill-opacity="1"><g transform="translate(105.41157, 29.799103)"><g><path d="M 2.328125 -1.109375 C 2.328125 -0.953125 2.300781 -0.800781 2.25 -0.65625 C 2.195312 -0.519531 2.117188 -0.398438 2.015625 -0.296875 C 1.921875 -0.191406 1.804688 -0.109375 1.671875 -0.046875 C 1.546875 0.00390625 1.398438 0.03125 1.234375 0.03125 C 1.078125 0.03125 0.929688 0.00390625 0.796875 -0.046875 C 0.671875 -0.109375 0.554688 -0.191406 0.453125 -0.296875 C 0.359375 -0.398438 0.285156 -0.519531 0.234375 -0.65625 C 0.179688 -0.800781 0.15625 -0.953125 0.15625 -1.109375 C 0.15625 -1.265625 0.179688 -1.410156 0.234375 -1.546875 C 0.285156 -1.691406 0.359375 -1.816406 0.453125 -1.921875 C 0.554688 -2.023438 0.671875 -2.101562 0.796875 -2.15625 C 0.929688 -2.21875 1.078125 -2.25 1.234375 -2.25 C 1.398438 -2.25 1.546875 -2.21875 1.671875 -2.15625 C 1.804688 -2.101562 1.921875 -2.023438 2.015625 -1.921875 C 2.117188 -1.816406 2.195312 -1.691406 2.25 -1.546875 C 2.300781 -1.410156 2.328125 -1.265625 2.328125 -1.109375 Z M 1.984375 -1.109375 C 1.984375 -1.265625 1.945312 -1.398438 1.875 -1.515625 C 1.8125 -1.640625 1.722656 -1.738281 1.609375 -1.8125 C 1.503906 -1.882812 1.378906 -1.921875 1.234375 -1.921875 C 1.085938 -1.921875 0.957031 -1.882812 0.84375 -1.8125 C 0.738281 -1.738281 0.65625 -1.640625 0.59375 -1.515625 C 0.53125 -1.398438 0.5 -1.265625 0.5 -1.109375 C 0.5 -0.953125 0.53125 -0.8125 0.59375 -0.6875 C 0.65625 -0.570312 0.738281 -0.476562 0.84375 -0.40625 C 0.957031 -0.332031 1.085938 -0.296875 1.234375 -0.296875 C 1.378906 -0.296875 1.503906 -0.332031 1.609375 -0.40625 C 1.722656 -0.476562 1.8125 -0.570312 1.875 -0.6875 C 1.945312 -0.8125 1.984375 -0.953125 1.984375 -1.109375 Z M 1.984375 -1.109375 "/></g></g></g><g fill="#404040" fill-opacity="1"><g transform="translate(107.892001, 29.799103)"><g><path d="M 1.859375 -2.21875 L 2.203125 -2.21875 L 2.203125 0 L 1.890625 0 L 0.59375 -1.6875 C 0.613281 -1.5625 0.628906 -1.429688 0.640625 -1.296875 C 0.648438 -1.171875 0.65625 -1.046875 0.65625 -0.921875 L 0.65625 0 L 0.3125 0 L 0.3125 -2.21875 L 0.625 -2.21875 L 1.90625 -0.484375 C 1.882812 -0.640625 1.867188 -0.804688 1.859375 -0.984375 C 1.859375 -1.171875 1.859375 -1.335938 1.859375 -1.484375 Z M 1.859375 -2.21875 "/></g></g></g><g fill="#404040" fill-opacity="1"><g transform="translate(110.407323, 29.799103)"><g><path d="M 0.390625 -0.671875 C 0.472656 -0.546875 0.5625 -0.445312 0.65625 -0.375 C 0.757812 -0.3125 0.882812 -0.28125 1.03125 -0.28125 C 1.101562 -0.28125 1.171875 -0.289062 1.234375 -0.3125 C 1.296875 -0.332031 1.347656 -0.363281 1.390625 -0.40625 C 1.441406 -0.457031 1.46875 -0.515625 1.46875 -0.578125 C 1.46875 -0.679688 1.421875 -0.757812 1.328125 -0.8125 C 1.234375 -0.875 1.109375 -0.921875 0.953125 -0.953125 C 0.742188 -0.992188 0.578125 -1.066406 0.453125 -1.171875 C 0.328125 -1.273438 0.265625 -1.425781 0.265625 -1.625 C 0.265625 -1.757812 0.300781 -1.867188 0.375 -1.953125 C 0.445312 -2.046875 0.539062 -2.117188 0.65625 -2.171875 C 0.769531 -2.222656 0.894531 -2.25 1.03125 -2.25 C 1.207031 -2.25 1.359375 -2.210938 1.484375 -2.140625 C 1.609375 -2.078125 1.707031 -1.984375 1.78125 -1.859375 L 1.546875 -1.625 C 1.484375 -1.71875 1.410156 -1.789062 1.328125 -1.84375 C 1.242188 -1.90625 1.144531 -1.9375 1.03125 -1.9375 C 0.90625 -1.9375 0.800781 -1.910156 0.71875 -1.859375 C 0.644531 -1.804688 0.609375 -1.734375 0.609375 -1.640625 C 0.609375 -1.535156 0.648438 -1.457031 0.734375 -1.40625 C 0.816406 -1.351562 0.925781 -1.3125 1.0625 -1.28125 C 1.1875 -1.257812 1.304688 -1.222656 1.421875 -1.171875 C 1.535156 -1.117188 1.628906 -1.050781 1.703125 -0.96875 C 1.773438 -0.882812 1.8125 -0.78125 1.8125 -0.65625 C 1.8125 -0.445312 1.738281 -0.28125 1.59375 -0.15625 C 1.445312 -0.03125 1.25 0.03125 1 0.03125 C 0.820312 0.03125 0.660156 0 0.515625 -0.0625 C 0.378906 -0.132812 0.257812 -0.25 0.15625 -0.40625 Z M 0.390625 -0.671875 "/></g></g></g></svg>