<svg xmlns="http://www.w3.org/2000/svg" xmlns:xlink="http://www.w3.org/1999/xlink" width="1366" zoomAndPan="magnify" viewBox="0 0 1024.5 576" height="768" preserveAspectRatio="xMidYMid meet" version="1.0"><defs><g/><clipPath id="456193abb6"><path d="M 650 194 L 790.5625 194 L 790.5625 420 L 650 420 Z M 650 194 " clip-rule="nonzero"/></clipPath><clipPath id="6f4926ec02"><path d="M 383 180 L 641 180 L 641 436.652344 L 383 436.652344 Z M 383 180 " clip-rule="nonzero"/></clipPath><clipPath id="521f0d29fc"><path d="M 233.585938 194 L 374 194 L 374 420 L 233.585938 420 Z M 233.585938 194 " clip-rule="nonzero"/></clipPath><clipPath id="80675e28c9"><path d="M 365 139.046875 L 375 139.046875 L 375 174 L 365 174 Z M 365 139.046875 " clip-rule="nonzero"/></clipPath><clipPath id="d68e3a260e"><path d="M 353 139.046875 L 368 139.046875 L 368 171 L 353 171 Z M 353 139.046875 " clip-rule="nonzero"/></clipPath><clipPath id="b61e64fff0"><path d="M 649 139.046875 L 659 139.046875 L 659 174 L 649 174 Z M 649 139.046875 " clip-rule="nonzero"/></clipPath><clipPath id="62aa3f03b9"><path d="M 656 139.046875 L 671 139.046875 L 671 171 L 656 171 Z M 656 139.046875 " clip-rule="nonzero"/></clipPath></defs><g clip-path="url(#456193abb6)"><path fill="#183d81" d="M 774.246094 194.046875 L 774.246094 341.726562 L 790.265625 341.726562 L 790.265625 380.285156 L 774.246094 380.285156 L 774.246094 419.992188 L 717.90625 419.992188 L 717.90625 380.285156 L 650.699219 380.285156 L 650.699219 341.726562 L 699.554688 194.046875 Z M 717.90625 341.726562 L 717.90625 245.605469 L 692.835938 341.726562 Z M 717.90625 341.726562 " fill-opacity="1" fill-rule="evenodd"/></g><g clip-path="url(#6f4926ec02)"><path fill="#183d81" d="M 512.042969 180.214844 C 547.5 180.214844 579.601562 194.566406 602.835938 217.777344 C 626.074219 240.984375 640.449219 273.046875 640.449219 308.457031 C 640.449219 343.867188 626.074219 375.929688 602.835938 399.136719 C 579.601562 422.34375 547.5 436.699219 512.042969 436.699219 C 476.589844 436.699219 444.488281 422.34375 421.25 399.136719 C 398.011719 375.929688 383.640625 343.867188 383.640625 308.457031 C 383.640625 273.046875 398.011719 240.984375 421.25 217.777344 C 444.488281 194.566406 476.589844 180.214844 512.042969 180.214844 Z M 562.332031 258.230469 C 549.464844 245.378906 531.683594 237.429688 512.042969 237.429688 C 492.402344 237.429688 474.625 245.378906 461.757812 258.230469 C 448.886719 271.082031 440.925781 288.839844 440.925781 308.457031 C 440.925781 328.074219 448.886719 345.828125 461.757812 358.679688 C 474.625 371.535156 492.402344 379.484375 512.042969 379.484375 C 531.683594 379.484375 549.464844 371.535156 562.332031 358.679688 C 575.199219 345.828125 583.160156 328.074219 583.160156 308.457031 C 583.160156 288.839844 575.199219 271.082031 562.332031 258.230469 " fill-opacity="1" fill-rule="evenodd"/></g><g clip-path="url(#521f0d29fc)"><path fill="#183d81" d="M 357.375 194.046875 L 357.375 341.726562 L 373.390625 341.726562 L 373.390625 380.285156 L 357.375 380.285156 L 357.375 419.992188 L 301.03125 419.992188 L 301.03125 380.285156 L 233.824219 380.285156 L 233.824219 341.726562 L 282.679688 194.046875 Z M 301.03125 341.726562 L 301.03125 245.605469 L 275.960938 341.726562 Z M 301.03125 341.726562 " fill-opacity="1" fill-rule="evenodd"/></g><path fill="#000000" d="M 553.574219 347.667969 L 555.277344 364.859375 C 543.296875 374.03125 528.308594 379.484375 512.042969 379.484375 C 511.839844 379.484375 511.632812 379.480469 511.425781 379.480469 L 514.738281 346.367188 L 553.574219 347.667969 " fill-opacity="1" fill-rule="evenodd"/><path fill="#000000" d="M 506.75 347.667969 L 509.894531 379.449219 C 493.292969 378.957031 478.125 372.789062 466.265625 362.816406 L 467.910156 346.367188 L 506.75 347.667969 " fill-opacity="1" fill-rule="evenodd"/><path fill="#fefefe" d="M 442.902344 251.425781 C 441.019531 237.980469 442.226562 226.167969 442.632812 218.464844 C 453.695312 217.171875 463.003906 215.84375 474.214844 214.53125 C 485.5625 213.203125 496.953125 211.890625 508.4375 210.511719 C 509.636719 210.679688 510.835938 210.816406 512.054688 210.953125 C 513.242188 210.816406 514.441406 210.679688 515.628906 210.511719 C 527.125 211.890625 538.527344 213.203125 549.863281 214.53125 C 561.078125 215.84375 570.382812 217.171875 581.476562 218.464844 C 581.851562 226.167969 583.058594 237.980469 581.175781 251.425781 C 576.625 283.960938 572.664062 316.667969 570.113281 349.472656 C 567.78125 352.757812 565.175781 355.839844 562.332031 358.679688 C 549.464844 371.535156 531.683594 379.484375 512.042969 379.484375 C 492.402344 379.484375 474.625 371.535156 461.757812 358.679688 C 458.894531 355.828125 456.277344 352.726562 453.9375 349.417969 C 451.394531 316.632812 447.453125 283.945312 442.902344 251.425781 " fill-opacity="1" fill-rule="evenodd"/><path fill="#dc977d" d="M 512.042969 172.796875 C 497.953125 172.796875 486.527344 187.636719 486.527344 205.945312 C 486.527344 224.253906 497.953125 239.09375 512.042969 239.09375 C 526.136719 239.09375 537.558594 224.253906 537.558594 205.945312 C 537.558594 187.636719 526.136719 172.796875 512.042969 172.796875 " fill-opacity="1" fill-rule="evenodd"/><path fill="#aadef7" d="M 511.929688 230.65625 L 486.921875 216.148438 L 496.136719 253.457031 L 512.042969 313.539062 L 537.164062 216.59375 L 511.929688 230.65625 " fill-opacity="1" fill-rule="evenodd"/><path fill="#183d81" d="M 512.042969 230.65625 L 517.238281 236.601562 L 513.074219 242.605469 L 518.113281 289.164062 L 512.042969 313.53125 L 505.972656 289.164062 L 511.039062 242.601562 L 506.851562 236.601562 L 512.042969 230.65625 " fill-opacity="1" fill-rule="evenodd"/><path fill="#93d6f5" d="M 512.042969 230.65625 L 503.015625 241.136719 L 483.832031 222.582031 L 485.839844 215.144531 L 512.042969 230.65625 " fill-opacity="1" fill-rule="evenodd"/><path fill="#93d6f5" d="M 512.042969 230.65625 L 521.070312 241.136719 L 540.253906 222.582031 L 538.246094 215.144531 L 512.042969 230.65625 " fill-opacity="1" fill-rule="evenodd"/><path fill="#e6e6e6" d="M 486.816406 210.953125 L 470.867188 218.574219 L 473.039062 239.898438 L 491.457031 245.976562 L 475.742188 255.894531 L 512.042969 313.539062 L 486.816406 210.953125 " fill-opacity="1" fill-rule="evenodd"/><path fill="#e6e6e6" d="M 537.269531 210.953125 L 553.21875 218.574219 L 551.046875 239.898438 L 532.632812 245.976562 L 548.34375 255.894531 L 512.042969 313.539062 L 537.269531 210.953125 " fill-opacity="1" fill-rule="evenodd"/><g clip-path="url(#80675e28c9)"><path fill="#f6b096" d="M 374.109375 172.777344 C 372.964844 174.394531 370.171875 173.488281 369.046875 173.039062 L 365.121094 143.359375 C 365.089844 142.28125 365.359375 141.25 365.859375 140.335938 C 366.316406 139.5 367.226562 139.070312 368.164062 139.25 C 369.101562 139.421875 369.792969 140.148438 369.914062 141.09375 L 372.320312 159.257812 L 374.109375 172.777344 " fill-opacity="1" fill-rule="evenodd"/></g><g clip-path="url(#d68e3a260e)"><path fill="#f6b096" d="M 367.992188 169.375 C 367.179688 171.101562 364.285156 170.886719 363.113281 170.722656 L 353.6875 144.367188 C 353.4375 143.320312 353.546875 142.285156 353.945312 141.328125 C 354.292969 140.480469 355.085938 139.964844 356.003906 139.988281 C 356.917969 140.011719 357.6875 140.5625 357.996094 141.425781 L 363.730469 157.464844 L 367.992188 169.375 " fill-opacity="1" fill-rule="evenodd"/></g><path fill="#f6b096" d="M 362.773438 170.828125 C 362.386719 172.554688 359.726562 172.949219 358.625 173.035156 L 344.628906 150.886719 C 343.992188 149.585938 344.09375 148.214844 344.710938 146.921875 C 344.972656 146.375 345.476562 146.035156 346.082031 146 C 346.691406 145.964844 347.230469 146.238281 347.558594 146.753906 L 356.5 160.898438 L 362.773438 170.828125 " fill-opacity="1" fill-rule="evenodd"/><path fill="#f6b096" d="M 359.285156 181.550781 C 358.921875 183.132812 356.472656 183.480469 355.460938 183.554688 L 339.449219 157.871094 C 338.90625 156.742188 339.007812 155.632812 339.535156 154.570312 C 339.800781 154.027344 340.304688 153.695312 340.914062 153.664062 C 341.519531 153.632812 342.054688 153.914062 342.375 154.429688 L 350.425781 167.335938 L 359.285156 181.550781 " fill-opacity="1" fill-rule="evenodd"/><path fill="#f6b096" d="M 385.636719 165.082031 C 381.839844 171.410156 381.230469 180.574219 375.902344 182.472656 C 372.625 183.644531 369.089844 182.136719 368.003906 179.105469 C 366.921875 176.078125 368.703125 172.675781 371.980469 171.503906 C 373.632812 170.914062 375.355469 171.003906 376.792969 171.632812 L 378.515625 168.894531 C 378.144531 166.402344 379.878906 162.753906 383.21875 161.871094 C 384.089844 161.640625 384.96875 161.945312 385.507812 162.664062 C 386.050781 163.382812 386.101562 164.308594 385.636719 165.082031 " fill-opacity="1" fill-rule="evenodd"/><path fill="#f6b096" d="M 350.765625 175.75 C 348.867188 169.617188 355.582031 165.132812 359.566406 163.710938 C 362.117188 162.800781 364.925781 162.644531 367.863281 162.820312 C 370.59375 162.628906 373.324219 164.394531 374.5 167.28125 C 374.515625 167.3125 374.53125 167.347656 374.542969 167.378906 L 376.921875 174.035156 C 378.339844 178 376.796875 182.207031 373.488281 183.386719 L 361.761719 187.566406 C 358.457031 188.746094 354.59375 186.472656 353.175781 182.507812 L 350.875 176.074219 L 350.792969 175.851562 C 350.78125 175.816406 350.773438 175.785156 350.765625 175.75 " fill-opacity="1" fill-rule="evenodd"/><path fill="#dc977d" d="M 356.457031 175.644531 C 362.425781 174.324219 366.171875 179.164062 367.074219 181.679688 C 366.171875 179.164062 365.707031 173.335938 371.457031 170.292969 L 356.457031 175.644531 " fill-opacity="1" fill-rule="evenodd"/><path fill="#aadef7" d="M 383.140625 179.285156 C 378.136719 180.320312 373.222656 181.589844 368.511719 183.394531 C 363.800781 185.195312 359.292969 187.53125 354.875 190.097656 C 355.347656 191.328125 355.816406 192.5625 356.289062 193.792969 C 356.761719 195.019531 357.234375 196.253906 357.703125 197.480469 C 362.121094 194.910156 366.636719 192.582031 371.34375 190.777344 C 376.054688 188.976562 380.96875 187.703125 385.972656 186.671875 C 385.5 185.441406 385.027344 184.210938 384.558594 182.980469 C 384.085938 181.75 383.613281 180.515625 383.140625 179.285156 " fill-opacity="1" fill-rule="evenodd"/><path fill="#fefefe" d="M 461.988281 205.945312 C 471.386719 211.480469 503.125 213.132812 501.007812 219.277344 C 497.933594 228.203125 412.28125 285.929688 398.664062 284.476562 C 385.046875 283.023438 360.980469 214.488281 355.21875 196.984375 C 364.632812 185.023438 376.960938 184.121094 386.148438 184.121094 C 396.242188 203.796875 399.523438 213.308594 409.207031 233.460938 L 447.042969 204.730469 C 451.375 201.441406 457.300781 203.183594 461.988281 205.945312 " fill-opacity="1" fill-rule="evenodd"/><path fill="#999999" d="M 363.507812 198.089844 C 363.101562 196.886719 361.796875 196.238281 360.59375 196.640625 C 359.386719 197.042969 358.738281 198.34375 359.140625 199.546875 C 359.546875 200.75 360.847656 201.402344 362.054688 200.996094 C 363.257812 200.59375 363.910156 199.292969 363.507812 198.089844 Z M 365.902344 205.234375 C 365.496094 204.03125 364.191406 203.382812 362.988281 203.785156 C 361.78125 204.1875 361.132812 205.488281 361.539062 206.691406 C 361.941406 207.894531 363.246094 208.546875 364.449219 208.144531 C 365.65625 207.738281 366.304688 206.4375 365.902344 205.234375 " fill-opacity="1" fill-rule="evenodd"/><g clip-path="url(#b61e64fff0)"><path fill="#f6b096" d="M 649.976562 172.777344 C 651.121094 174.394531 653.914062 173.488281 655.039062 173.039062 L 658.964844 143.359375 C 658.996094 142.28125 658.726562 141.25 658.226562 140.335938 C 657.769531 139.5 656.863281 139.070312 655.925781 139.25 C 654.984375 139.421875 654.296875 140.148438 654.171875 141.09375 L 651.765625 159.257812 L 649.976562 172.777344 " fill-opacity="1" fill-rule="evenodd"/></g><g clip-path="url(#62aa3f03b9)"><path fill="#f6b096" d="M 656.097656 169.375 C 656.910156 171.101562 659.796875 170.886719 660.976562 170.722656 L 670.402344 144.367188 C 670.652344 143.320312 670.539062 142.285156 670.144531 141.328125 C 669.792969 140.480469 669 139.964844 668.085938 139.988281 C 667.167969 140.011719 666.402344 140.5625 666.09375 141.425781 L 660.355469 157.464844 L 656.097656 169.375 " fill-opacity="1" fill-rule="evenodd"/></g><path fill="#f6b096" d="M 661.3125 170.828125 C 661.699219 172.554688 664.359375 172.949219 665.460938 173.035156 L 679.460938 150.886719 C 680.09375 149.585938 679.992188 148.214844 679.375 146.921875 C 679.113281 146.375 678.609375 146.035156 678.003906 146 C 677.394531 145.964844 676.855469 146.238281 676.53125 146.753906 L 667.589844 160.898438 L 661.3125 170.828125 " fill-opacity="1" fill-rule="evenodd"/><path fill="#f6b096" d="M 664.800781 181.550781 C 665.167969 183.132812 667.613281 183.480469 668.625 183.554688 L 684.636719 157.871094 C 685.179688 156.742188 685.078125 155.632812 684.554688 154.570312 C 684.285156 154.027344 683.78125 153.695312 683.175781 153.664062 C 682.566406 153.632812 682.03125 153.914062 681.710938 154.429688 L 673.664062 167.335938 L 664.800781 181.550781 " fill-opacity="1" fill-rule="evenodd"/><path fill="#f6b096" d="M 638.449219 165.082031 C 642.246094 171.410156 642.855469 180.574219 648.183594 182.472656 C 651.460938 183.644531 655 182.136719 656.082031 179.105469 C 657.167969 176.078125 655.386719 172.675781 652.105469 171.503906 C 650.453125 170.914062 648.730469 171.003906 647.292969 171.632812 L 645.574219 168.894531 C 645.945312 166.402344 644.207031 162.753906 640.867188 161.871094 C 639.996094 161.640625 639.121094 161.945312 638.578125 162.664062 C 638.035156 163.382812 637.984375 164.308594 638.449219 165.082031 " fill-opacity="1" fill-rule="evenodd"/><path fill="#f6b096" d="M 673.320312 175.75 C 675.21875 169.617188 668.507812 165.132812 664.523438 163.710938 C 661.96875 162.800781 659.160156 162.644531 656.222656 162.820312 C 653.492188 162.628906 650.761719 164.394531 649.585938 167.28125 C 649.570312 167.3125 649.554688 167.347656 649.546875 167.378906 L 647.164062 174.035156 C 645.746094 178 647.292969 182.207031 650.597656 183.386719 L 662.324219 187.566406 C 665.632812 188.746094 669.496094 186.472656 670.910156 182.507812 L 673.214844 176.074219 L 673.292969 175.851562 C 673.304688 175.816406 673.316406 175.785156 673.320312 175.75 " fill-opacity="1" fill-rule="evenodd"/><path fill="#dc977d" d="M 667.632812 175.644531 C 661.660156 174.324219 657.914062 179.164062 657.011719 181.679688 C 657.914062 179.164062 658.378906 173.335938 652.628906 170.292969 L 667.632812 175.644531 " fill-opacity="1" fill-rule="evenodd"/><path fill="#aadef7" d="M 640.945312 179.285156 C 645.949219 180.320312 650.863281 181.589844 655.574219 183.394531 C 660.285156 185.195312 664.796875 187.53125 669.214844 190.097656 C 668.742188 191.328125 668.269531 192.5625 667.796875 193.792969 C 667.324219 195.019531 666.851562 196.253906 666.378906 197.480469 C 661.964844 194.910156 657.453125 192.582031 652.742188 190.777344 C 648.03125 188.976562 643.117188 187.703125 638.113281 186.671875 C 638.585938 185.441406 639.058594 184.210938 639.527344 182.980469 C 640 181.75 640.472656 180.515625 640.945312 179.285156 " fill-opacity="1" fill-rule="evenodd"/><path fill="#fefefe" d="M 562.101562 205.945312 C 552.703125 211.480469 520.960938 213.132812 523.078125 219.277344 C 526.152344 228.203125 611.808594 285.929688 625.425781 284.476562 C 639.042969 283.023438 663.109375 214.488281 668.867188 196.984375 C 659.453125 185.023438 647.128906 184.121094 637.941406 184.121094 C 627.847656 203.796875 624.5625 213.308594 614.878906 233.460938 L 577.046875 204.730469 C 572.714844 201.441406 566.785156 203.183594 562.101562 205.945312 " fill-opacity="1" fill-rule="evenodd"/><path fill="#999999" d="M 660.582031 198.089844 C 660.984375 196.886719 662.289062 196.238281 663.496094 196.640625 C 664.699219 197.042969 665.351562 198.34375 664.945312 199.546875 C 664.542969 200.75 663.238281 201.402344 662.035156 200.996094 C 660.828125 200.59375 660.179688 199.292969 660.582031 198.089844 Z M 658.1875 205.234375 C 658.589844 204.03125 659.894531 203.382812 661.101562 203.785156 C 662.304688 204.1875 662.953125 205.488281 662.546875 206.691406 C 662.144531 207.894531 660.839844 208.546875 659.636719 208.144531 C 658.433594 207.738281 657.785156 206.4375 658.1875 205.234375 " fill-opacity="1" fill-rule="evenodd"/><path fill="#183d81" d="M 561.707031 266.011719 C 561.085938 266.011719 560.578125 266.519531 560.578125 267.140625 L 560.578125 267.339844 C 560.578125 267.960938 561.085938 268.46875 561.707031 268.46875 C 562.328125 268.46875 562.835938 267.960938 562.835938 267.339844 L 562.835938 267.140625 C 562.835938 266.519531 562.328125 266.011719 561.707031 266.011719 " fill-opacity="1" fill-rule="evenodd"/><path fill="#333333" d="M 563.3125 267.527344 L 560.097656 267.527344 L 560.097656 279.816406 L 563.3125 279.816406 L 563.3125 267.527344 " fill-opacity="1" fill-rule="evenodd"/><path fill="#e6e6e6" d="M 563.34375 272.433594 L 536.058594 272.433594 L 536.058594 307.484375 L 563.914062 307.484375 L 563.914062 272.433594 Z M 537.195312 273.863281 L 562.773438 273.863281 L 562.773438 306.050781 L 537.195312 306.050781 L 537.195312 273.863281 " fill-opacity="1" fill-rule="evenodd"/><path fill="#e6e6e6" d="M 565.050781 272.433594 L 534.917969 272.433594 L 534.917969 281.785156 L 565.050781 281.785156 L 565.050781 272.433594 " fill-opacity="1" fill-rule="evenodd"/><path fill="#1a1a1a" d="M 562.121094 270.449219 L 561.292969 270.449219 L 561.292969 280.820312 L 562.121094 280.820312 L 562.121094 270.449219 " fill-opacity="1" fill-rule="evenodd"/><path fill="#808080" d="M 458.894531 276.699219 L 460.859375 277.203125 C 464.15625 278.042969 467.496094 277.464844 470.222656 275.847656 C 472.949219 274.234375 475.066406 271.585938 475.910156 268.292969 L 483.417969 238.984375 L 481.214844 238.417969 L 473.703125 267.730469 C 473.015625 270.414062 471.289062 272.574219 469.0625 273.890625 C 466.835938 275.210938 464.109375 275.683594 461.421875 274.996094 L 459.460938 274.496094 L 458.894531 276.699219 " fill-opacity="1" fill-rule="evenodd"/><path fill="#183d81" d="M 460.601562 273.917969 L 458.996094 273.507812 C 457.9375 273.238281 456.851562 273.878906 456.582031 274.933594 C 456.3125 275.992188 456.957031 277.074219 458.011719 277.34375 L 459.621094 277.753906 C 460.675781 278.027344 461.761719 277.382812 462.03125 276.328125 C 462.300781 275.273438 461.660156 274.1875 460.601562 273.917969 " fill-opacity="1" fill-rule="evenodd"/><path fill="#b3b3b3" d="M 482.757812 276.699219 L 480.796875 277.203125 C 477.496094 278.042969 474.15625 277.464844 471.429688 275.847656 C 468.699219 274.234375 466.585938 271.585938 465.742188 268.292969 L 458.234375 238.984375 L 460.441406 238.417969 L 467.949219 267.730469 C 468.636719 270.414062 470.363281 272.574219 472.589844 273.890625 C 474.816406 275.210938 477.542969 275.683594 480.230469 274.996094 L 482.195312 274.496094 L 482.757812 276.699219 " fill-opacity="1" fill-rule="evenodd"/><path fill="#183d81" d="M 481.050781 273.917969 L 482.65625 273.507812 C 483.714844 273.238281 484.800781 273.878906 485.070312 274.933594 C 485.339844 275.992188 484.699219 277.074219 483.640625 277.34375 L 482.035156 277.753906 C 480.980469 278.027344 479.890625 277.382812 479.621094 276.328125 C 479.351562 275.273438 479.996094 274.1875 481.050781 273.917969 " fill-opacity="1" fill-rule="evenodd"/><path fill="#183d81" d="M 461.125 238.148438 C 461.125 239.09375 460.359375 239.855469 459.414062 239.855469 C 458.472656 239.855469 457.707031 239.09375 457.707031 238.148438 C 457.707031 234.519531 459.179688 231.234375 461.5625 228.855469 C 463.941406 226.480469 467.234375 225.007812 470.867188 225.007812 C 474.5 225.007812 477.789062 226.480469 480.171875 228.855469 C 482.550781 231.234375 484.023438 234.519531 484.023438 238.148438 C 484.023438 239.09375 483.261719 239.855469 482.316406 239.855469 C 481.375 239.855469 480.605469 239.09375 480.605469 238.148438 C 480.605469 235.464844 479.519531 233.03125 477.753906 231.269531 C 475.992188 229.507812 473.558594 228.421875 470.867188 228.421875 C 468.175781 228.421875 465.738281 229.511719 463.976562 231.269531 C 462.214844 233.03125 461.125 235.464844 461.125 238.148438 " fill-opacity="1" fill-rule="evenodd"/><path fill="#183d81" d="M 470.867188 220.960938 C 471.804688 220.960938 472.574219 221.730469 472.574219 222.667969 L 472.574219 225.777344 C 472.574219 226.714844 471.804688 227.480469 470.867188 227.480469 C 469.925781 227.480469 469.160156 226.714844 469.160156 225.777344 L 469.160156 222.667969 C 469.160156 221.730469 469.925781 220.960938 470.867188 220.960938 " fill-opacity="1" fill-rule="evenodd"/><path fill="#183d81" d="M 469.707031 222.558594 C 469.699219 222.503906 467.449219 202.910156 509.832031 203.0625 L 509.832031 205.328125 C 469.964844 205.183594 471.960938 222.304688 471.964844 222.355469 L 469.707031 222.558594 " fill-opacity="1" fill-rule="evenodd"/><path fill="#cccccc" d="M 551.738281 247.0625 C 554.128906 247.0625 556.070312 248.996094 556.070312 251.386719 C 556.070312 253.777344 554.128906 255.710938 551.738281 255.710938 C 549.347656 255.710938 547.40625 253.777344 547.40625 251.386719 C 547.40625 248.996094 549.347656 247.0625 551.738281 247.0625 " fill-opacity="1" fill-rule="evenodd"/><path fill="#e6e6e6" d="M 551.238281 247.0625 C 553.628906 247.0625 555.570312 248.996094 555.570312 251.386719 C 555.570312 253.777344 553.628906 255.710938 551.238281 255.710938 C 548.84375 255.710938 546.90625 253.777344 546.90625 251.386719 C 546.90625 248.996094 548.84375 247.0625 551.238281 247.0625 " fill-opacity="1" fill-rule="evenodd"/><path fill="#999999" d="M 551.316406 248.578125 C 552.867188 248.578125 554.128906 249.835938 554.128906 251.386719 C 554.128906 252.9375 552.867188 254.195312 551.316406 254.195312 C 549.761719 254.195312 548.503906 252.9375 548.503906 251.386719 C 548.503906 249.835938 549.761719 248.578125 551.316406 248.578125 " fill-opacity="1" fill-rule="evenodd"/><path fill="#183d81" d="M 511.414062 205.023438 C 510.789062 205.023438 510.28125 204.515625 510.28125 203.886719 C 510.28125 203.261719 510.789062 202.753906 511.414062 202.753906 C 520.976562 202.722656 528.234375 203.679688 533.746094 205.175781 C 540.859375 207.109375 545.136719 209.953125 547.703125 212.75 C 551.902344 217.324219 551.757812 222.210938 551.601562 227.527344 C 551.574219 228.445312 551.546875 229.375 551.546875 230.519531 L 551.546875 248.375 C 551.546875 249.003906 551.039062 249.515625 550.410156 249.515625 C 549.78125 249.515625 549.273438 249.003906 549.273438 248.375 L 549.273438 230.519531 C 549.273438 229.621094 549.300781 228.53125 549.332031 227.464844 C 549.476562 222.628906 549.605469 218.179688 546.03125 214.285156 C 543.710938 211.761719 539.785156 209.171875 533.148438 207.371094 C 527.800781 205.917969 520.734375 204.988281 511.414062 205.023438 " fill-opacity="1" fill-rule="evenodd"/><path fill="#cccccc" d="M 549.734375 248.578125 C 551.289062 248.578125 552.546875 249.835938 552.546875 251.386719 C 552.546875 252.9375 551.289062 254.195312 549.734375 254.195312 C 548.179688 254.195312 546.921875 252.9375 546.921875 251.386719 C 546.921875 249.835938 548.179688 248.578125 549.734375 248.578125 " fill-opacity="1" fill-rule="evenodd"/><path fill="#e6e6e6" d="M 490.246094 375.058594 L 488.546875 375.515625 C 489.207031 375.746094 489.875 375.96875 490.542969 376.179688 L 490.246094 375.058594 " fill-opacity="1" fill-rule="evenodd"/><path fill="#e6e6e6" d="M 508.25 321.390625 L 515.832031 321.390625 L 515.832031 323.21875 L 508.25 323.21875 L 508.25 321.390625 " fill-opacity="1" fill-rule="evenodd"/><path fill="#999999" d="M 512.039062 319.691406 C 513.484375 319.691406 514.652344 320.863281 514.652344 322.304688 C 514.652344 323.746094 513.484375 324.914062 512.039062 324.914062 C 510.597656 324.914062 509.425781 323.746094 509.425781 322.304688 C 509.425781 320.863281 510.597656 319.691406 512.039062 319.691406 " fill-opacity="1" fill-rule="evenodd"/><path fill="#e6e6e6" d="M 508.25 360.75 L 515.832031 360.75 L 515.832031 362.578125 L 508.25 362.578125 L 508.25 360.75 " fill-opacity="1" fill-rule="evenodd"/><path fill="#999999" d="M 512.039062 359.054688 C 513.484375 359.054688 514.652344 360.222656 514.652344 361.664062 C 514.652344 363.105469 513.484375 364.273438 512.039062 364.273438 C 510.597656 364.273438 509.425781 363.105469 509.425781 361.664062 C 509.425781 360.222656 510.597656 359.054688 512.039062 359.054688 " fill-opacity="1" fill-rule="evenodd"/><path fill="#f6b096" d="M 546.640625 194.269531 C 550.363281 194.269531 553.382812 197.539062 553.382812 201.570312 C 553.382812 205.605469 550.363281 208.875 546.640625 208.875 C 542.914062 208.875 539.898438 205.605469 539.898438 201.570312 C 539.898438 197.539062 542.914062 194.269531 546.640625 194.269531 " fill-opacity="1" fill-rule="evenodd"/><path fill="#dc977d" d="M 546.640625 197.757812 C 548.585938 197.757812 550.160156 199.464844 550.160156 201.570312 C 550.160156 203.679688 548.585938 205.386719 546.640625 205.386719 C 544.695312 205.386719 543.117188 203.679688 543.117188 201.570312 C 543.117188 199.464844 544.695312 197.757812 546.640625 197.757812 " fill-opacity="1" fill-rule="evenodd"/><path fill="#f6b096" d="M 477.449219 194.269531 C 481.171875 194.269531 484.191406 197.539062 484.191406 201.570312 C 484.191406 205.605469 481.171875 208.875 477.449219 208.875 C 473.726562 208.875 470.703125 205.605469 470.703125 201.570312 C 470.703125 197.539062 473.726562 194.269531 477.449219 194.269531 " fill-opacity="1" fill-rule="evenodd"/><path fill="#dc977d" d="M 477.449219 197.757812 C 479.390625 197.757812 480.96875 199.464844 480.96875 201.570312 C 480.96875 203.679688 479.390625 205.386719 477.449219 205.386719 C 475.503906 205.386719 473.925781 203.679688 473.925781 201.570312 C 473.925781 199.464844 475.503906 197.757812 477.449219 197.757812 " fill-opacity="1" fill-rule="evenodd"/><path fill="#f6b096" d="M 501.347656 233.429688 C 492.472656 224.800781 479.273438 219.105469 479.273438 219.105469 L 479.273438 189.914062 C 479.273438 189.914062 478.421875 152.226562 511.285156 155.800781 C 544.152344 152.226562 545.003906 189.914062 545.003906 189.914062 L 545.003906 219.105469 C 545.003906 219.105469 531.3125 226.304688 523.027344 233.460938 C 519.644531 232.46875 515.957031 231.929688 512.136719 231.929688 C 508.320312 231.929688 504.703125 232.460938 501.347656 233.429688 " fill-opacity="1" fill-rule="evenodd"/><path fill="#e6e6e6" d="M 501.347656 233.429688 C 499.054688 231.199219 496.472656 229.164062 493.902344 227.375 C 493.855469 226.753906 493.832031 226.125 493.832031 225.492188 C 493.832031 213.664062 502.027344 204.078125 512.136719 204.078125 C 522.246094 204.078125 530.441406 213.664062 530.441406 225.492188 C 530.441406 226.324219 530.402344 227.140625 530.320312 227.949219 C 527.746094 229.703125 525.199219 231.582031 523.027344 233.460938 C 519.644531 232.46875 515.957031 231.929688 512.136719 231.929688 C 508.320312 231.929688 504.703125 232.460938 501.347656 233.429688 " fill-opacity="1" fill-rule="evenodd"/><path fill="#e6e6e6" d="M 538.472656 165.652344 C 538.472656 165.652344 534.382812 173.523438 535.257812 180.230469 C 536.132812 186.933594 542.984375 195.167969 541.3125 203.476562 C 539.640625 211.785156 538.355469 213.167969 538.355469 213.167969 L 546.128906 206.757812 C 546.128906 206.757812 549.921875 179.042969 538.472656 165.652344 " fill-opacity="1" fill-rule="evenodd"/><path fill="#e6e6e6" d="M 484.757812 165.652344 C 484.757812 165.652344 488.851562 173.523438 487.972656 180.230469 C 487.097656 186.933594 480.246094 195.167969 481.917969 203.476562 C 483.589844 211.785156 484.878906 213.167969 484.878906 213.167969 L 477.101562 206.757812 C 477.101562 206.757812 473.308594 179.042969 484.757812 165.652344 " fill-opacity="1" fill-rule="evenodd"/><path fill="#dc977d" d="M 517.726562 201.371094 C 516.980469 203.027344 513.019531 204.652344 511.808594 205.117188 C 510.601562 204.652344 506.636719 203.027344 505.894531 201.371094 C 507.632812 201.835938 509.652344 202.101562 511.808594 202.101562 C 513.964844 202.101562 515.988281 201.835938 517.726562 201.371094 " fill-opacity="1" fill-rule="evenodd"/><path fill="#dc977d" d="M 518.378906 182.96875 C 518.359375 182.992188 510.632812 192.605469 517.726562 201.371094 L 516.53125 202.050781 C 512.121094 195.304688 513.628906 188.84375 518.378906 182.96875 " fill-opacity="1" fill-rule="evenodd"/><path fill="#e6e6e6" d="M 499.550781 175.421875 C 501.628906 174.214844 504.125 174.359375 506.011719 175.585938 L 496.496094 181.105469 C 496.363281 178.863281 497.472656 176.628906 499.550781 175.421875 " fill-opacity="1" fill-rule="evenodd"/><path fill="#e6e6e6" d="M 527.480469 175.421875 C 525.402344 174.214844 522.90625 174.359375 521.019531 175.585938 L 530.535156 181.105469 C 530.667969 178.863281 529.558594 176.628906 527.480469 175.421875 " fill-opacity="1" fill-rule="evenodd"/><path fill="#ffffff" d="M 501.636719 183.816406 C 504.527344 183.816406 506.867188 186.722656 506.867188 190.3125 C 506.867188 193.898438 504.527344 196.808594 501.636719 196.808594 C 498.75 196.808594 496.40625 193.898438 496.40625 190.3125 C 496.40625 186.722656 498.75 183.816406 501.636719 183.816406 " fill-opacity="1" fill-rule="evenodd"/><path fill="#00ccff" d="M 500.292969 184.804688 C 498.917969 184.804688 497.800781 185.917969 497.800781 187.289062 C 497.800781 188.660156 498.917969 189.773438 500.292969 189.773438 C 501.664062 189.773438 502.777344 188.660156 502.777344 187.289062 C 502.777344 185.917969 501.664062 184.804688 500.292969 184.804688 " fill-opacity="1" fill-rule="evenodd"/><path fill="#ffffff" d="M 501.898438 184.59375 C 501.300781 184.59375 500.816406 185.078125 500.816406 185.675781 C 500.816406 186.269531 501.300781 186.753906 501.898438 186.753906 C 502.492188 186.753906 502.976562 186.269531 502.976562 185.675781 C 502.976562 185.078125 502.492188 184.59375 501.898438 184.59375 " fill-opacity="1" fill-rule="evenodd"/><path fill="#ffffff" d="M 499.605469 188.011719 C 499.230469 188.011719 498.921875 188.320312 498.921875 188.695312 C 498.921875 189.074219 499.230469 189.378906 499.605469 189.378906 C 499.984375 189.378906 500.292969 189.074219 500.292969 188.695312 C 500.292969 188.320312 499.984375 188.011719 499.605469 188.011719 " fill-opacity="1" fill-rule="evenodd"/><path fill="#000000" d="M 500.292969 185.828125 C 499.539062 185.828125 498.933594 186.433594 498.933594 187.1875 C 498.933594 187.933594 499.539062 188.542969 500.292969 188.542969 C 501.039062 188.542969 501.648438 187.933594 501.648438 187.1875 C 501.648438 186.433594 501.039062 185.828125 500.292969 185.828125 " fill-opacity="1" fill-rule="evenodd"/><path fill="#ffffff" d="M 523.566406 183.816406 C 526.453125 183.816406 528.800781 186.722656 528.800781 190.3125 C 528.800781 193.898438 526.453125 196.808594 523.566406 196.808594 C 520.675781 196.808594 518.335938 193.898438 518.335938 190.3125 C 518.335938 186.722656 520.675781 183.816406 523.566406 183.816406 " fill-opacity="1" fill-rule="evenodd"/><path fill="#00ccff" d="M 522.128906 184.804688 C 520.757812 184.804688 519.640625 185.917969 519.640625 187.289062 C 519.640625 188.660156 520.757812 189.773438 522.128906 189.773438 C 523.503906 189.773438 524.617188 188.660156 524.617188 187.289062 C 524.617188 185.917969 523.503906 184.804688 522.128906 184.804688 " fill-opacity="1" fill-rule="evenodd"/><path fill="#ffffff" d="M 523.738281 184.59375 C 523.140625 184.59375 522.65625 185.078125 522.65625 185.675781 C 522.65625 186.269531 523.140625 186.753906 523.738281 186.753906 C 524.335938 186.753906 524.816406 186.269531 524.816406 185.675781 C 524.816406 185.078125 524.335938 184.59375 523.738281 184.59375 " fill-opacity="1" fill-rule="evenodd"/><path fill="#ffffff" d="M 521.445312 188.011719 C 521.070312 188.011719 520.761719 188.320312 520.761719 188.695312 C 520.761719 189.074219 521.070312 189.378906 521.445312 189.378906 C 521.824219 189.378906 522.128906 189.074219 522.128906 188.695312 C 522.128906 188.320312 521.824219 188.011719 521.445312 188.011719 " fill-opacity="1" fill-rule="evenodd"/><path fill="#000000" d="M 522.128906 185.828125 C 521.378906 185.828125 520.769531 186.433594 520.769531 187.1875 C 520.769531 187.933594 521.378906 188.542969 522.128906 188.542969 C 522.878906 188.542969 523.488281 187.933594 523.488281 187.1875 C 523.488281 186.433594 522.878906 185.828125 522.128906 185.828125 " fill-opacity="1" fill-rule="evenodd"/><path fill="#000000" d="M 516.703125 190.148438 C 516.546875 190.570312 516.429688 191.007812 516.351562 191.449219 C 516.277344 191.878906 516.238281 192.320312 516.234375 192.765625 C 516.171875 192.714844 516.105469 192.660156 516.035156 192.609375 C 515.238281 192.027344 514.257812 191.691406 513.222656 191.691406 C 512.371094 191.691406 511.546875 191.921875 510.828125 192.339844 C 510.648438 192.445312 510.472656 192.5625 510.304688 192.691406 C 510.300781 192.269531 510.261719 191.855469 510.1875 191.449219 C 510.113281 191.007812 509.992188 190.570312 509.839844 190.148438 L 509.703125 189.773438 L 495.414062 189.773438 L 495.277344 190.148438 C 495.125 190.570312 495.007812 191.007812 494.929688 191.449219 C 494.851562 191.886719 494.8125 192.335938 494.8125 192.792969 C 494.8125 194.929688 495.679688 196.863281 497.082031 198.265625 C 498.480469 199.664062 500.417969 200.53125 502.558594 200.53125 C 504.695312 200.53125 506.636719 199.664062 508.039062 198.265625 C 509.019531 197.285156 509.738281 196.042969 510.082031 194.652344 C 510.402344 194.09375 510.859375 193.640625 511.402344 193.328125 C 511.945312 193.011719 512.570312 192.839844 513.222656 192.839844 C 514.015625 192.839844 514.761719 193.09375 515.363281 193.53125 C 515.902344 193.925781 516.335938 194.46875 516.589844 195.109375 C 516.96875 196.316406 517.632812 197.394531 518.503906 198.265625 C 519.90625 199.664062 521.84375 200.53125 523.984375 200.53125 C 526.125 200.53125 528.058594 199.664062 529.460938 198.265625 C 530.863281 196.863281 531.730469 194.929688 531.730469 192.792969 C 531.730469 192.335938 531.691406 191.886719 531.613281 191.449219 C 531.535156 191.007812 531.417969 190.570312 531.265625 190.148438 L 531.128906 189.773438 L 516.839844 189.773438 Z M 517.765625 195.011719 C 517.746094 194.949219 517.726562 194.886719 517.703125 194.820312 C 517.496094 194.183594 517.382812 193.5 517.382812 192.792969 C 517.382812 192.398438 517.417969 192.015625 517.484375 191.644531 C 517.527344 191.398438 517.582031 191.152344 517.652344 190.917969 L 530.3125 190.917969 C 530.382812 191.152344 530.441406 191.398438 530.488281 191.644531 C 530.550781 192.015625 530.585938 192.398438 530.585938 192.792969 C 530.585938 194.613281 529.847656 196.261719 528.648438 197.453125 C 527.457031 198.648438 525.804688 199.386719 523.984375 199.386719 C 522.160156 199.386719 520.511719 198.648438 519.316406 197.453125 C 518.632812 196.769531 518.097656 195.9375 517.765625 195.011719 Z M 496.054688 191.644531 C 496.101562 191.398438 496.160156 191.152344 496.226562 190.917969 L 508.890625 190.917969 C 508.960938 191.152344 509.015625 191.398438 509.058594 191.644531 C 509.125 192.015625 509.160156 192.398438 509.160156 192.792969 C 509.160156 194.613281 508.421875 196.261719 507.226562 197.453125 C 506.03125 198.648438 504.382812 199.386719 502.558594 199.386719 C 500.738281 199.386719 499.085938 198.648438 497.890625 197.453125 C 496.695312 196.261719 495.957031 194.613281 495.957031 192.792969 C 495.957031 192.398438 495.992188 192.015625 496.054688 191.644531 " fill-opacity="1" fill-rule="evenodd"/><path fill="#cccccc" d="M 517.882812 221.785156 C 514.027344 223.285156 512.820312 227.296875 512.820312 228.996094 C 512.820312 227.296875 511.851562 223.964844 507.761719 224.449219 L 517.882812 221.785156 " fill-opacity="1" fill-rule="evenodd"/><path fill="#ffffff" d="M 499.304688 217.851562 C 499.304688 214.734375 505.222656 212.203125 512.523438 212.203125 C 519.242188 212.203125 523.246094 213.996094 525.660156 217.207031 C 520.433594 212.203125 509.277344 213.46875 504.9375 216.636719 C 500.597656 219.808594 499.304688 217.851562 499.304688 217.851562 " fill-opacity="1" fill-rule="evenodd"/><path fill="#a80403" d="M 525.441406 216.929688 C 525.515625 217.019531 525.589844 217.113281 525.660156 217.207031 C 520.433594 212.203125 509.277344 213.46875 504.9375 216.636719 C 501.605469 219.070312 500.070312 218.484375 499.535156 218.082031 C 503.679688 213.859375 517.578125 210.019531 525.441406 216.929688 " fill-opacity="1" fill-rule="evenodd"/><path fill="#cccccc" d="M 506.898438 218.003906 C 506.875 218.019531 498.355469 222.378906 497.375 218.882812 C 496.042969 220.625 500.164062 223.554688 506.898438 218.003906 " fill-opacity="1" fill-rule="evenodd"/><g fill="#00b3a5" fill-opacity="1"><g transform="translate(434.005854, 511.066125)"><g><path d="M 2.609375 -8.734375 L 2.609375 0 L 0.765625 0 L 0.765625 -8.734375 Z M 2.609375 -8.734375 "/></g></g></g><g fill="#00b3a5" fill-opacity="1"><g transform="translate(436.890883, 511.066125)"><g><path d="M 2.546875 -3.78125 L 2.546875 0 L 0.71875 0 L 0.71875 -6.546875 L 2.453125 -6.546875 L 2.453125 -5.390625 L 2.53125 -5.390625 C 2.675781 -5.773438 2.914062 -6.078125 3.25 -6.296875 C 3.59375 -6.515625 4.007812 -6.625 4.5 -6.625 C 5.175781 -6.625 5.722656 -6.40625 6.140625 -5.96875 C 6.554688 -5.53125 6.765625 -4.929688 6.765625 -4.171875 L 6.765625 0 L 4.9375 0 L 4.9375 -3.84375 C 4.945312 -4.238281 4.847656 -4.550781 4.640625 -4.78125 C 4.429688 -5.007812 4.144531 -5.125 3.78125 -5.125 C 3.414062 -5.125 3.117188 -5.003906 2.890625 -4.765625 C 2.660156 -4.535156 2.546875 -4.207031 2.546875 -3.78125 Z M 2.546875 -3.78125 "/></g></g></g><g fill="#00b3a5" fill-opacity="1"><g transform="translate(443.869033, 511.066125)"><g/></g></g><g fill="#00b3a5" fill-opacity="1"><g transform="translate(446.17055, 511.066125)"><g><path d="M 4.203125 -6.546875 L 4.203125 -5.1875 L 2.96875 -5.1875 L 2.96875 -2.015625 C 2.96875 -1.765625 3.023438 -1.59375 3.140625 -1.5 C 3.253906 -1.414062 3.40625 -1.375 3.59375 -1.375 C 3.675781 -1.375 3.757812 -1.378906 3.84375 -1.390625 C 3.925781 -1.410156 3.992188 -1.425781 4.046875 -1.4375 L 4.328125 -0.078125 C 4.234375 -0.046875 4.101562 -0.015625 3.9375 0.015625 C 3.769531 0.0546875 3.570312 0.0820312 3.34375 0.09375 C 2.6875 0.113281 2.15625 -0.03125 1.75 -0.34375 C 1.351562 -0.65625 1.15625 -1.128906 1.15625 -1.765625 L 1.15625 -5.1875 L 0.265625 -5.1875 L 0.265625 -6.546875 L 1.15625 -6.546875 L 1.15625 -8.109375 L 2.96875 -8.109375 L 2.96875 -6.546875 Z M 4.203125 -6.546875 "/></g></g></g><g fill="#00b3a5" fill-opacity="1"><g transform="translate(450.350383, 511.066125)"><g><path d="M 2.546875 -3.78125 L 2.546875 0 L 0.71875 0 L 0.71875 -8.734375 L 2.484375 -8.734375 L 2.484375 -5.390625 L 2.5625 -5.390625 C 2.71875 -5.773438 2.957031 -6.078125 3.28125 -6.296875 C 3.613281 -6.515625 4.023438 -6.625 4.515625 -6.625 C 5.203125 -6.625 5.75 -6.40625 6.15625 -5.96875 C 6.570312 -5.53125 6.78125 -4.929688 6.78125 -4.171875 L 6.78125 0 L 4.96875 0 L 4.96875 -3.84375 C 4.96875 -4.25 4.863281 -4.5625 4.65625 -4.78125 C 4.457031 -5.007812 4.171875 -5.125 3.796875 -5.125 C 3.429688 -5.125 3.128906 -5.003906 2.890625 -4.765625 C 2.660156 -4.535156 2.546875 -4.207031 2.546875 -3.78125 Z M 2.546875 -3.78125 "/></g></g></g><g fill="#00b3a5" fill-opacity="1"><g transform="translate(457.358354, 511.066125)"><g><path d="M 3.703125 0.125 C 3.035156 0.125 2.457031 -0.0078125 1.96875 -0.28125 C 1.488281 -0.550781 1.113281 -0.9375 0.84375 -1.4375 C 0.582031 -1.945312 0.453125 -2.550781 0.453125 -3.25 C 0.453125 -3.914062 0.582031 -4.503906 0.84375 -5.015625 C 1.113281 -5.523438 1.484375 -5.921875 1.953125 -6.203125 C 2.429688 -6.484375 2.992188 -6.625 3.640625 -6.625 C 4.210938 -6.625 4.726562 -6.5 5.1875 -6.25 C 5.65625 -6.007812 6.023438 -5.644531 6.296875 -5.15625 C 6.578125 -4.664062 6.71875 -4.050781 6.71875 -3.3125 L 6.71875 -2.8125 L 2.25 -2.8125 L 2.25 -2.796875 C 2.25 -2.316406 2.382812 -1.9375 2.65625 -1.65625 C 2.925781 -1.375 3.285156 -1.234375 3.734375 -1.234375 C 4.035156 -1.234375 4.296875 -1.296875 4.515625 -1.421875 C 4.742188 -1.546875 4.90625 -1.734375 5 -1.984375 L 6.671875 -1.875 C 6.546875 -1.269531 6.222656 -0.785156 5.703125 -0.421875 C 5.179688 -0.0546875 4.515625 0.125 3.703125 0.125 Z M 2.25 -3.9375 L 5 -3.9375 C 5 -4.320312 4.875 -4.640625 4.625 -4.890625 C 4.375 -5.148438 4.054688 -5.28125 3.671875 -5.28125 C 3.265625 -5.28125 2.929688 -5.144531 2.671875 -4.875 C 2.410156 -4.613281 2.269531 -4.300781 2.25 -3.9375 Z M 2.25 -3.9375 "/></g></g></g><g fill="#00b3a5" fill-opacity="1"><g transform="translate(464.046882, 511.066125)"><g/></g></g><g fill="#00b3a5" fill-opacity="1"><g transform="translate(466.348398, 511.066125)"><g><path d="M 0.71875 0 L 0.71875 -6.546875 L 2.453125 -6.546875 L 2.453125 -5.390625 L 2.53125 -5.390625 C 2.664062 -5.773438 2.890625 -6.078125 3.203125 -6.296875 C 3.523438 -6.515625 3.910156 -6.625 4.359375 -6.625 C 4.804688 -6.625 5.1875 -6.515625 5.5 -6.296875 C 5.8125 -6.078125 6.019531 -5.773438 6.125 -5.390625 L 6.203125 -5.390625 C 6.335938 -5.765625 6.578125 -6.0625 6.921875 -6.28125 C 7.273438 -6.507812 7.691406 -6.625 8.171875 -6.625 C 8.785156 -6.625 9.28125 -6.429688 9.65625 -6.046875 C 10.039062 -5.660156 10.234375 -5.113281 10.234375 -4.40625 L 10.234375 0 L 8.421875 0 L 8.421875 -4.046875 C 8.421875 -4.410156 8.320312 -4.679688 8.125 -4.859375 C 7.9375 -5.046875 7.695312 -5.140625 7.40625 -5.140625 C 7.082031 -5.140625 6.828125 -5.03125 6.640625 -4.8125 C 6.453125 -4.601562 6.359375 -4.332031 6.359375 -4 L 6.359375 0 L 4.609375 0 L 4.609375 -4.078125 C 4.609375 -4.398438 4.515625 -4.65625 4.328125 -4.84375 C 4.140625 -5.039062 3.898438 -5.140625 3.609375 -5.140625 C 3.304688 -5.140625 3.050781 -5.023438 2.84375 -4.796875 C 2.644531 -4.578125 2.546875 -4.285156 2.546875 -3.921875 L 2.546875 0 Z M 0.71875 0 "/></g></g></g><g fill="#00b3a5" fill-opacity="1"><g transform="translate(476.80635, 511.066125)"><g><path d="M 3.703125 0.125 C 3.035156 0.125 2.457031 -0.0078125 1.96875 -0.28125 C 1.488281 -0.550781 1.113281 -0.9375 0.84375 -1.4375 C 0.582031 -1.945312 0.453125 -2.550781 0.453125 -3.25 C 0.453125 -3.914062 0.582031 -4.503906 0.84375 -5.015625 C 1.113281 -5.523438 1.484375 -5.921875 1.953125 -6.203125 C 2.429688 -6.484375 2.992188 -6.625 3.640625 -6.625 C 4.210938 -6.625 4.726562 -6.5 5.1875 -6.25 C 5.65625 -6.007812 6.023438 -5.644531 6.296875 -5.15625 C 6.578125 -4.664062 6.71875 -4.050781 6.71875 -3.3125 L 6.71875 -2.8125 L 2.25 -2.8125 L 2.25 -2.796875 C 2.25 -2.316406 2.382812 -1.9375 2.65625 -1.65625 C 2.925781 -1.375 3.285156 -1.234375 3.734375 -1.234375 C 4.035156 -1.234375 4.296875 -1.296875 4.515625 -1.421875 C 4.742188 -1.546875 4.90625 -1.734375 5 -1.984375 L 6.671875 -1.875 C 6.546875 -1.269531 6.222656 -0.785156 5.703125 -0.421875 C 5.179688 -0.0546875 4.515625 0.125 3.703125 0.125 Z M 2.25 -3.9375 L 5 -3.9375 C 5 -4.320312 4.875 -4.640625 4.625 -4.890625 C 4.375 -5.148438 4.054688 -5.28125 3.671875 -5.28125 C 3.265625 -5.28125 2.929688 -5.144531 2.671875 -4.875 C 2.410156 -4.613281 2.269531 -4.300781 2.25 -3.9375 Z M 2.25 -3.9375 "/></g></g></g><g fill="#00b3a5" fill-opacity="1"><g transform="translate(483.494877, 511.066125)"><g><path d="M 2.59375 0.125 C 1.96875 0.125 1.445312 -0.0351562 1.03125 -0.359375 C 0.625 -0.691406 0.421875 -1.179688 0.421875 -1.828125 C 0.421875 -2.316406 0.535156 -2.695312 0.765625 -2.96875 C 0.992188 -3.25 1.296875 -3.453125 1.671875 -3.578125 C 2.046875 -3.710938 2.445312 -3.800781 2.875 -3.84375 C 3.445312 -3.894531 3.851562 -3.953125 4.09375 -4.015625 C 4.34375 -4.078125 4.46875 -4.21875 4.46875 -4.4375 L 4.46875 -4.453125 C 4.46875 -4.722656 4.378906 -4.929688 4.203125 -5.078125 C 4.035156 -5.234375 3.796875 -5.3125 3.484375 -5.3125 C 3.160156 -5.3125 2.898438 -5.238281 2.703125 -5.09375 C 2.515625 -4.945312 2.390625 -4.765625 2.328125 -4.546875 L 0.640625 -4.6875 C 0.765625 -5.28125 1.078125 -5.75 1.578125 -6.09375 C 2.078125 -6.445312 2.71875 -6.625 3.5 -6.625 C 3.988281 -6.625 4.441406 -6.546875 4.859375 -6.390625 C 5.285156 -6.242188 5.628906 -6.003906 5.890625 -5.671875 C 6.148438 -5.347656 6.28125 -4.929688 6.28125 -4.421875 L 6.28125 0 L 4.5625 0 L 4.5625 -0.90625 L 4.5 -0.90625 C 4.34375 -0.601562 4.101562 -0.351562 3.78125 -0.15625 C 3.46875 0.03125 3.070312 0.125 2.59375 0.125 Z M 3.109375 -1.125 C 3.503906 -1.125 3.828125 -1.238281 4.078125 -1.46875 C 4.335938 -1.707031 4.46875 -2 4.46875 -2.34375 L 4.46875 -3.03125 C 4.40625 -2.988281 4.296875 -2.945312 4.140625 -2.90625 C 3.992188 -2.863281 3.832031 -2.828125 3.65625 -2.796875 C 3.488281 -2.773438 3.34375 -2.753906 3.21875 -2.734375 C 2.894531 -2.691406 2.632812 -2.601562 2.4375 -2.46875 C 2.25 -2.332031 2.15625 -2.140625 2.15625 -1.890625 C 2.15625 -1.640625 2.242188 -1.445312 2.421875 -1.3125 C 2.597656 -1.1875 2.828125 -1.125 3.109375 -1.125 Z M 3.109375 -1.125 "/></g></g></g><g fill="#00b3a5" fill-opacity="1"><g transform="translate(489.974696, 511.066125)"><g><path d="M 2.546875 -3.78125 L 2.546875 0 L 0.71875 0 L 0.71875 -6.546875 L 2.453125 -6.546875 L 2.453125 -5.390625 L 2.53125 -5.390625 C 2.675781 -5.773438 2.914062 -6.078125 3.25 -6.296875 C 3.59375 -6.515625 4.007812 -6.625 4.5 -6.625 C 5.175781 -6.625 5.722656 -6.40625 6.140625 -5.96875 C 6.554688 -5.53125 6.765625 -4.929688 6.765625 -4.171875 L 6.765625 0 L 4.9375 0 L 4.9375 -3.84375 C 4.945312 -4.238281 4.847656 -4.550781 4.640625 -4.78125 C 4.429688 -5.007812 4.144531 -5.125 3.78125 -5.125 C 3.414062 -5.125 3.117188 -5.003906 2.890625 -4.765625 C 2.660156 -4.535156 2.546875 -4.207031 2.546875 -3.78125 Z M 2.546875 -3.78125 "/></g></g></g><g fill="#00b3a5" fill-opacity="1"><g transform="translate(496.952844, 511.066125)"><g><path d="M 4.203125 -6.546875 L 4.203125 -5.1875 L 2.96875 -5.1875 L 2.96875 -2.015625 C 2.96875 -1.765625 3.023438 -1.59375 3.140625 -1.5 C 3.253906 -1.414062 3.40625 -1.375 3.59375 -1.375 C 3.675781 -1.375 3.757812 -1.378906 3.84375 -1.390625 C 3.925781 -1.410156 3.992188 -1.425781 4.046875 -1.4375 L 4.328125 -0.078125 C 4.234375 -0.046875 4.101562 -0.015625 3.9375 0.015625 C 3.769531 0.0546875 3.570312 0.0820312 3.34375 0.09375 C 2.6875 0.113281 2.15625 -0.03125 1.75 -0.34375 C 1.351562 -0.65625 1.15625 -1.128906 1.15625 -1.765625 L 1.15625 -5.1875 L 0.265625 -5.1875 L 0.265625 -6.546875 L 1.15625 -6.546875 L 1.15625 -8.109375 L 2.96875 -8.109375 L 2.96875 -6.546875 Z M 4.203125 -6.546875 "/></g></g></g><g fill="#00b3a5" fill-opacity="1"><g transform="translate(501.132675, 511.066125)"><g><path d="M 0.71875 0 L 0.71875 -6.546875 L 2.546875 -6.546875 L 2.546875 0 Z M 1.640625 -7.390625 C 1.367188 -7.390625 1.132812 -7.476562 0.9375 -7.65625 C 0.75 -7.84375 0.65625 -8.0625 0.65625 -8.3125 C 0.65625 -8.5625 0.75 -8.773438 0.9375 -8.953125 C 1.132812 -9.128906 1.367188 -9.21875 1.640625 -9.21875 C 1.910156 -9.21875 2.140625 -9.128906 2.328125 -8.953125 C 2.523438 -8.773438 2.625 -8.5625 2.625 -8.3125 C 2.625 -8.0625 2.523438 -7.84375 2.328125 -7.65625 C 2.140625 -7.476562 1.910156 -7.390625 1.640625 -7.390625 Z M 1.640625 -7.390625 "/></g></g></g><g fill="#00b3a5" fill-opacity="1"><g transform="translate(503.915475, 511.066125)"><g><path d="M 0.71875 0 L 0.71875 -6.546875 L 2.453125 -6.546875 L 2.453125 -5.390625 L 2.53125 -5.390625 C 2.664062 -5.773438 2.890625 -6.078125 3.203125 -6.296875 C 3.523438 -6.515625 3.910156 -6.625 4.359375 -6.625 C 4.804688 -6.625 5.1875 -6.515625 5.5 -6.296875 C 5.8125 -6.078125 6.019531 -5.773438 6.125 -5.390625 L 6.203125 -5.390625 C 6.335938 -5.765625 6.578125 -6.0625 6.921875 -6.28125 C 7.273438 -6.507812 7.691406 -6.625 8.171875 -6.625 C 8.785156 -6.625 9.28125 -6.429688 9.65625 -6.046875 C 10.039062 -5.660156 10.234375 -5.113281 10.234375 -4.40625 L 10.234375 0 L 8.421875 0 L 8.421875 -4.046875 C 8.421875 -4.410156 8.320312 -4.679688 8.125 -4.859375 C 7.9375 -5.046875 7.695312 -5.140625 7.40625 -5.140625 C 7.082031 -5.140625 6.828125 -5.03125 6.640625 -4.8125 C 6.453125 -4.601562 6.359375 -4.332031 6.359375 -4 L 6.359375 0 L 4.609375 0 L 4.609375 -4.078125 C 4.609375 -4.398438 4.515625 -4.65625 4.328125 -4.84375 C 4.140625 -5.039062 3.898438 -5.140625 3.609375 -5.140625 C 3.304688 -5.140625 3.050781 -5.023438 2.84375 -4.796875 C 2.644531 -4.578125 2.546875 -4.285156 2.546875 -3.921875 L 2.546875 0 Z M 0.71875 0 "/></g></g></g><g fill="#00b3a5" fill-opacity="1"><g transform="translate(514.373424, 511.066125)"><g><path d="M 3.703125 0.125 C 3.035156 0.125 2.457031 -0.0078125 1.96875 -0.28125 C 1.488281 -0.550781 1.113281 -0.9375 0.84375 -1.4375 C 0.582031 -1.945312 0.453125 -2.550781 0.453125 -3.25 C 0.453125 -3.914062 0.582031 -4.503906 0.84375 -5.015625 C 1.113281 -5.523438 1.484375 -5.921875 1.953125 -6.203125 C 2.429688 -6.484375 2.992188 -6.625 3.640625 -6.625 C 4.210938 -6.625 4.726562 -6.5 5.1875 -6.25 C 5.65625 -6.007812 6.023438 -5.644531 6.296875 -5.15625 C 6.578125 -4.664062 6.71875 -4.050781 6.71875 -3.3125 L 6.71875 -2.8125 L 2.25 -2.8125 L 2.25 -2.796875 C 2.25 -2.316406 2.382812 -1.9375 2.65625 -1.65625 C 2.925781 -1.375 3.285156 -1.234375 3.734375 -1.234375 C 4.035156 -1.234375 4.296875 -1.296875 4.515625 -1.421875 C 4.742188 -1.546875 4.90625 -1.734375 5 -1.984375 L 6.671875 -1.875 C 6.546875 -1.269531 6.222656 -0.785156 5.703125 -0.421875 C 5.179688 -0.0546875 4.515625 0.125 3.703125 0.125 Z M 2.25 -3.9375 L 5 -3.9375 C 5 -4.320312 4.875 -4.640625 4.625 -4.890625 C 4.375 -5.148438 4.054688 -5.28125 3.671875 -5.28125 C 3.265625 -5.28125 2.929688 -5.144531 2.671875 -4.875 C 2.410156 -4.613281 2.269531 -4.300781 2.25 -3.9375 Z M 2.25 -3.9375 "/></g></g></g><g fill="#00b3a5" fill-opacity="1"><g transform="translate(521.061949, 511.066125)"><g><path d="M 2.703125 -1.1875 L 2.65625 -0.71875 C 2.613281 -0.34375 2.539062 0.0234375 2.4375 0.390625 C 2.332031 0.765625 2.222656 1.101562 2.109375 1.40625 C 2.003906 1.71875 1.914062 1.957031 1.84375 2.125 L 0.671875 2.125 C 0.710938 1.957031 0.769531 1.722656 0.84375 1.421875 C 0.914062 1.128906 0.984375 0.796875 1.046875 0.421875 C 1.117188 0.046875 1.160156 -0.332031 1.171875 -0.71875 L 1.203125 -1.1875 Z M 2.703125 -1.1875 "/></g></g></g><g fill="#00b3a5" fill-opacity="1"><g transform="translate(524.215311, 511.066125)"><g/></g></g><g fill="#00b3a5" fill-opacity="1"><g transform="translate(526.516825, 511.066125)"><g><path d="M 0.71875 0 L 0.71875 -6.546875 L 2.484375 -6.546875 L 2.484375 -5.40625 L 2.546875 -5.40625 C 2.671875 -5.8125 2.875 -6.117188 3.15625 -6.328125 C 3.4375 -6.535156 3.757812 -6.640625 4.125 -6.640625 C 4.300781 -6.640625 4.460938 -6.617188 4.609375 -6.578125 C 4.765625 -6.535156 4.898438 -6.476562 5.015625 -6.40625 L 4.46875 -4.90625 C 4.382812 -4.945312 4.289062 -4.976562 4.1875 -5 C 4.09375 -5.03125 3.984375 -5.046875 3.859375 -5.046875 C 3.492188 -5.046875 3.179688 -4.921875 2.921875 -4.671875 C 2.671875 -4.421875 2.546875 -4.097656 2.546875 -3.703125 L 2.546875 0 Z M 0.71875 0 "/></g></g></g><g fill="#00b3a5" fill-opacity="1"><g transform="translate(531.177954, 511.066125)"><g><path d="M 3.703125 0.125 C 3.035156 0.125 2.457031 -0.0078125 1.96875 -0.28125 C 1.488281 -0.550781 1.113281 -0.9375 0.84375 -1.4375 C 0.582031 -1.945312 0.453125 -2.550781 0.453125 -3.25 C 0.453125 -3.914062 0.582031 -4.503906 0.84375 -5.015625 C 1.113281 -5.523438 1.484375 -5.921875 1.953125 -6.203125 C 2.429688 -6.484375 2.992188 -6.625 3.640625 -6.625 C 4.210938 -6.625 4.726562 -6.5 5.1875 -6.25 C 5.65625 -6.007812 6.023438 -5.644531 6.296875 -5.15625 C 6.578125 -4.664062 6.71875 -4.050781 6.71875 -3.3125 L 6.71875 -2.8125 L 2.25 -2.8125 L 2.25 -2.796875 C 2.25 -2.316406 2.382812 -1.9375 2.65625 -1.65625 C 2.925781 -1.375 3.285156 -1.234375 3.734375 -1.234375 C 4.035156 -1.234375 4.296875 -1.296875 4.515625 -1.421875 C 4.742188 -1.546875 4.90625 -1.734375 5 -1.984375 L 6.671875 -1.875 C 6.546875 -1.269531 6.222656 -0.785156 5.703125 -0.421875 C 5.179688 -0.0546875 4.515625 0.125 3.703125 0.125 Z M 2.25 -3.9375 L 5 -3.9375 C 5 -4.320312 4.875 -4.640625 4.625 -4.890625 C 4.375 -5.148438 4.054688 -5.28125 3.671875 -5.28125 C 3.265625 -5.28125 2.929688 -5.144531 2.671875 -4.875 C 2.410156 -4.613281 2.269531 -4.300781 2.25 -3.9375 Z M 2.25 -3.9375 "/></g></g></g><g fill="#00b3a5" fill-opacity="1"><g transform="translate(537.866485, 511.066125)"><g><path d="M 2.59375 0.125 C 1.96875 0.125 1.445312 -0.0351562 1.03125 -0.359375 C 0.625 -0.691406 0.421875 -1.179688 0.421875 -1.828125 C 0.421875 -2.316406 0.535156 -2.695312 0.765625 -2.96875 C 0.992188 -3.25 1.296875 -3.453125 1.671875 -3.578125 C 2.046875 -3.710938 2.445312 -3.800781 2.875 -3.84375 C 3.445312 -3.894531 3.851562 -3.953125 4.09375 -4.015625 C 4.34375 -4.078125 4.46875 -4.21875 4.46875 -4.4375 L 4.46875 -4.453125 C 4.46875 -4.722656 4.378906 -4.929688 4.203125 -5.078125 C 4.035156 -5.234375 3.796875 -5.3125 3.484375 -5.3125 C 3.160156 -5.3125 2.898438 -5.238281 2.703125 -5.09375 C 2.515625 -4.945312 2.390625 -4.765625 2.328125 -4.546875 L 0.640625 -4.6875 C 0.765625 -5.28125 1.078125 -5.75 1.578125 -6.09375 C 2.078125 -6.445312 2.71875 -6.625 3.5 -6.625 C 3.988281 -6.625 4.441406 -6.546875 4.859375 -6.390625 C 5.285156 -6.242188 5.628906 -6.003906 5.890625 -5.671875 C 6.148438 -5.347656 6.28125 -4.929688 6.28125 -4.421875 L 6.28125 0 L 4.5625 0 L 4.5625 -0.90625 L 4.5 -0.90625 C 4.34375 -0.601562 4.101562 -0.351562 3.78125 -0.15625 C 3.46875 0.03125 3.070312 0.125 2.59375 0.125 Z M 3.109375 -1.125 C 3.503906 -1.125 3.828125 -1.238281 4.078125 -1.46875 C 4.335938 -1.707031 4.46875 -2 4.46875 -2.34375 L 4.46875 -3.03125 C 4.40625 -2.988281 4.296875 -2.945312 4.140625 -2.90625 C 3.992188 -2.863281 3.832031 -2.828125 3.65625 -2.796875 C 3.488281 -2.773438 3.34375 -2.753906 3.21875 -2.734375 C 2.894531 -2.691406 2.632812 -2.601562 2.4375 -2.46875 C 2.25 -2.332031 2.15625 -2.140625 2.15625 -1.890625 C 2.15625 -1.640625 2.242188 -1.445312 2.421875 -1.3125 C 2.597656 -1.1875 2.828125 -1.125 3.109375 -1.125 Z M 3.109375 -1.125 "/></g></g></g><g fill="#00b3a5" fill-opacity="1"><g transform="translate(544.346309, 511.066125)"><g><path d="M 3.6875 0.125 C 3.007812 0.125 2.429688 -0.015625 1.953125 -0.296875 C 1.472656 -0.585938 1.101562 -0.984375 0.84375 -1.484375 C 0.582031 -1.992188 0.453125 -2.582031 0.453125 -3.25 C 0.453125 -3.914062 0.582031 -4.503906 0.84375 -5.015625 C 1.101562 -5.523438 1.472656 -5.921875 1.953125 -6.203125 C 2.441406 -6.484375 3.015625 -6.625 3.671875 -6.625 C 4.242188 -6.625 4.742188 -6.519531 5.171875 -6.3125 C 5.609375 -6.113281 5.945312 -5.828125 6.1875 -5.453125 C 6.4375 -5.078125 6.578125 -4.632812 6.609375 -4.125 L 4.890625 -4.125 C 4.835938 -4.445312 4.707031 -4.707031 4.5 -4.90625 C 4.300781 -5.113281 4.035156 -5.21875 3.703125 -5.21875 C 3.285156 -5.21875 2.945312 -5.046875 2.6875 -4.703125 C 2.4375 -4.367188 2.3125 -3.890625 2.3125 -3.265625 C 2.3125 -2.640625 2.4375 -2.15625 2.6875 -1.8125 C 2.9375 -1.476562 3.273438 -1.3125 3.703125 -1.3125 C 4.015625 -1.3125 4.273438 -1.40625 4.484375 -1.59375 C 4.703125 -1.78125 4.835938 -2.050781 4.890625 -2.40625 L 6.609375 -2.40625 C 6.578125 -1.90625 6.4375 -1.460938 6.1875 -1.078125 C 5.945312 -0.691406 5.613281 -0.394531 5.1875 -0.1875 C 4.769531 0.0195312 4.269531 0.125 3.6875 0.125 Z M 3.6875 0.125 "/></g></g></g><g fill="#00b3a5" fill-opacity="1"><g transform="translate(550.911315, 511.066125)"><g><path d="M 2.546875 -3.78125 L 2.546875 0 L 0.71875 0 L 0.71875 -8.734375 L 2.484375 -8.734375 L 2.484375 -5.390625 L 2.5625 -5.390625 C 2.71875 -5.773438 2.957031 -6.078125 3.28125 -6.296875 C 3.613281 -6.515625 4.023438 -6.625 4.515625 -6.625 C 5.203125 -6.625 5.75 -6.40625 6.15625 -5.96875 C 6.570312 -5.53125 6.78125 -4.929688 6.78125 -4.171875 L 6.78125 0 L 4.96875 0 L 4.96875 -3.84375 C 4.96875 -4.25 4.863281 -4.5625 4.65625 -4.78125 C 4.457031 -5.007812 4.171875 -5.125 3.796875 -5.125 C 3.429688 -5.125 3.128906 -5.003906 2.890625 -4.765625 C 2.660156 -4.535156 2.546875 -4.207031 2.546875 -3.78125 Z M 2.546875 -3.78125 "/></g></g></g><g fill="#00b3a5" fill-opacity="1"><g transform="translate(557.919289, 511.066125)"><g/></g></g><g fill="#00b3a5" fill-opacity="1"><g transform="translate(560.220809, 511.066125)"><g><path d="M 4.921875 -2.78125 L 4.921875 -6.546875 L 6.734375 -6.546875 L 6.734375 0 L 5 0 L 5 -1.1875 L 4.921875 -1.1875 C 4.773438 -0.800781 4.53125 -0.492188 4.1875 -0.265625 C 3.84375 -0.0351562 3.425781 0.078125 2.9375 0.078125 C 2.28125 0.078125 1.75 -0.140625 1.34375 -0.578125 C 0.9375 -1.015625 0.726562 -1.613281 0.71875 -2.375 L 0.71875 -6.546875 L 2.546875 -6.546875 L 2.546875 -2.703125 C 2.546875 -2.316406 2.644531 -2.007812 2.84375 -1.78125 C 3.050781 -1.5625 3.328125 -1.453125 3.671875 -1.453125 C 3.992188 -1.453125 4.28125 -1.5625 4.53125 -1.78125 C 4.789062 -2.007812 4.921875 -2.34375 4.921875 -2.78125 Z M 4.921875 -2.78125 "/></g></g></g><g fill="#00b3a5" fill-opacity="1"><g transform="translate(567.198963, 511.066125)"><g><path d="M 6.171875 -4.671875 L 4.515625 -4.578125 C 4.460938 -4.785156 4.34375 -4.960938 4.15625 -5.109375 C 3.976562 -5.265625 3.726562 -5.34375 3.40625 -5.34375 C 3.125 -5.34375 2.882812 -5.28125 2.6875 -5.15625 C 2.5 -5.039062 2.40625 -4.890625 2.40625 -4.703125 C 2.40625 -4.546875 2.46875 -4.410156 2.59375 -4.296875 C 2.71875 -4.191406 2.9375 -4.109375 3.25 -4.046875 L 4.421875 -3.796875 C 5.679688 -3.535156 6.3125 -2.945312 6.3125 -2.03125 C 6.3125 -1.601562 6.1875 -1.222656 5.9375 -0.890625 C 5.6875 -0.566406 5.34375 -0.316406 4.90625 -0.140625 C 4.46875 0.0351562 3.96875 0.125 3.40625 0.125 C 2.539062 0.125 1.847656 -0.0507812 1.328125 -0.40625 C 0.816406 -0.769531 0.519531 -1.265625 0.4375 -1.890625 L 2.21875 -1.984375 C 2.28125 -1.722656 2.410156 -1.523438 2.609375 -1.390625 C 2.816406 -1.253906 3.082031 -1.1875 3.40625 -1.1875 C 3.726562 -1.1875 3.984375 -1.25 4.171875 -1.375 C 4.367188 -1.5 4.46875 -1.65625 4.46875 -1.84375 C 4.46875 -2.164062 4.191406 -2.382812 3.640625 -2.5 L 2.5 -2.71875 C 1.226562 -2.976562 0.597656 -3.601562 0.609375 -4.59375 C 0.609375 -5.226562 0.859375 -5.722656 1.359375 -6.078125 C 1.867188 -6.441406 2.546875 -6.625 3.390625 -6.625 C 4.210938 -6.625 4.859375 -6.445312 5.328125 -6.09375 C 5.804688 -5.75 6.085938 -5.273438 6.171875 -4.671875 Z M 6.171875 -4.671875 "/></g></g></g><g fill="#00b3a5" fill-opacity="1"><g transform="translate(573.457314, 511.066125)"><g/></g></g><g fill="#00b3a5" fill-opacity="1"><g transform="translate(575.758833, 511.066125)"><g><path d="M 2.59375 0.125 C 1.96875 0.125 1.445312 -0.0351562 1.03125 -0.359375 C 0.625 -0.691406 0.421875 -1.179688 0.421875 -1.828125 C 0.421875 -2.316406 0.535156 -2.695312 0.765625 -2.96875 C 0.992188 -3.25 1.296875 -3.453125 1.671875 -3.578125 C 2.046875 -3.710938 2.445312 -3.800781 2.875 -3.84375 C 3.445312 -3.894531 3.851562 -3.953125 4.09375 -4.015625 C 4.34375 -4.078125 4.46875 -4.21875 4.46875 -4.4375 L 4.46875 -4.453125 C 4.46875 -4.722656 4.378906 -4.929688 4.203125 -5.078125 C 4.035156 -5.234375 3.796875 -5.3125 3.484375 -5.3125 C 3.160156 -5.3125 2.898438 -5.238281 2.703125 -5.09375 C 2.515625 -4.945312 2.390625 -4.765625 2.328125 -4.546875 L 0.640625 -4.6875 C 0.765625 -5.28125 1.078125 -5.75 1.578125 -6.09375 C 2.078125 -6.445312 2.71875 -6.625 3.5 -6.625 C 3.988281 -6.625 4.441406 -6.546875 4.859375 -6.390625 C 5.285156 -6.242188 5.628906 -6.003906 5.890625 -5.671875 C 6.148438 -5.347656 6.28125 -4.929688 6.28125 -4.421875 L 6.28125 0 L 4.5625 0 L 4.5625 -0.90625 L 4.5 -0.90625 C 4.34375 -0.601562 4.101562 -0.351562 3.78125 -0.15625 C 3.46875 0.03125 3.070312 0.125 2.59375 0.125 Z M 3.109375 -1.125 C 3.503906 -1.125 3.828125 -1.238281 4.078125 -1.46875 C 4.335938 -1.707031 4.46875 -2 4.46875 -2.34375 L 4.46875 -3.03125 C 4.40625 -2.988281 4.296875 -2.945312 4.140625 -2.90625 C 3.992188 -2.863281 3.832031 -2.828125 3.65625 -2.796875 C 3.488281 -2.773438 3.34375 -2.753906 3.21875 -2.734375 C 2.894531 -2.691406 2.632812 -2.601562 2.4375 -2.46875 C 2.25 -2.332031 2.15625 -2.140625 2.15625 -1.890625 C 2.15625 -1.640625 2.242188 -1.445312 2.421875 -1.3125 C 2.597656 -1.1875 2.828125 -1.125 3.109375 -1.125 Z M 3.109375 -1.125 "/></g></g></g><g fill="#00b3a5" fill-opacity="1"><g transform="translate(582.238657, 511.066125)"><g><path d="M 4.203125 -6.546875 L 4.203125 -5.1875 L 2.96875 -5.1875 L 2.96875 -2.015625 C 2.96875 -1.765625 3.023438 -1.59375 3.140625 -1.5 C 3.253906 -1.414062 3.40625 -1.375 3.59375 -1.375 C 3.675781 -1.375 3.757812 -1.378906 3.84375 -1.390625 C 3.925781 -1.410156 3.992188 -1.425781 4.046875 -1.4375 L 4.328125 -0.078125 C 4.234375 -0.046875 4.101562 -0.015625 3.9375 0.015625 C 3.769531 0.0546875 3.570312 0.0820312 3.34375 0.09375 C 2.6875 0.113281 2.15625 -0.03125 1.75 -0.34375 C 1.351562 -0.65625 1.15625 -1.128906 1.15625 -1.765625 L 1.15625 -5.1875 L 0.265625 -5.1875 L 0.265625 -6.546875 L 1.15625 -6.546875 L 1.15625 -8.109375 L 2.96875 -8.109375 L 2.96875 -6.546875 Z M 4.203125 -6.546875 "/></g></g></g><g fill="#00b3a5" fill-opacity="1"><g transform="translate(586.418494, 511.066125)"><g><path d="M 1.78125 0.109375 C 1.5 0.109375 1.257812 0.0078125 1.0625 -0.1875 C 0.863281 -0.382812 0.765625 -0.625 0.765625 -0.90625 C 0.765625 -1.1875 0.863281 -1.425781 1.0625 -1.625 C 1.257812 -1.820312 1.5 -1.921875 1.78125 -1.921875 C 2.050781 -1.921875 2.285156 -1.820312 2.484375 -1.625 C 2.691406 -1.425781 2.800781 -1.1875 2.8125 -0.90625 C 2.800781 -0.625 2.691406 -0.382812 2.484375 -0.1875 C 2.285156 0.0078125 2.050781 0.109375 1.78125 0.109375 Z M 1.78125 -4.46875 C 1.5 -4.46875 1.257812 -4.566406 1.0625 -4.765625 C 0.863281 -4.960938 0.765625 -5.203125 0.765625 -5.484375 C 0.765625 -5.765625 0.863281 -6.003906 1.0625 -6.203125 C 1.257812 -6.398438 1.5 -6.5 1.78125 -6.5 C 2.050781 -6.5 2.285156 -6.398438 2.484375 -6.203125 C 2.691406 -6.003906 2.800781 -5.765625 2.8125 -5.484375 C 2.800781 -5.203125 2.691406 -4.960938 2.484375 -4.765625 C 2.285156 -4.566406 2.050781 -4.46875 1.78125 -4.46875 Z M 1.78125 -4.46875 "/></g></g></g><g fill="#00b3a5" fill-opacity="1"><g transform="translate(437.538358, 532.455693)"><g><path d="M 6.46875 -5.921875 L 5.421875 -5.625 C 5.316406 -5.882812 5.144531 -6.128906 4.90625 -6.359375 C 4.664062 -6.597656 4.289062 -6.71875 3.78125 -6.71875 C 3.3125 -6.71875 2.921875 -6.609375 2.609375 -6.390625 C 2.296875 -6.179688 2.140625 -5.910156 2.140625 -5.578125 C 2.140625 -5.285156 2.242188 -5.054688 2.453125 -4.890625 C 2.671875 -4.722656 3.003906 -4.582031 3.453125 -4.46875 L 4.59375 -4.1875 C 5.9375 -3.851562 6.609375 -3.164062 6.609375 -2.125 C 6.609375 -1.6875 6.484375 -1.296875 6.234375 -0.953125 C 5.984375 -0.609375 5.632812 -0.335938 5.1875 -0.140625 C 4.75 0.0546875 4.234375 0.15625 3.640625 0.15625 C 2.859375 0.15625 2.210938 -0.0078125 1.703125 -0.34375 C 1.191406 -0.6875 0.867188 -1.179688 0.734375 -1.828125 L 1.84375 -2.109375 C 2.050781 -1.285156 2.640625 -0.875 3.609375 -0.875 C 4.160156 -0.875 4.597656 -0.988281 4.921875 -1.21875 C 5.242188 -1.457031 5.40625 -1.738281 5.40625 -2.0625 C 5.40625 -2.601562 5.023438 -2.960938 4.265625 -3.140625 L 3 -3.4375 C 2.300781 -3.601562 1.785156 -3.859375 1.453125 -4.203125 C 1.128906 -4.554688 0.96875 -4.992188 0.96875 -5.515625 C 0.96875 -5.953125 1.085938 -6.332031 1.328125 -6.65625 C 1.578125 -6.988281 1.910156 -7.25 2.328125 -7.4375 C 2.753906 -7.632812 3.238281 -7.734375 3.78125 -7.734375 C 4.53125 -7.734375 5.117188 -7.566406 5.546875 -7.234375 C 5.984375 -6.898438 6.289062 -6.460938 6.46875 -5.921875 Z M 6.46875 -5.921875 "/></g></g></g><g fill="#00b3a5" fill-opacity="1"><g transform="translate(444.289255, 532.455693)"><g><path d="M 1.78125 2.953125 C 1.582031 2.953125 1.40625 2.9375 1.25 2.90625 C 1.09375 2.875 0.988281 2.847656 0.9375 2.828125 L 1.234375 1.78125 C 1.660156 1.894531 2.015625 1.894531 2.296875 1.78125 C 2.585938 1.664062 2.835938 1.320312 3.046875 0.75 L 3.296875 0.046875 L 0.484375 -7.625 L 1.75 -7.625 L 3.859375 -1.546875 L 3.9375 -1.546875 L 6.03125 -7.625 L 7.3125 -7.625 L 4.03125 1.234375 C 3.601562 2.378906 2.851562 2.953125 1.78125 2.953125 Z M 1.78125 2.953125 "/></g></g></g><g fill="#00b3a5" fill-opacity="1"><g transform="translate(451.516933, 532.455693)"><g><path d="M 2.25 -4.59375 L 2.25 0 L 1.078125 0 L 1.078125 -7.625 L 2.203125 -7.625 L 2.203125 -6.4375 L 2.296875 -6.4375 C 2.484375 -6.820312 2.757812 -7.132812 3.125 -7.375 C 3.488281 -7.613281 3.957031 -7.734375 4.53125 -7.734375 C 5.300781 -7.734375 5.921875 -7.492188 6.390625 -7.015625 C 6.867188 -6.546875 7.109375 -5.820312 7.109375 -4.84375 L 7.109375 0 L 5.9375 0 L 5.9375 -4.765625 C 5.9375 -5.367188 5.78125 -5.835938 5.46875 -6.171875 C 5.15625 -6.503906 4.726562 -6.671875 4.1875 -6.671875 C 3.632812 -6.671875 3.171875 -6.488281 2.796875 -6.125 C 2.429688 -5.769531 2.25 -5.257812 2.25 -4.59375 Z M 2.25 -4.59375 "/></g></g></g><g fill="#00b3a5" fill-opacity="1"><g transform="translate(459.141927, 532.455693)"><g><path d="M 4.171875 0.15625 C 3.453125 0.15625 2.832031 -0.0078125 2.3125 -0.34375 C 1.800781 -0.6875 1.40625 -1.148438 1.125 -1.734375 C 0.851562 -2.328125 0.71875 -3.007812 0.71875 -3.78125 C 0.71875 -4.550781 0.859375 -5.234375 1.140625 -5.828125 C 1.429688 -6.421875 1.832031 -6.882812 2.34375 -7.21875 C 2.863281 -7.5625 3.46875 -7.734375 4.15625 -7.734375 C 4.6875 -7.734375 5.164062 -7.628906 5.59375 -7.421875 C 6.03125 -7.222656 6.382812 -6.945312 6.65625 -6.59375 C 6.9375 -6.238281 7.109375 -5.820312 7.171875 -5.34375 L 6 -5.34375 C 5.90625 -5.6875 5.707031 -5.992188 5.40625 -6.265625 C 5.101562 -6.535156 4.691406 -6.671875 4.171875 -6.671875 C 3.484375 -6.671875 2.929688 -6.410156 2.515625 -5.890625 C 2.097656 -5.367188 1.890625 -4.675781 1.890625 -3.8125 C 1.890625 -2.925781 2.09375 -2.21875 2.5 -1.6875 C 2.914062 -1.15625 3.472656 -0.890625 4.171875 -0.890625 C 4.628906 -0.890625 5.019531 -1.003906 5.34375 -1.234375 C 5.664062 -1.472656 5.882812 -1.800781 6 -2.21875 L 7.171875 -2.21875 C 7.109375 -1.769531 6.945312 -1.363281 6.6875 -1 C 6.425781 -0.644531 6.082031 -0.363281 5.65625 -0.15625 C 5.226562 0.0507812 4.734375 0.15625 4.171875 0.15625 Z M 4.171875 0.15625 "/></g></g></g><g fill="#00b3a5" fill-opacity="1"><g transform="translate(466.389474, 532.455693)"><g><path d="M 1.078125 0 L 1.078125 -7.625 L 2.203125 -7.625 L 2.203125 -6.4375 L 2.296875 -6.4375 C 2.460938 -6.84375 2.722656 -7.160156 3.078125 -7.390625 C 3.429688 -7.617188 3.851562 -7.734375 4.34375 -7.734375 C 4.851562 -7.734375 5.273438 -7.617188 5.609375 -7.390625 C 5.941406 -7.160156 6.203125 -6.84375 6.390625 -6.4375 L 6.46875 -6.4375 C 6.664062 -6.832031 6.957031 -7.144531 7.34375 -7.375 C 7.738281 -7.613281 8.210938 -7.734375 8.765625 -7.734375 C 9.441406 -7.734375 9.992188 -7.519531 10.421875 -7.09375 C 10.859375 -6.664062 11.078125 -6.003906 11.078125 -5.109375 L 11.078125 0 L 9.90625 0 L 9.90625 -5.109375 C 9.90625 -5.671875 9.75 -6.070312 9.4375 -6.3125 C 9.132812 -6.550781 8.773438 -6.671875 8.359375 -6.671875 C 7.828125 -6.671875 7.410156 -6.507812 7.109375 -6.1875 C 6.816406 -5.863281 6.671875 -5.457031 6.671875 -4.96875 L 6.671875 0 L 5.484375 0 L 5.484375 -5.21875 C 5.484375 -5.65625 5.34375 -6.003906 5.0625 -6.265625 C 4.78125 -6.535156 4.414062 -6.671875 3.96875 -6.671875 C 3.664062 -6.671875 3.378906 -6.585938 3.109375 -6.421875 C 2.847656 -6.265625 2.640625 -6.039062 2.484375 -5.75 C 2.328125 -5.46875 2.25 -5.140625 2.25 -4.765625 L 2.25 0 Z M 1.078125 0 "/></g></g></g><g fill="#00b3a5" fill-opacity="1"><g transform="translate(477.987636, 532.455693)"><g><path d="M 4.265625 0.15625 C 3.535156 0.15625 2.90625 -0.00390625 2.375 -0.328125 C 1.84375 -0.648438 1.429688 -1.101562 1.140625 -1.6875 C 0.859375 -2.28125 0.71875 -2.96875 0.71875 -3.75 C 0.71875 -4.53125 0.859375 -5.21875 1.140625 -5.8125 C 1.429688 -6.414062 1.832031 -6.882812 2.34375 -7.21875 C 2.863281 -7.5625 3.46875 -7.734375 4.15625 -7.734375 C 4.550781 -7.734375 4.941406 -7.664062 5.328125 -7.53125 C 5.710938 -7.394531 6.0625 -7.175781 6.375 -6.875 C 6.695312 -6.582031 6.953125 -6.191406 7.140625 -5.703125 C 7.328125 -5.222656 7.421875 -4.625 7.421875 -3.90625 L 7.421875 -3.421875 L 1.890625 -3.421875 C 1.921875 -2.597656 2.148438 -1.96875 2.578125 -1.53125 C 3.015625 -1.101562 3.578125 -0.890625 4.265625 -0.890625 C 4.734375 -0.890625 5.128906 -0.988281 5.453125 -1.1875 C 5.785156 -1.382812 6.023438 -1.679688 6.171875 -2.078125 L 7.3125 -1.765625 C 7.132812 -1.191406 6.773438 -0.726562 6.234375 -0.375 C 5.703125 -0.0195312 5.046875 0.15625 4.265625 0.15625 Z M 1.890625 -4.4375 L 6.234375 -4.4375 C 6.234375 -5.070312 6.046875 -5.601562 5.671875 -6.03125 C 5.296875 -6.457031 4.789062 -6.671875 4.15625 -6.671875 C 3.707031 -6.671875 3.316406 -6.566406 2.984375 -6.359375 C 2.660156 -6.148438 2.40625 -5.875 2.21875 -5.53125 C 2.03125 -5.1875 1.921875 -4.820312 1.890625 -4.4375 Z M 1.890625 -4.4375 "/></g></g></g><g fill="#00b3a5" fill-opacity="1"><g transform="translate(485.572906, 532.455693)"><g><path d="M 3.953125 0.15625 C 3.316406 0.15625 2.753906 -0.00390625 2.265625 -0.328125 C 1.785156 -0.648438 1.40625 -1.101562 1.125 -1.6875 C 0.851562 -2.28125 0.71875 -2.984375 0.71875 -3.796875 C 0.71875 -4.597656 0.851562 -5.289062 1.125 -5.875 C 1.40625 -6.46875 1.789062 -6.925781 2.28125 -7.25 C 2.769531 -7.570312 3.332031 -7.734375 3.96875 -7.734375 C 4.46875 -7.734375 4.863281 -7.648438 5.15625 -7.484375 C 5.445312 -7.316406 5.664062 -7.128906 5.8125 -6.921875 C 5.96875 -6.710938 6.085938 -6.546875 6.171875 -6.421875 L 6.28125 -6.421875 L 6.28125 -10.171875 L 7.453125 -10.171875 L 7.453125 0 L 6.3125 0 L 6.3125 -1.171875 L 6.171875 -1.171875 C 6.085938 -1.035156 5.96875 -0.859375 5.8125 -0.640625 C 5.65625 -0.429688 5.425781 -0.242188 5.125 -0.078125 C 4.832031 0.078125 4.441406 0.15625 3.953125 0.15625 Z M 4.109375 -0.890625 C 4.816406 -0.890625 5.359375 -1.160156 5.734375 -1.703125 C 6.109375 -2.242188 6.296875 -2.945312 6.296875 -3.8125 C 6.296875 -4.664062 6.109375 -5.351562 5.734375 -5.875 C 5.367188 -6.40625 4.828125 -6.671875 4.109375 -6.671875 C 3.609375 -6.671875 3.191406 -6.546875 2.859375 -6.296875 C 2.535156 -6.046875 2.289062 -5.703125 2.125 -5.265625 C 1.96875 -4.835938 1.890625 -4.351562 1.890625 -3.8125 C 1.890625 -3.269531 1.972656 -2.773438 2.140625 -2.328125 C 2.304688 -1.890625 2.550781 -1.539062 2.875 -1.28125 C 3.207031 -1.019531 3.617188 -0.890625 4.109375 -0.890625 Z M 4.109375 -0.890625 "/></g></g></g><g fill="#00b3a5" fill-opacity="1"><g transform="translate(493.69455, 532.455693)"><g><path d="M 1.078125 0 L 1.078125 -7.625 L 2.25 -7.625 L 2.25 0 Z M 1.671875 -8.90625 C 1.441406 -8.90625 1.242188 -8.976562 1.078125 -9.125 C 0.910156 -9.28125 0.828125 -9.46875 0.828125 -9.6875 C 0.828125 -9.90625 0.910156 -10.09375 1.078125 -10.25 C 1.242188 -10.40625 1.441406 -10.484375 1.671875 -10.484375 C 1.898438 -10.484375 2.09375 -10.40625 2.25 -10.25 C 2.414062 -10.09375 2.5 -9.90625 2.5 -9.6875 C 2.5 -9.46875 2.414062 -9.28125 2.25 -9.125 C 2.09375 -8.976562 1.898438 -8.90625 1.671875 -8.90625 Z M 1.671875 -8.90625 "/></g></g></g><g fill="#00b3a5" fill-opacity="1"><g transform="translate(496.452414, 532.455693)"><g><path d="M 4.171875 0.15625 C 3.453125 0.15625 2.832031 -0.0078125 2.3125 -0.34375 C 1.800781 -0.6875 1.40625 -1.148438 1.125 -1.734375 C 0.851562 -2.328125 0.71875 -3.007812 0.71875 -3.78125 C 0.71875 -4.550781 0.859375 -5.234375 1.140625 -5.828125 C 1.429688 -6.421875 1.832031 -6.882812 2.34375 -7.21875 C 2.863281 -7.5625 3.46875 -7.734375 4.15625 -7.734375 C 4.6875 -7.734375 5.164062 -7.628906 5.59375 -7.421875 C 6.03125 -7.222656 6.382812 -6.945312 6.65625 -6.59375 C 6.9375 -6.238281 7.109375 -5.820312 7.171875 -5.34375 L 6 -5.34375 C 5.90625 -5.6875 5.707031 -5.992188 5.40625 -6.265625 C 5.101562 -6.535156 4.691406 -6.671875 4.171875 -6.671875 C 3.484375 -6.671875 2.929688 -6.410156 2.515625 -5.890625 C 2.097656 -5.367188 1.890625 -4.675781 1.890625 -3.8125 C 1.890625 -2.925781 2.09375 -2.21875 2.5 -1.6875 C 2.914062 -1.15625 3.472656 -0.890625 4.171875 -0.890625 C 4.628906 -0.890625 5.019531 -1.003906 5.34375 -1.234375 C 5.664062 -1.472656 5.882812 -1.800781 6 -2.21875 L 7.171875 -2.21875 C 7.109375 -1.769531 6.945312 -1.363281 6.6875 -1 C 6.425781 -0.644531 6.082031 -0.363281 5.65625 -0.15625 C 5.226562 0.0507812 4.734375 0.15625 4.171875 0.15625 Z M 4.171875 0.15625 "/></g></g></g><g fill="#00b3a5" fill-opacity="1"><g transform="translate(503.699962, 532.455693)"><g><path d="M 3.3125 0.171875 C 2.832031 0.171875 2.394531 0.0820312 2 -0.09375 C 1.601562 -0.28125 1.289062 -0.546875 1.0625 -0.890625 C 0.832031 -1.242188 0.71875 -1.671875 0.71875 -2.171875 C 0.71875 -2.609375 0.800781 -2.960938 0.96875 -3.234375 C 1.144531 -3.503906 1.375 -3.71875 1.65625 -3.875 C 1.945312 -4.03125 2.265625 -4.144531 2.609375 -4.21875 C 2.960938 -4.300781 3.316406 -4.363281 3.671875 -4.40625 C 4.140625 -4.46875 4.515625 -4.515625 4.796875 -4.546875 C 5.085938 -4.578125 5.300781 -4.628906 5.4375 -4.703125 C 5.570312 -4.785156 5.640625 -4.921875 5.640625 -5.109375 L 5.640625 -5.140625 C 5.640625 -5.628906 5.503906 -6.007812 5.234375 -6.28125 C 4.972656 -6.550781 4.570312 -6.6875 4.03125 -6.6875 C 3.46875 -6.6875 3.023438 -6.5625 2.703125 -6.3125 C 2.390625 -6.070312 2.171875 -5.816406 2.046875 -5.546875 L 0.9375 -5.9375 C 1.132812 -6.40625 1.398438 -6.769531 1.734375 -7.03125 C 2.066406 -7.289062 2.429688 -7.472656 2.828125 -7.578125 C 3.222656 -7.679688 3.613281 -7.734375 4 -7.734375 C 4.238281 -7.734375 4.515625 -7.703125 4.828125 -7.640625 C 5.148438 -7.578125 5.460938 -7.457031 5.765625 -7.28125 C 6.066406 -7.101562 6.316406 -6.832031 6.515625 -6.46875 C 6.710938 -6.113281 6.8125 -5.632812 6.8125 -5.03125 L 6.8125 0 L 5.640625 0 L 5.640625 -1.03125 L 5.578125 -1.03125 C 5.503906 -0.863281 5.375 -0.6875 5.1875 -0.5 C 5 -0.3125 4.75 -0.148438 4.4375 -0.015625 C 4.132812 0.109375 3.757812 0.171875 3.3125 0.171875 Z M 3.5 -0.875 C 3.957031 -0.875 4.347656 -0.960938 4.671875 -1.140625 C 4.992188 -1.328125 5.234375 -1.5625 5.390625 -1.84375 C 5.554688 -2.132812 5.640625 -2.441406 5.640625 -2.765625 L 5.640625 -3.828125 C 5.585938 -3.773438 5.476562 -3.722656 5.3125 -3.671875 C 5.144531 -3.617188 4.953125 -3.578125 4.734375 -3.546875 C 4.523438 -3.515625 4.316406 -3.484375 4.109375 -3.453125 C 3.898438 -3.429688 3.734375 -3.410156 3.609375 -3.390625 C 3.304688 -3.359375 3.023438 -3.296875 2.765625 -3.203125 C 2.503906 -3.117188 2.289062 -2.988281 2.125 -2.8125 C 1.96875 -2.632812 1.890625 -2.398438 1.890625 -2.109375 C 1.890625 -1.703125 2.039062 -1.394531 2.34375 -1.1875 C 2.644531 -0.976562 3.03125 -0.875 3.5 -0.875 Z M 3.5 -0.875 "/></g></g></g><g fill="#00b3a5" fill-opacity="1"><g transform="translate(511.026974, 532.455693)"><g><path d="M 6.796875 -9.796875 C 7.722656 -9.796875 8.535156 -9.644531 9.234375 -9.34375 C 9.941406 -9.039062 10.53125 -8.628906 11 -8.109375 C 11.46875 -7.597656 11.820312 -7.019531 12.0625 -6.375 C 12.300781 -5.726562 12.421875 -5.066406 12.421875 -4.390625 C 12.421875 -3.910156 12.394531 -3.421875 12.34375 -2.921875 C 12.300781 -2.429688 12.203125 -1.976562 12.046875 -1.5625 C 11.898438 -1.15625 11.671875 -0.828125 11.359375 -0.578125 C 11.054688 -0.328125 10.640625 -0.203125 10.109375 -0.203125 C 9.878906 -0.203125 9.625 -0.238281 9.34375 -0.3125 C 9.0625 -0.382812 8.8125 -0.503906 8.59375 -0.671875 C 8.382812 -0.835938 8.257812 -1.0625 8.21875 -1.34375 L 8.171875 -1.34375 C 8.046875 -1.0625 7.828125 -0.804688 7.515625 -0.578125 C 7.203125 -0.347656 6.765625 -0.242188 6.203125 -0.265625 C 5.617188 -0.273438 5.132812 -0.429688 4.75 -0.734375 C 4.363281 -1.046875 4.070312 -1.453125 3.875 -1.953125 C 3.675781 -2.460938 3.578125 -3.03125 3.578125 -3.65625 C 3.578125 -4.25 3.691406 -4.773438 3.921875 -5.234375 C 4.148438 -5.691406 4.460938 -6.054688 4.859375 -6.328125 C 5.253906 -6.609375 5.703125 -6.773438 6.203125 -6.828125 C 6.691406 -6.878906 7.113281 -6.828125 7.46875 -6.671875 C 7.820312 -6.523438 8.035156 -6.34375 8.109375 -6.125 L 8.171875 -6.125 L 8.171875 -6.671875 L 9.21875 -6.671875 L 9.21875 -2.1875 C 9.21875 -1.90625 9.296875 -1.65625 9.453125 -1.4375 C 9.609375 -1.226562 9.832031 -1.125 10.125 -1.125 C 10.632812 -1.125 10.96875 -1.390625 11.125 -1.921875 C 11.289062 -2.453125 11.375 -3.28125 11.375 -4.40625 C 11.375 -4.96875 11.28125 -5.507812 11.09375 -6.03125 C 10.90625 -6.5625 10.617188 -7.039062 10.234375 -7.46875 C 9.859375 -7.894531 9.378906 -8.234375 8.796875 -8.484375 C 8.210938 -8.734375 7.523438 -8.859375 6.734375 -8.859375 C 5.691406 -8.859375 4.800781 -8.644531 4.0625 -8.21875 C 3.320312 -7.800781 2.753906 -7.195312 2.359375 -6.40625 C 1.960938 -5.613281 1.765625 -4.664062 1.765625 -3.5625 C 1.765625 -1.863281 2.207031 -0.554688 3.09375 0.359375 C 3.976562 1.273438 5.269531 1.734375 6.96875 1.734375 C 7.332031 1.734375 7.691406 1.695312 8.046875 1.625 C 8.398438 1.550781 8.710938 1.472656 8.984375 1.390625 C 9.253906 1.304688 9.453125 1.25 9.578125 1.21875 L 9.859375 2.125 C 9.648438 2.207031 9.378906 2.289062 9.046875 2.375 C 8.722656 2.46875 8.375 2.539062 8 2.59375 C 7.625 2.65625 7.269531 2.6875 6.9375 2.6875 C 4.90625 2.6875 3.351562 2.140625 2.28125 1.046875 C 1.207031 -0.046875 0.671875 -1.59375 0.671875 -3.59375 C 0.671875 -4.882812 0.914062 -5.992188 1.40625 -6.921875 C 1.894531 -7.847656 2.59375 -8.554688 3.5 -9.046875 C 4.414062 -9.546875 5.515625 -9.796875 6.796875 -9.796875 Z M 6.390625 -5.859375 C 6.015625 -5.859375 5.691406 -5.757812 5.421875 -5.5625 C 5.160156 -5.363281 4.957031 -5.101562 4.8125 -4.78125 C 4.675781 -4.457031 4.609375 -4.101562 4.609375 -3.71875 C 4.609375 -3.289062 4.664062 -2.890625 4.78125 -2.515625 C 4.894531 -2.148438 5.078125 -1.847656 5.328125 -1.609375 C 5.578125 -1.378906 5.921875 -1.265625 6.359375 -1.265625 C 7.023438 -1.265625 7.5 -1.46875 7.78125 -1.875 C 8.070312 -2.28125 8.21875 -2.894531 8.21875 -3.71875 C 8.21875 -4.550781 8.0625 -5.113281 7.75 -5.40625 C 7.445312 -5.707031 6.992188 -5.859375 6.390625 -5.859375 Z M 6.390625 -5.859375 "/></g></g></g><g fill="#00b3a5" fill-opacity="1"><g transform="translate(523.558827, 532.455693)"><g><path d="M 4.15625 3.015625 C 3.300781 3.015625 2.625 2.859375 2.125 2.546875 C 1.632812 2.242188 1.269531 1.890625 1.03125 1.484375 L 1.96875 0.828125 C 2.070312 0.972656 2.203125 1.132812 2.359375 1.3125 C 2.523438 1.488281 2.75 1.644531 3.03125 1.78125 C 3.320312 1.914062 3.695312 1.984375 4.15625 1.984375 C 4.769531 1.984375 5.273438 1.832031 5.671875 1.53125 C 6.078125 1.238281 6.28125 0.773438 6.28125 0.140625 L 6.28125 -1.40625 L 6.171875 -1.40625 C 6.085938 -1.269531 5.96875 -1.097656 5.8125 -0.890625 C 5.65625 -0.691406 5.429688 -0.515625 5.140625 -0.359375 C 4.847656 -0.203125 4.453125 -0.125 3.953125 -0.125 C 3.335938 -0.125 2.785156 -0.269531 2.296875 -0.5625 C 1.804688 -0.851562 1.421875 -1.273438 1.140625 -1.828125 C 0.859375 -2.378906 0.71875 -3.054688 0.71875 -3.859375 C 0.71875 -4.640625 0.851562 -5.316406 1.125 -5.890625 C 1.40625 -6.472656 1.789062 -6.925781 2.28125 -7.25 C 2.769531 -7.570312 3.332031 -7.734375 3.96875 -7.734375 C 4.46875 -7.734375 4.863281 -7.648438 5.15625 -7.484375 C 5.445312 -7.316406 5.671875 -7.128906 5.828125 -6.921875 C 5.984375 -6.710938 6.109375 -6.546875 6.203125 -6.421875 L 6.3125 -6.421875 L 6.3125 -7.625 L 7.453125 -7.625 L 7.453125 0.21875 C 7.453125 0.875 7.300781 1.40625 7 1.8125 C 6.707031 2.226562 6.3125 2.53125 5.8125 2.71875 C 5.3125 2.914062 4.757812 3.015625 4.15625 3.015625 Z M 4.109375 -1.171875 C 4.816406 -1.171875 5.359375 -1.410156 5.734375 -1.890625 C 6.109375 -2.367188 6.296875 -3.03125 6.296875 -3.875 C 6.296875 -4.695312 6.109375 -5.367188 5.734375 -5.890625 C 5.367188 -6.410156 4.828125 -6.671875 4.109375 -6.671875 C 3.609375 -6.671875 3.191406 -6.546875 2.859375 -6.296875 C 2.535156 -6.046875 2.289062 -5.707031 2.125 -5.28125 C 1.96875 -4.851562 1.890625 -4.382812 1.890625 -3.875 C 1.890625 -3.082031 2.078125 -2.429688 2.453125 -1.921875 C 2.828125 -1.421875 3.378906 -1.171875 4.109375 -1.171875 Z M 4.109375 -1.171875 "/></g></g></g><g fill="#00b3a5" fill-opacity="1"><g transform="translate(531.521544, 532.455693)"><g><path d="M 1.078125 0 L 1.078125 -7.625 L 2.203125 -7.625 L 2.203125 -6.4375 L 2.296875 -6.4375 C 2.460938 -6.84375 2.722656 -7.160156 3.078125 -7.390625 C 3.429688 -7.617188 3.851562 -7.734375 4.34375 -7.734375 C 4.851562 -7.734375 5.273438 -7.617188 5.609375 -7.390625 C 5.941406 -7.160156 6.203125 -6.84375 6.390625 -6.4375 L 6.46875 -6.4375 C 6.664062 -6.832031 6.957031 -7.144531 7.34375 -7.375 C 7.738281 -7.613281 8.210938 -7.734375 8.765625 -7.734375 C 9.441406 -7.734375 9.992188 -7.519531 10.421875 -7.09375 C 10.859375 -6.664062 11.078125 -6.003906 11.078125 -5.109375 L 11.078125 0 L 9.90625 0 L 9.90625 -5.109375 C 9.90625 -5.671875 9.75 -6.070312 9.4375 -6.3125 C 9.132812 -6.550781 8.773438 -6.671875 8.359375 -6.671875 C 7.828125 -6.671875 7.410156 -6.507812 7.109375 -6.1875 C 6.816406 -5.863281 6.671875 -5.457031 6.671875 -4.96875 L 6.671875 0 L 5.484375 0 L 5.484375 -5.21875 C 5.484375 -5.65625 5.34375 -6.003906 5.0625 -6.265625 C 4.78125 -6.535156 4.414062 -6.671875 3.96875 -6.671875 C 3.664062 -6.671875 3.378906 -6.585938 3.109375 -6.421875 C 2.847656 -6.265625 2.640625 -6.039062 2.484375 -5.75 C 2.328125 -5.46875 2.25 -5.140625 2.25 -4.765625 L 2.25 0 Z M 1.078125 0 "/></g></g></g><g fill="#00b3a5" fill-opacity="1"><g transform="translate(543.119706, 532.455693)"><g><path d="M 3.3125 0.171875 C 2.832031 0.171875 2.394531 0.0820312 2 -0.09375 C 1.601562 -0.28125 1.289062 -0.546875 1.0625 -0.890625 C 0.832031 -1.242188 0.71875 -1.671875 0.71875 -2.171875 C 0.71875 -2.609375 0.800781 -2.960938 0.96875 -3.234375 C 1.144531 -3.503906 1.375 -3.71875 1.65625 -3.875 C 1.945312 -4.03125 2.265625 -4.144531 2.609375 -4.21875 C 2.960938 -4.300781 3.316406 -4.363281 3.671875 -4.40625 C 4.140625 -4.46875 4.515625 -4.515625 4.796875 -4.546875 C 5.085938 -4.578125 5.300781 -4.628906 5.4375 -4.703125 C 5.570312 -4.785156 5.640625 -4.921875 5.640625 -5.109375 L 5.640625 -5.140625 C 5.640625 -5.628906 5.503906 -6.007812 5.234375 -6.28125 C 4.972656 -6.550781 4.570312 -6.6875 4.03125 -6.6875 C 3.46875 -6.6875 3.023438 -6.5625 2.703125 -6.3125 C 2.390625 -6.070312 2.171875 -5.816406 2.046875 -5.546875 L 0.9375 -5.9375 C 1.132812 -6.40625 1.398438 -6.769531 1.734375 -7.03125 C 2.066406 -7.289062 2.429688 -7.472656 2.828125 -7.578125 C 3.222656 -7.679688 3.613281 -7.734375 4 -7.734375 C 4.238281 -7.734375 4.515625 -7.703125 4.828125 -7.640625 C 5.148438 -7.578125 5.460938 -7.457031 5.765625 -7.28125 C 6.066406 -7.101562 6.316406 -6.832031 6.515625 -6.46875 C 6.710938 -6.113281 6.8125 -5.632812 6.8125 -5.03125 L 6.8125 0 L 5.640625 0 L 5.640625 -1.03125 L 5.578125 -1.03125 C 5.503906 -0.863281 5.375 -0.6875 5.1875 -0.5 C 5 -0.3125 4.75 -0.148438 4.4375 -0.015625 C 4.132812 0.109375 3.757812 0.171875 3.3125 0.171875 Z M 3.5 -0.875 C 3.957031 -0.875 4.347656 -0.960938 4.671875 -1.140625 C 4.992188 -1.328125 5.234375 -1.5625 5.390625 -1.84375 C 5.554688 -2.132812 5.640625 -2.441406 5.640625 -2.765625 L 5.640625 -3.828125 C 5.585938 -3.773438 5.476562 -3.722656 5.3125 -3.671875 C 5.144531 -3.617188 4.953125 -3.578125 4.734375 -3.546875 C 4.523438 -3.515625 4.316406 -3.484375 4.109375 -3.453125 C 3.898438 -3.429688 3.734375 -3.410156 3.609375 -3.390625 C 3.304688 -3.359375 3.023438 -3.296875 2.765625 -3.203125 C 2.503906 -3.117188 2.289062 -2.988281 2.125 -2.8125 C 1.96875 -2.632812 1.890625 -2.398438 1.890625 -2.109375 C 1.890625 -1.703125 2.039062 -1.394531 2.34375 -1.1875 C 2.644531 -0.976562 3.03125 -0.875 3.5 -0.875 Z M 3.5 -0.875 "/></g></g></g><g fill="#00b3a5" fill-opacity="1"><g transform="translate(550.446712, 532.455693)"><g><path d="M 1.078125 0 L 1.078125 -7.625 L 2.25 -7.625 L 2.25 0 Z M 1.671875 -8.90625 C 1.441406 -8.90625 1.242188 -8.976562 1.078125 -9.125 C 0.910156 -9.28125 0.828125 -9.46875 0.828125 -9.6875 C 0.828125 -9.90625 0.910156 -10.09375 1.078125 -10.25 C 1.242188 -10.40625 1.441406 -10.484375 1.671875 -10.484375 C 1.898438 -10.484375 2.09375 -10.40625 2.25 -10.25 C 2.414062 -10.09375 2.5 -9.90625 2.5 -9.6875 C 2.5 -9.46875 2.414062 -9.28125 2.25 -9.125 C 2.09375 -8.976562 1.898438 -8.90625 1.671875 -8.90625 Z M 1.671875 -8.90625 "/></g></g></g><g fill="#00b3a5" fill-opacity="1"><g transform="translate(553.20457, 532.455693)"><g><path d="M 2.25 -10.171875 L 2.25 0 L 1.078125 0 L 1.078125 -10.171875 Z M 2.25 -10.171875 "/></g></g></g><g fill="#00b3a5" fill-opacity="1"><g transform="translate(555.962429, 532.455693)"><g><path d="M 1.921875 0.078125 C 1.679688 0.078125 1.472656 -0.0078125 1.296875 -0.1875 C 1.117188 -0.363281 1.03125 -0.570312 1.03125 -0.8125 C 1.03125 -1.0625 1.117188 -1.269531 1.296875 -1.4375 C 1.472656 -1.613281 1.679688 -1.703125 1.921875 -1.703125 C 2.171875 -1.703125 2.382812 -1.613281 2.5625 -1.4375 C 2.738281 -1.269531 2.828125 -1.0625 2.828125 -0.8125 C 2.828125 -0.570312 2.738281 -0.363281 2.5625 -0.1875 C 2.382812 -0.0078125 2.171875 0.078125 1.921875 0.078125 Z M 1.921875 0.078125 "/></g></g></g><g fill="#00b3a5" fill-opacity="1"><g transform="translate(559.256674, 532.455693)"><g><path d="M 4.171875 0.15625 C 3.453125 0.15625 2.832031 -0.0078125 2.3125 -0.34375 C 1.800781 -0.6875 1.40625 -1.148438 1.125 -1.734375 C 0.851562 -2.328125 0.71875 -3.007812 0.71875 -3.78125 C 0.71875 -4.550781 0.859375 -5.234375 1.140625 -5.828125 C 1.429688 -6.421875 1.832031 -6.882812 2.34375 -7.21875 C 2.863281 -7.5625 3.46875 -7.734375 4.15625 -7.734375 C 4.6875 -7.734375 5.164062 -7.628906 5.59375 -7.421875 C 6.03125 -7.222656 6.382812 -6.945312 6.65625 -6.59375 C 6.9375 -6.238281 7.109375 -5.820312 7.171875 -5.34375 L 6 -5.34375 C 5.90625 -5.6875 5.707031 -5.992188 5.40625 -6.265625 C 5.101562 -6.535156 4.691406 -6.671875 4.171875 -6.671875 C 3.484375 -6.671875 2.929688 -6.410156 2.515625 -5.890625 C 2.097656 -5.367188 1.890625 -4.675781 1.890625 -3.8125 C 1.890625 -2.925781 2.09375 -2.21875 2.5 -1.6875 C 2.914062 -1.15625 3.472656 -0.890625 4.171875 -0.890625 C 4.628906 -0.890625 5.019531 -1.003906 5.34375 -1.234375 C 5.664062 -1.472656 5.882812 -1.800781 6 -2.21875 L 7.171875 -2.21875 C 7.109375 -1.769531 6.945312 -1.363281 6.6875 -1 C 6.425781 -0.644531 6.082031 -0.363281 5.65625 -0.15625 C 5.226562 0.0507812 4.734375 0.15625 4.171875 0.15625 Z M 4.171875 0.15625 "/></g></g></g><g fill="#00b3a5" fill-opacity="1"><g transform="translate(566.504216, 532.455693)"><g><path d="M 4.171875 0.15625 C 3.484375 0.15625 2.878906 -0.00390625 2.359375 -0.328125 C 1.835938 -0.660156 1.429688 -1.117188 1.140625 -1.703125 C 0.859375 -2.296875 0.71875 -2.988281 0.71875 -3.78125 C 0.71875 -4.570312 0.859375 -5.265625 1.140625 -5.859375 C 1.429688 -6.453125 1.835938 -6.910156 2.359375 -7.234375 C 2.878906 -7.566406 3.484375 -7.734375 4.171875 -7.734375 C 4.859375 -7.734375 5.460938 -7.566406 5.984375 -7.234375 C 6.503906 -6.910156 6.90625 -6.453125 7.1875 -5.859375 C 7.476562 -5.265625 7.625 -4.570312 7.625 -3.78125 C 7.625 -2.988281 7.476562 -2.296875 7.1875 -1.703125 C 6.90625 -1.117188 6.503906 -0.660156 5.984375 -0.328125 C 5.460938 -0.00390625 4.859375 0.15625 4.171875 0.15625 Z M 4.171875 -0.890625 C 4.691406 -0.890625 5.117188 -1.023438 5.453125 -1.296875 C 5.796875 -1.566406 6.046875 -1.921875 6.203125 -2.359375 C 6.367188 -2.796875 6.453125 -3.269531 6.453125 -3.78125 C 6.453125 -4.28125 6.367188 -4.75 6.203125 -5.1875 C 6.046875 -5.632812 5.796875 -5.992188 5.453125 -6.265625 C 5.117188 -6.535156 4.691406 -6.671875 4.171875 -6.671875 C 3.648438 -6.671875 3.21875 -6.535156 2.875 -6.265625 C 2.539062 -5.992188 2.289062 -5.632812 2.125 -5.1875 C 1.96875 -4.75 1.890625 -4.28125 1.890625 -3.78125 C 1.890625 -3.269531 1.96875 -2.796875 2.125 -2.359375 C 2.289062 -1.921875 2.539062 -1.566406 2.875 -1.296875 C 3.21875 -1.023438 3.648438 -0.890625 4.171875 -0.890625 Z M 4.171875 -0.890625 "/></g></g></g><g fill="#00b3a5" fill-opacity="1"><g transform="translate(574.288133, 532.455693)"><g><path d="M 1.078125 0 L 1.078125 -7.625 L 2.203125 -7.625 L 2.203125 -6.4375 L 2.296875 -6.4375 C 2.460938 -6.84375 2.722656 -7.160156 3.078125 -7.390625 C 3.429688 -7.617188 3.851562 -7.734375 4.34375 -7.734375 C 4.851562 -7.734375 5.273438 -7.617188 5.609375 -7.390625 C 5.941406 -7.160156 6.203125 -6.84375 6.390625 -6.4375 L 6.46875 -6.4375 C 6.664062 -6.832031 6.957031 -7.144531 7.34375 -7.375 C 7.738281 -7.613281 8.210938 -7.734375 8.765625 -7.734375 C 9.441406 -7.734375 9.992188 -7.519531 10.421875 -7.09375 C 10.859375 -6.664062 11.078125 -6.003906 11.078125 -5.109375 L 11.078125 0 L 9.90625 0 L 9.90625 -5.109375 C 9.90625 -5.671875 9.75 -6.070312 9.4375 -6.3125 C 9.132812 -6.550781 8.773438 -6.671875 8.359375 -6.671875 C 7.828125 -6.671875 7.410156 -6.507812 7.109375 -6.1875 C 6.816406 -5.863281 6.671875 -5.457031 6.671875 -4.96875 L 6.671875 0 L 5.484375 0 L 5.484375 -5.21875 C 5.484375 -5.65625 5.34375 -6.003906 5.0625 -6.265625 C 4.78125 -6.535156 4.414062 -6.671875 3.96875 -6.671875 C 3.664062 -6.671875 3.378906 -6.585938 3.109375 -6.421875 C 2.847656 -6.265625 2.640625 -6.039062 2.484375 -5.75 C 2.328125 -5.46875 2.25 -5.140625 2.25 -4.765625 L 2.25 0 Z M 1.078125 0 "/></g></g></g></svg>